<?xml version="1.0" standalone="no"?>
<!DOCTYPE svg PUBLIC "-//W3C//DTD SVG 1.1//EN" "http://www.w3.org/Graphics/SVG/1.1/DTD/svg11.dtd" >
<svg xmlns="http://www.w3.org/2000/svg" xmlns:xlink="http://www.w3.org/1999/xlink" version="1.1">
<metadata>
Created by FontForge 20200427 at Thu Aug  4 23:50:10 2016
 By www
Copyright (c) 2015 by SoftMaker Software GmbH and its licensors. All rights reserved.
</metadata>
<defs>
<font id="CooperBlackProPoster" horiz-adv-x="500" >
  <font-face 
    font-family="CooperBlackProPoster"
    font-weight="400"
    font-stretch="normal"
    units-per-em="1000"
    panose-1="2 0 5 4 8 0 0 2 0 4"
    ascent="777"
    descent="-223"
    x-height="483"
    cap-height="677"
    bbox="-169 -256 1192 918"
    underline-thickness="126"
    underline-position="-105"
    unicode-range="U+0020-FB02"
  />
<missing-glyph horiz-adv-x="173" 
 />
    <glyph glyph-name="fi" unicode="fi" horiz-adv-x="705" 
d="M431 516q4 11 5.5 18t1.5 17q0 40 -34 77q27 17 66.5 28t76.5 11q42 0 66.5 -16t24.5 -43q0 -17 -10 -33t-27 -26q-29 -17 -67.5 -26t-78.5 -9h-11t-13 2zM366 395q30 0 28 -19v-1l-4 -58q-2 -18 -6.5 -23t-20.5 -5q-3 0 -6 0.5t-8 1.5t-8 1h-5q-22 0 -30 -15t-8 -54
q0 -17 3.5 -42.5t8.5 -40.5q5 -14 12.5 -21.5t27.5 -12.5q44 -14 44 -48q0 -16 -12.5 -30.5t-32.5 -20.5q-26 -8 -70 -13t-97 -5q-173 0 -173 67q0 17 7.5 25t31.5 19q27 11 31 43q2 11 3.5 25t3 28.5t2 27.5t0.5 22q0 23 -9 32.5t-30 9.5q-20 0 -26.5 0.5t-8.5 2.5
q-2 1 -5 4t-3 5l1 4l4 62q2 16 6 19.5t22 3.5q19 2 19 18q0 5 -2 9.5t-11 21.5q-23 42 -23 82q0 70 57.5 111.5t155.5 41.5q41 0 75.5 -9t60 -25.5t40 -39t14.5 -48.5q0 -32 -21 -54t-52 -22q-36 0 -67 25q-3 2 -5 4l-5.5 5.5t-9.5 10.5t-17 19q-12 13 -21.5 18t-20.5 5
q-14 0 -23.5 -10t-9.5 -24q0 -20 17.5 -40t55.5 -43q23 -14 31 -22t13 -22q2 -4 5 -5t11 -1h60zM643 169q0 -34 6 -49.5t25 -28.5q15 -11 20 -19t5 -19q0 -63 -160 -63q-26 0 -57 2t-57 7q-14 2 -20 4t-20 9q12 12 17 22.5t5 24.5q0 16 -10 33q8 6 13.5 14.5t9 21.5t5 31.5
t1.5 45.5q0 8 -0.5 24.5t-1.5 34t-2 33t-1 20.5q-2 8 -4.5 12.5t-10.5 11.5l2 33v3q0 30 -39 31q8 11 15 15.5t18 9.5q30 11 60.5 20t59 16t53 10.5t41.5 3.5q27 0 27 -31v-283z" />
    <glyph glyph-name="fl" unicode="fl" horiz-adv-x="700" 
d="M636 231q0 -51 0.5 -79t3 -41.5t8 -18.5t15.5 -9q18 -8 24 -14.5t6 -20.5q0 -25 -28 -41q-16 -9 -46 -13t-85 -4q-33 0 -56 1t-40 3.5t-29.5 7t-24.5 11.5q12 12 17 22t5 24q0 12 -8 29q10 8 13.5 16.5t5.5 26.5t3.5 34.5t2.5 34.5t1.5 39.5t0.5 49.5q0 53 -0.5 86
t-2 53.5t-4.5 33t-7 24.5q27 28 27 65q0 39 -32 74q21 8 48.5 15.5t55.5 13.5t54 9.5t45 3.5q39 0 39 -48q0 -7 -1.5 -26.5l-3.5 -45.5q-1 -8 -2 -31t-2 -48.5t-2 -48.5t-1 -31v-157zM366 395q30 0 28 -19v-1l-4 -58q-2 -18 -6.5 -23t-20.5 -5q-3 0 -6 0.5t-8 1.5t-8 1h-5
q-22 0 -30 -15t-8 -54q0 -17 3.5 -42.5t8.5 -40.5q5 -14 12.5 -21.5t27.5 -12.5q44 -14 44 -48q0 -16 -12.5 -30.5t-32.5 -20.5q-26 -8 -70 -13t-97 -5q-173 0 -173 67q0 17 7.5 25t31.5 19q27 11 31 43q2 11 3.5 25t3 28.5t2 27.5t0.5 22q0 23 -9 32.5t-30 9.5
q-20 0 -26.5 0.5t-8.5 2.5q-2 1 -5 4t-3 5l1 4l4 62q2 16 6 19.5t22 3.5q19 2 19 18q0 5 -2 9.5t-11 21.5q-23 42 -23 82q0 70 57.5 111.5t155.5 41.5q41 0 75.5 -9t60 -25.5t40 -39t14.5 -48.5q0 -32 -21 -54t-52 -22q-36 0 -67 25q-3 2 -5 4l-5.5 5.5t-9.5 10.5t-17 19
q-12 13 -21.5 18t-20.5 5q-14 0 -23.5 -10t-9.5 -24q0 -20 17.5 -40t55.5 -43q23 -14 31 -22t13 -22q2 -4 5 -5t11 -1h60z" />
    <glyph glyph-name=".notdef" horiz-adv-x="173" 
 />
    <glyph glyph-name=".null" horiz-adv-x="0" 
 />
    <glyph glyph-name="nonmarkingreturn" horiz-adv-x="173" 
 />
    <glyph glyph-name="space" unicode=" " horiz-adv-x="173" 
 />
    <glyph glyph-name="exclam" unicode="!" horiz-adv-x="293" 
d="M218 238q-33 16 -63 16q-16 0 -29.5 -3.5t-32.5 -11.5q-15 34 -27 70.5t-20.5 72.5t-13 70.5t-4.5 64.5q0 66 34 104.5t91 38.5q59 0 93.5 -41.5t34.5 -111.5q0 -31 -4.5 -65.5t-13 -69.5t-20 -69.5t-25.5 -64.5zM155 241q27 0 50 -10t40 -27.5t27 -40.5t10 -50
q0 -26 -10 -49t-27.5 -40t-40.5 -27t-49 -10t-49.5 10t-40.5 27t-27 40.5t-10 49.5t10 49t27 40.5t40.5 27.5t49.5 10z" />
    <glyph glyph-name="quotedbl" unicode="&#x22;" horiz-adv-x="345" 
d="M182 636q14 22 30.5 31.5t38.5 9.5q40 0 64 -32t24 -83q0 -41 -13.5 -88.5t-36.5 -89.5q-13 -23 -21.5 -33t-15.5 -10t-16.5 9t-19.5 24.5t-20 36t-17 43.5q10 32 14.5 57.5t4.5 50.5q0 21 -4 38t-12 36zM99 677q38 0 62 -32t24 -83q0 -41 -13.5 -88.5t-36.5 -89.5
q-14 -23 -22 -33t-15 -10q-9 0 -22 14.5t-27 40.5q-20 36 -31 79.5t-11 81.5q0 54 25 87t67 33z" />
    <glyph glyph-name="numbersign" unicode="#" horiz-adv-x="533" 
d="M99 139v6q0 1 1 2q1 4 1 6.5v3.5q0 15 -24 15h-8.5t-28.5 -2h-10q-9 0 -15 4.5t-6 11.5q0 3 4.5 12.5t10.5 21.5t12.5 23.5t11.5 17.5q8 11 16.5 15.5t19.5 4.5q8 0 13 -1h10q11 0 14 18l4 28v6q-1 8 -4 10.5t-12 2.5q-4 0 -19 -0.5t-26 -1.5h-10q-21 0 -21 16
q0 3 4.5 12.5t10.5 21t12.5 23t11.5 18.5q16 20 36 20h6.5t7.5 -1q2 -1 4.5 -1h4.5q11 0 14 19l3 19q2 12 2.5 18.5t0.5 13.5v10.5t1 24.5q0 12 3 19t10 12t20 10.5t27 10.5t26.5 8.5t19.5 3.5t11.5 -4.5t4.5 -10.5q0 -5 -3 -17q-1 -2 -1.5 -6t-1.5 -9q-1 -3 -1.5 -7.5
t-2.5 -23.5l-10 -71l-2 -10q-1 -13 22 -13h25q15 0 20 4t7 19l2 18q1 9 2 15.5t1.5 13.5t0.5 15.5v21.5t3 20t11 12q7 5 19.5 10.5t27 10.5t27 8.5t19.5 3.5q6 0 11 -4.5t5 -10.5q0 -5 -3 -17q-2 -3 -4 -16t-4 -30l-10 -71q-1 -5 -1.5 -8t-0.5 -4q-1 -11 17 -11l45 1
q5 1 8.5 1h5.5q16 0 16 -16q0 -7 -4.5 -17t-20.5 -40q-19 -38 -41 -38q-4 0 -10.5 0.5t-11.5 1.5q-3 1 -5.5 1h-4.5q-10 0 -13 -18l-3 -23q-1 -5 -1.5 -8t-0.5 -4q-2 -15 27 -15q8 0 18.5 0.5t16.5 1.5q5 1 8.5 1h5.5q6 0 11 -4.5t5 -9.5t-3.5 -14.5t-9 -20.5t-11.5 -22.5
t-12 -19.5q-14 -20 -30 -20q-3 0 -10.5 0.5t-11.5 1.5t-9 1q-10 0 -12 -9q-2 -4 -3.5 -16t-3 -27t-2.5 -30t-1 -26q-1 -16 -4 -24.5t-11 -14.5q-5 -5 -18.5 -11t-28 -12t-28 -10t-18.5 -4q-7 0 -11.5 5t-4.5 13q0 2 0.5 6t1.5 10l5 25t3.5 19l3.5 21t5 32l4 28l1 11
q2 17 -21 17h-29q-20 0 -22 -20l-2 -11q-2 -17 -4 -40t-3 -40q0 -16 -3 -24t-11 -14q-6 -5 -19 -11t-28 -12t-28 -10t-18 -4q-7 0 -11.5 5t-4.5 13q0 3 0.5 6.5t1.5 8.5q3 12 4.5 22t3.5 20.5t4 23t5 31.5zM278 276q13 0 17 3.5t6 16.5l4 27l1 11q0 12 -18 12h-32
q-14 0 -17.5 -3t-5.5 -17l-4 -27q-1 -4 -1 -6.5v-4.5q0 -12 18 -12h32z" />
    <glyph glyph-name="dollar" unicode="$" horiz-adv-x="553" 
d="M213 616q0 20 6 26t26 6h41q20 0 26 -6t6 -26v-24q0 -8 0.5 -12t4 -6.5t10.5 -4l21 -4.5q4 -1 10.5 -2.5t17.5 -4.5q9 -3 14 -3q4 0 13 3q14 5 18.5 6t10.5 1q14 0 30.5 -13t30 -32.5t22.5 -42.5t9 -44q0 -26 -14 -41.5t-37 -15.5q-8 0 -13.5 1t-13 6.5t-20.5 16.5
t-35 32q-20 19 -45 29.5t-49 10.5q-23 0 -36.5 -12t-13.5 -32q0 -16 10 -26q6 -6 11 -10t15.5 -8.5t30 -10.5t52.5 -16q88 -26 129 -70t41 -112q0 -76 -55 -128q-31 -29 -72 -49t-77 -22q-14 -2 -17 -5.5t-3 -17.5v-23q0 -20 -6 -26t-26 -6h-41q-20 0 -26 6t-6 26v23
q0 13 -2.5 17t-11.5 5q-21 3 -43 8t-41.5 11t-34.5 12.5t-22 12.5q-9 7 -18 23.5t-16 36.5t-11 42.5t-4 42.5t9.5 32t25.5 12q17 0 38 -22q2 -2 3.5 -4t4.5 -6.5t8.5 -13.5t16.5 -25q18 -29 51.5 -45.5t73.5 -16.5q32 0 52 12t20 31q0 14 -9 22q-5 6 -9.5 9.5t-14 8
t-27.5 11t-51 17.5q-88 31 -132.5 80.5t-44.5 115.5q0 33 13 63.5t35.5 55.5t53 43t66.5 25q15 3 18 6t3 18v23z" />
    <glyph glyph-name="percent" unicode="%" horiz-adv-x="672" 
d="M373 324q-54 -26 -82 -69t-28 -98v-9.5t1 -11.5q-8 -15 -12.5 -23.5t-7.5 -13.5t-5 -8.5t-5 -8.5q-8 -14 -14.5 -26.5t-6.5 -14.5q-14 -27 -23.5 -36.5t-26.5 -9.5q-24 0 -40.5 7t-16.5 18q0 9 10 26q24 37 38.5 59.5t26.5 41.5t24.5 40t33.5 56l65 110q50 26 78 68.5
t28 91.5v7t-1 11q14 25 22 39.5t13.5 25t10.5 19.5t12 24q12 25 23.5 33.5t33.5 8.5q46 0 46 -23q0 -9 -8 -25t-30 -48q-5 -6 -14 -20.5t-20.5 -32.5t-24 -38t-22.5 -38zM220 677q35 0 67 -13t56 -35.5t38.5 -52t14.5 -62.5q0 -36 -16.5 -68t-44.5 -56t-66 -38t-80 -14
q-39 0 -71.5 12t-56.5 33t-37 50t-13 64q0 39 15.5 72t43.5 57t66.5 37.5t83.5 13.5zM187 601q-14 0 -22 -10t-8 -26q0 -20 6 -49.5t14 -50.5q10 -24 18.5 -33t21.5 -9q28 0 28 37q0 27 -5 52.5t-13 45t-18.5 31.5t-21.5 12zM486 335q35 0 67 -13t56 -35.5t38.5 -52
t14.5 -62.5q0 -36 -16.5 -68t-44.5 -56t-66 -38t-80 -14q-39 0 -72 12t-57 33t-37 50t-13 64q0 39 15.5 72t43.5 57t66.5 37.5t84.5 13.5zM452 259q-14 0 -22 -10t-8 -26q0 -20 6 -49.5t15 -50.5q9 -24 17.5 -33t22.5 -9q28 0 28 37q0 27 -5 52.5t-13.5 45t-19 31.5
t-21.5 12z" />
    <glyph glyph-name="ampersand" unicode="&#x26;" horiz-adv-x="875" 
d="M322 693q34 0 64 -7.5t52.5 -20t35.5 -29t13 -35.5q0 -21 -17 -38.5t-38 -17.5q-5 0 -8 0.5t-7.5 2.5t-12 7t-20.5 14q-22 16 -48 16q-25 0 -41.5 -18.5t-16.5 -46.5q0 -17 7 -30.5t19 -21.5q4 -2 6.5 -3.5t7 -2.5t12.5 -2t22 -2q30 -5 30 -41q0 -18 -9 -34t-24 -25
q-5 -3 -9 -4.5t-9 -3t-13.5 -3t-22.5 -3.5q-23 -3 -23 -43q0 -38 16 -73t42.5 -63t60.5 -44.5t70 -16.5q29 0 55.5 9t46 25t31 37t11.5 44t-18.5 40t-44.5 17q-39 0 -69 -49q-12 -22 -26 -22q-17 0 -30 20.5t-13 48.5q0 60 42 107t123 76q29 10 47.5 18.5t29.5 16.5t15 16.5
t4 19.5q0 9 -7 16.5t-16 7.5q-3 0 -5 -0.5t-12 -5.5q-3 -1 -8 -1q-8 0 -14 6.5t-6 14.5q0 15 10.5 29t28.5 24.5t41 17t47 6.5q31 0 57.5 -9.5t45.5 -26t30 -39t11 -49.5q0 -43 -28 -81t-79 -67q-20 -11 -28 -18.5t-8 -15.5q0 -6 4 -10t20 -15q23 -14 35.5 -37.5t12.5 -50.5
q0 -37 -22.5 -75.5t-62.5 -68.5q-120 -93 -308 -93q-72 0 -135 14t-115 40q-65 34 -103.5 93t-38.5 124q0 44 22.5 80t64.5 58q18 10 18 17q0 6 -5 14q-14 23 -22 46.5t-8 40.5q0 36 19 68.5t52 57t76.5 39t92.5 14.5z" />
    <glyph glyph-name="quotesingle" unicode="'" horiz-adv-x="192" 
d="M96 677q39 0 64 -33.5t25 -87.5q0 -42 -13.5 -89t-35.5 -84q-27 -42 -42 -42q-8 0 -18 12.5t-24 40.5q-21 40 -33 85t-12 83q0 52 24 83.5t65 31.5z" />
    <glyph glyph-name="parenleft" unicode="(" horiz-adv-x="447" 
d="M385 82q8 1 13 1.5t7 0.5q35 0 35 -48q0 -46 -97 -46q-137 0 -228 111q-22 27 -40 57.5t-30.5 63t-19.5 64t-7 60.5t7 61.5t20 64.5t31 62t40 54q39 44 93.5 67t118.5 23q31 0 57 -5t40 -14q15 -9 15 -32t-8.5 -36t-23.5 -13q-4 0 -9.5 0.5t-10.5 1.5q-11 2 -17.5 3
t-10.5 1.5t-6.5 0.5h-5.5q-26 0 -44 -13t-35 -45q-20 -39 -32.5 -90.5t-12.5 -101.5q0 -57 14.5 -113t39.5 -95q14 -22 34.5 -34t44.5 -12z" />
    <glyph glyph-name="parenright" unicode=")" horiz-adv-x="447" 
d="M62 585q-8 -1 -13 -1.5t-7 -0.5q-35 0 -35 48q0 46 97 46q136 0 228 -111q22 -27 39.5 -57.5t30.5 -63t20 -64.5t7 -60q0 -29 -7 -61.5t-20 -64t-31 -61.5t-40 -55q-39 -44 -93 -67t-119 -23q-31 0 -57 5t-40 14q-15 9 -15 32q0 47 32 49h8.5t11.5 -2q17 -3 25.5 -4
t14.5 -1q26 0 44 13t35 45q20 39 32.5 90.5t12.5 101.5q0 57 -14.5 113t-39.5 95q-14 22 -34.5 34t-44.5 12z" />
    <glyph glyph-name="asterisk" unicode="*" horiz-adv-x="426" 
d="M143 545q7 -3 12 -3q4 0 7 4.5t1 9.5q-1 0 -1 2v1l-2 67l-1 5q-1 11 1.5 22.5t6.5 15.5q5 5 15.5 6.5t31.5 1.5q20 0 30.5 -2t15.5 -7q3 -4 5.5 -16.5t1.5 -20.5l-1 -5l-2 -67q-2 -17 8 -17q3 0 11 3l63 23q9 4 18.5 6t15.5 2q9 0 14.5 -6.5t12.5 -24.5q5 -12 8.5 -27
t3.5 -20q0 -11 -9 -18t-31 -13l-65 -19q-13 -4 -13 -11q0 -5 6 -11l42 -53q19 -25 19 -37q0 -6 -8.5 -15.5t-20 -18.5t-24 -15.5t-19.5 -6.5q-15 0 -34 30l-37 56q-8 10 -12 10q-6 0 -12 -10l-37 -56q-21 -30 -34 -30q-8 0 -20 6.5t-23.5 15.5t-20 18.5t-8.5 15.5
q0 12 19 37l42 53q5 5 6 7t1 4q0 7 -14 11l-65 19q-22 6 -31 13t-9 18q0 7 4.5 23t10.5 30q5 14 10.5 19.5t14.5 5.5q11 0 33 -8z" />
    <glyph glyph-name="plus" unicode="+" 
d="M140 229q-38 0 -59 -0.5t-38 -1.5q-3 -1 -5.5 -1h-4.5q-10 0 -16.5 5.5t-6.5 13.5q0 4 3 15t7.5 23.5t9.5 24.5t8 19q12 22 33 22h6t8 -1q20 -2 39 -3.5t28 -1.5h12q27 0 27 27v31v16t-0.5 12.5t-2 15t-3.5 23.5q-1 4 -1 11q0 9 7 16t24 15q9 4 20.5 8t22.5 7t20.5 5
t14.5 2q8 0 14.5 -5.5t5.5 -13.5q0 -2 -0.5 -5t-1.5 -8t-1 -15.5v-30.5v-84q0 -27 27 -27h75h30.5t16.5 1q10 2 12 2q8 1 13.5 -5t5.5 -14q0 -6 -2.5 -16.5t-6 -22.5t-8 -23.5t-8.5 -19.5q-7 -13 -13.5 -18t-14.5 -5q-4 0 -8 0.5t-25 3.5q-18 3 -45 3h-22q-15 0 -21 -6
t-6 -21v-8q0 -17 1.5 -38.5t3.5 -41.5q1 -4 1 -8v-7q0 -11 -6.5 -19t-23.5 -16q-8 -3 -19.5 -7.5t-23.5 -8.5t-22 -6.5t-13 -2.5q-8 0 -14 6.5t-6 16.5v10q2 20 2.5 39.5t0.5 57.5v33q0 15 -6 21t-21 6h-24z" />
    <glyph glyph-name="comma" unicode="," horiz-adv-x="285" 
d="M137 241q29 0 54 -13.5t43 -37t28.5 -55.5t10.5 -70q0 -43 -16 -96t-42 -97q-22 -38 -42.5 -54.5t-45.5 -16.5q-20 0 -36.5 12.5t-16.5 28.5q0 6 3.5 13t17.5 28q12 20 21.5 44t9.5 36q0 11 -3.5 17t-14.5 10q-12 4 -19.5 7t-13 6t-9.5 5.5t-9 7.5q-22 18 -34 44t-12 55
q0 26 10 49t27 40t40 27t49 10z" />
    <glyph glyph-name="hyphen" unicode="-" horiz-adv-x="308" 
d="M96 349h12.5t13.5 -2q33 -4 53.5 -5.5t37.5 -1.5q11 0 25.5 0.5t19.5 2.5q15 3 21 3q16 2 16 -23q0 -21 -9.5 -53t-23.5 -63q-11 -23 -19.5 -31.5t-19.5 -8.5t-24 3q-8 1 -21 2.5t-27 3t-27.5 2t-23.5 0.5t-23 -0.5t-21 -1.5t-14.5 -1.5t-9.5 -0.5q-21 0 -21 23
q0 8 3 22.5t8 30.5t11 31.5t12 25.5q13 24 24 33t27 9z" />
    <glyph glyph-name="period" unicode="." horiz-adv-x="275" 
d="M138 241q27 0 50 -10t40 -27.5t27 -40.5t10 -50q0 -26 -10 -49t-27.5 -40t-40.5 -27t-49 -10t-49.5 10t-40.5 27t-27 40.5t-10 49.5t10 49t27 40.5t40.5 27.5t49.5 10z" />
    <glyph glyph-name="slash" unicode="/" horiz-adv-x="408" 
d="M200 463l22 57l23 55q8 17 13 31.5t10 25.5q10 27 20 36t33 9q37 0 58.5 -10.5t21.5 -27.5q0 -6 -1 -11t-6 -17t-16.5 -35.5t-32.5 -65.5q-13 -26 -23 -47t-18 -39l-96 -220q-12 -29 -19.5 -46t-12.5 -28.5t-8.5 -20t-7.5 -20.5q-9 -23 -14.5 -36.5t-9 -21.5t-6 -12.5
t-5.5 -9.5q-14 -19 -41 -19q-32 0 -54.5 12t-22.5 29q0 6 1 11t6 16.5t15 31.5t29 56q13 23 24 47l22 48z" />
    <glyph glyph-name="zero" unicode="0" horiz-adv-x="581" 
d="M281 563q59 0 111 -23.5t90.5 -64t61 -94.5t22.5 -116q0 -58 -21.5 -108.5t-59 -88t-87.5 -59.5t-107 -22q-60 0 -110 22t-87 61t-57.5 93t-20.5 118q0 63 19 115t54 89t84 57.5t108 20.5zM270 418q-46 0 -46 -77q0 -46 10.5 -95.5t28.5 -86.5q7 -14 17.5 -22.5
t23.5 -8.5q21 0 32.5 20.5t11.5 58.5q0 21 -2.5 45.5t-7 48t-11 44.5t-13.5 37q-16 36 -44 36z" />
    <glyph glyph-name="one" unicode="1" horiz-adv-x="528" 
d="M49 95q5 0 9 -0.5t23 -2.5q6 -1 11 -1.5t8 -0.5q41 0 47 65q1 5 1.5 29.5t1 57t1 66t0.5 57.5q0 27 -10.5 37.5t-39.5 10.5h-8t-12 -1q-5 -1 -9.5 -1h-7.5q-17 0 -27 9t-10 24q0 21 31.5 41.5t82 37t114 27t127.5 10.5q79 0 79 -42q0 -13 -6.5 -20t-25.5 -15
q-29 -13 -35 -37q-3 -11 -4.5 -51t-1.5 -93q0 -21 1 -47t2 -50t2.5 -43t3.5 -26q4 -19 13 -29t28 -15l4.5 -1.5t5 -0.5t10 -0.5t17.5 -0.5q46 -3 46 -38q0 -20 -15 -31.5t-50 -17.5q-18 -3 -42 -6t-49.5 -5t-50 -3.5t-43.5 -1.5q-38 0 -82.5 4t-77.5 10q-58 11 -81 24
t-23 33q0 16 12.5 27t29.5 11z" />
    <glyph glyph-name="two" unicode="2" horiz-adv-x="581" 
d="M51 0q-44 0 -44 25q0 6 1.5 11t8.5 13t21 21.5t39 37.5q37 35 67.5 69t51.5 64t32.5 55.5t11.5 43.5q0 25 -14.5 39.5t-38.5 14.5q-11 0 -18 -1t-15.5 -5.5t-20.5 -13.5t-32 -26q-11 -9 -28 -9q-11 0 -22 5t-20 13t-14.5 18t-5.5 21q0 19 17.5 43t46.5 45
q51 37 111.5 56.5t122.5 19.5q46 0 89 -10t73 -28q29 -17 46.5 -47.5t17.5 -64.5q0 -86 -119 -185q-42 -36 -42 -54q0 -13 13 -22.5t30 -9.5q20 0 41 9t37 24q16 16 22 20t16 4q20 0 31.5 -19t11.5 -54q0 -31 -9.5 -61.5t-24.5 -54.5t-34.5 -38.5t-39.5 -14.5
q-12 0 -19.5 5.5t-16.5 19.5q-8 13 -17 17t-32 4h-332z" />
    <glyph glyph-name="three" unicode="3" horiz-adv-x="583" 
d="M255 560q44 0 88.5 -9.5t78.5 -25.5q29 -14 46 -39t17 -54q0 -28 -12.5 -50t-42.5 -47q-16 -12 -16 -20q0 -13 28 -19q33 -7 49.5 -13.5t32.5 -19.5q23 -20 36 -49t13 -64q0 -56 -26 -102.5t-73.5 -79.5t-113.5 -51t-146 -18q-103 0 -172 28q-46 17 -46 51
q0 21 15.5 35.5t36.5 14.5h8.5t9.5 -1.5t17 -4t31 -7.5q16 -4 51 -4q31 0 52 6.5t40 20.5q17 14 27 31.5t10 34.5q0 35 -28 57t-73 22q-11 0 -26 -2t-24 -4q-11 -4 -18 -4q-6 0 -13 7.5t-13 18.5t-10 24.5t-4 25.5q0 6 1 9.5t5.5 6.5t14 6.5t26.5 9.5q14 5 30 15t29 24
q22 21 22 47q0 28 -22 48t-53 20q-18 0 -33 -5t-47 -22q-10 -5 -16 -5q-12 0 -23 17.5t-11 36.5t21.5 37.5t56.5 33t79 23.5t90 9z" />
    <glyph glyph-name="four" unicode="4" horiz-adv-x="586" 
d="M511 207q0 -26 20 -26h20q24 0 24 -28v-99q0 -14 -6 -20.5t-20 -8.5q-18 -2 -22 -6t-4 -21v-58q0 -32 -29 -32h-167q-18 0 -23 6t-5 26v51q0 20 -7.5 28t-27.5 8h-190q-35 0 -49 14.5t-14 49.5q0 19 3 40.5t8 32.5q6 15 27 44.5t52 65.5l124 149q95 113 138 143
q20 14 48.5 22.5t53.5 8.5t35.5 -12t10.5 -40v-338zM172 247q-18 -22 -25.5 -35t-7.5 -23q0 -7 5 -11t18.5 -6.5t36 -3.5t58.5 -1q26 0 35 5.5t11 22.5q2 11 2.5 43.5t0.5 68.5q0 29 -5.5 40.5t-19.5 11.5q-19 0 -34 -20z" />
    <glyph glyph-name="five" unicode="5" horiz-adv-x="560" 
d="M509 553q20 0 27 -8.5t7 -31.5q0 -33 -12 -65.5t-31 -50.5q-15 -15 -39 -15h-221q-37 0 -37 -29q0 -13 8.5 -17.5t37.5 -7.5q110 -12 185 -47q52 -25 83 -66.5t31 -88.5q0 -49 -32 -96.5t-86 -78.5q-95 -55 -227 -55q-71 0 -131 18q-29 9 -41.5 23t-12.5 35q0 23 7.5 39
t18.5 16q7 0 15 -3q28 -8 52.5 -12t41.5 -4q42 0 67 18t25 47q0 34 -36 58.5t-102 35.5q-25 4 -39 6.5t-21.5 4t-11 3t-7.5 4.5q-17 11 -17 31q0 13 6 40.5t16.5 62.5t23.5 74t28 75q12 29 19.5 46t15.5 25.5t17.5 11t24.5 2.5h347z" />
    <glyph glyph-name="six" unicode="6" horiz-adv-x="604" 
d="M241 635q17 0 39.5 -6t42.5 -14.5t34 -18.5t14 -17q0 -3 -1 -6t-4.5 -8.5t-12 -15t-23.5 -26.5q-9 -11 -18 -24.5t-16 -27t-11.5 -25.5t-4.5 -19t4.5 -12.5t10.5 -5.5h3.5t4.5 1t9.5 3.5t17.5 6.5q20 7 39.5 11t36.5 4q38 0 71.5 -14.5t58 -40t39 -59t14.5 -72.5
q0 -51 -22.5 -101.5t-61.5 -87.5q-76 -73 -193 -73q-128 0 -208 75q-41 38 -64.5 94t-23.5 115q0 123 99 252q47 61 75.5 86.5t50.5 25.5zM294 296q-21 0 -33.5 -15.5t-12.5 -41.5q0 -20 8 -41.5t21 -39t28 -28.5t30 -11q20 0 32.5 12t12.5 31q0 16 -4 34t-11 34.5t-16 30
t-19 22.5q-16 13 -36 13z" />
    <glyph glyph-name="seven" unicode="7" horiz-adv-x="567" 
d="M361 -106q-4 -12 -14.5 -16.5t-36.5 -4.5q-28 0 -54.5 4.5t-47.5 12t-33.5 17.5t-12.5 20q0 4 4 12l182 348q20 40 20 54q0 18 -23 25t-85 7q-34 0 -63 -2.5t-43 -7.5q-8 -2 -13 -6t-11 -12q-14 -19 -25 -25.5t-28 -6.5q-34 0 -52 28t-18 81q0 64 24 109q11 21 28.5 35
t33.5 14q4 0 7.5 -0.5t8 -2t12.5 -5t22 -9.5t25.5 -8t34.5 -2h314q47 0 47 -35q0 -12 -4 -23z" />
    <glyph glyph-name="eight" unicode="8" horiz-adv-x="611" 
d="M298 619q48 0 98 -9t91 -25q45 -17 71.5 -50t26.5 -71q0 -30 -15 -53t-49 -45q-19 -14 -19 -20q0 -5 4 -8.5t19 -14.5q32 -23 51 -57.5t19 -72.5q0 -42 -23.5 -83.5t-61.5 -70.5q-71 -52 -187 -52q-68 0 -124 14t-97 39.5t-63.5 61t-22.5 77.5q0 61 57 105q14 9 18 13.5
t4 8.5q0 5 -3.5 9.5t-15.5 15.5q-21 21 -33 49t-12 57q0 40 20 73.5t55 57.5t84 37.5t108 13.5zM319 529q-21 0 -35.5 -11t-14.5 -27q0 -12 10.5 -26t26 -26t33 -20.5t31.5 -8.5q13 0 23 17t10 39q0 28 -23.5 45.5t-60.5 17.5zM203 238q-11 0 -17.5 -10.5t-6.5 -27.5
q0 -23 10 -43.5t26.5 -36t38.5 -25t46 -9.5q29 0 47 13t18 35q0 12 -3.5 21t-13.5 18t-27 18.5t-44 22.5q-25 11 -44 17.5t-30 6.5z" />
    <glyph glyph-name="nine" unicode="9" horiz-adv-x="602" 
d="M300 560q47 0 93.5 -11.5t84.5 -32.5q107 -59 107 -191q0 -85 -44 -177.5t-125 -180.5q-40 -44 -72.5 -68t-51.5 -24q-15 0 -36 7.5t-40.5 18t-33 21.5t-13.5 19q0 6 5.5 11.5t23.5 17.5q16 10 31 26t27 33.5t19.5 34.5t7.5 30q0 19 -20 19h-9.5t-23.5 -2q-2 -1 -6 -1h-9
q-76 0 -124 45q-35 33 -55 81.5t-20 100.5q0 51 20.5 92t58.5 70q42 29 94 45t111 16zM294 421q-20 0 -34.5 -17.5t-14.5 -43.5q0 -25 6.5 -47.5t18 -39t26 -26.5t31.5 -10q20 0 32.5 15t12.5 38q0 13 -3 28.5t-8 31t-12 28.5t-14 22q-18 21 -41 21z" />
    <glyph glyph-name="colon" unicode=":" horiz-adv-x="299" 
d="M231 234q-20 11 -36 15t-35 4q-18 0 -34 -4t-36 -15q-27 18 -41.5 45.5t-14.5 59.5q0 26 10 49t27 40.5t40.5 27.5t49.5 10t49 -10t40 -27.5t27 -40.5t10 -49q0 -66 -56 -105zM161 241q26 0 49 -10t40.5 -27.5t27.5 -40.5t10 -49t-10 -49.5t-27.5 -40.5t-40.5 -27
t-49 -10q-27 0 -50 10t-40 27.5t-27 40.5t-10 50q0 26 10 49t27.5 40t40.5 27t49 10z" />
    <glyph glyph-name="semicolon" unicode=";" horiz-adv-x="308" 
d="M232 232q-19 11 -36.5 16t-37.5 5q-17 0 -32 -4t-34 -13q-53 39 -53 103q0 26 10 49t27 40.5t40.5 27.5t49.5 10t49 -10t40 -27.5t27 -40.5t10 -49q0 -34 -15.5 -62t-44.5 -45zM160 241q29 0 54 -13.5t43 -37t28.5 -55.5t10.5 -70q0 -43 -16 -96t-42 -97
q-22 -38 -42.5 -54.5t-45.5 -16.5q-20 0 -36.5 12.5t-16.5 28.5q0 6 3.5 13t17.5 28q12 20 21.5 44t9.5 36q0 11 -3.5 17t-14.5 10q-12 4 -19.5 7t-13 6t-9.5 5.5t-9 7.5q-22 18 -34 44t-12 55q0 26 10 49t27 40t40 27t49 10z" />
    <glyph glyph-name="less" unicode="&#x3c;" 
d="M466 462l-202 -123l201 -124l1 -216l-433 250v181l433 250v-218z" />
    <glyph glyph-name="equal" unicode="=" 
d="M412 430h30.5t15.5 1t8 1.5t5 0.5q8 1 13.5 -5t5.5 -14q0 -6 -2.5 -16.5t-6 -22.5t-8 -23.5t-8.5 -19.5q-13 -23 -28 -23q-4 0 -8 0.5t-25 3.5q-17 3 -45 3h-219q-38 0 -59 -0.5t-38 -1.5q-3 -1 -5.5 -1h-4.5q-10 0 -16.5 5.5t-6.5 13.5q0 4 3 15t7.5 23.5t9.5 24.5t8 19
q12 22 33 22h6t8 -1q23 -2 43 -3.5t37 -1.5h247zM412 256h30.5t15.5 1t8 1.5t5 0.5q8 1 13.5 -5t5.5 -14q0 -6 -2.5 -16.5t-6 -22.5t-8 -23.5t-8.5 -19.5q-13 -23 -28 -23q-4 0 -8 0.5t-25 3.5q-17 3 -45 3h-219q-38 0 -59 -0.5t-38 -1.5q-3 -1 -5.5 -1h-4.5
q-10 0 -16.5 5.5t-6.5 13.5q0 4 3 15t7.5 23.5t9.5 24.5t8 19q12 22 33 22h6t8 -1q23 -2 43 -3.5t37 -1.5h247z" />
    <glyph glyph-name="greater" unicode="&#x3e;" 
d="M33 216l203 124l-202 124l-1 216l433 -250v-182l-433 -249v217z" />
    <glyph glyph-name="question" unicode="?" horiz-adv-x="508" 
d="M309 242q-16 7 -28.5 9.5t-27.5 2.5q-17 0 -32.5 -4t-35.5 -14q-7 11 -9 19.5t-2 20.5q0 30 15 62q1 3 2.5 5.5t5.5 8.5t11.5 18t21.5 33q35 53 35 98q0 23 -10.5 38t-26.5 15q-15 0 -21.5 -10.5t-9.5 -39.5q-5 -53 -33 -82.5t-73 -29.5q-35 0 -57.5 21.5t-22.5 54.5
q0 26 9 52t25 49t38 42t48 31q56 25 119 25q50 0 94.5 -16t78.5 -44t53.5 -64.5t19.5 -76.5q0 -61 -48 -104q-5 -4 -8.5 -7t-10.5 -7t-20 -11t-36 -19q-14 -8 -23 -13.5t-15 -12.5t-10.5 -17t-11.5 -26zM254 241q27 0 50 -10t40 -27.5t27 -40.5t10 -50q0 -26 -10 -49
t-27.5 -40t-40.5 -27t-49 -10t-49.5 10t-40.5 27t-27 40.5t-10 49.5t10 49t27 40.5t40.5 27.5t49.5 10z" />
    <glyph glyph-name="at" unicode="@" horiz-adv-x="781" 
d="M467 680q135 0 215 -74q38 -36 60.5 -87.5t22.5 -105.5q0 -66 -30 -124t-83 -94q-35 -23 -77 -37t-80 -14q-45 0 -66 24q-5 6 -7 11t-6 22q-3 9 -9 9q-7 0 -19 -12q-51 -50 -102 -50q-45 0 -72 30.5t-27 81.5q0 48 17.5 94.5t46.5 83t66 58.5t75 22q17 0 31 -4.5
t34 -17.5q14 -7 18 -7q3 0 15 5q29 14 44.5 19t32.5 5q34 0 34 -29q0 -8 -2 -20t-5 -25q-17 -63 -26 -109t-9 -64t17 -18q11 0 25 8t28 22q25 24 39 60.5t14 74.5q0 87 -59.5 137t-161.5 50q-74 0 -137.5 -25t-112.5 -74q-25 -25 -45.5 -56t-35 -65t-22.5 -70t-8 -70
q0 -88 57 -136t162 -48q103 0 190 42q23 11 38 11q14 0 23 -8t9 -20q0 -19 -21.5 -37t-57 -31.5t-81 -22t-94.5 -8.5q-147 0 -228 68t-81 191q0 43 9.5 86t27.5 84.5t44 78.5t59 68q124 117 311 117zM433 434q-6 1 -17 -9.5t-22 -24.5q-17 -24 -29 -57t-12 -57q0 -23 13 -23
q10 0 23.5 16.5t25.5 40.5t20.5 50t8.5 45q0 17 -11 19z" />
    <glyph glyph-name="A" unicode="A" horiz-adv-x="840" 
d="M750 140q13 -29 22.5 -37.5t26.5 -10.5q35 -5 35 -35q0 -35 -43 -51t-140 -16q-159 0 -191 19q-27 15 -27 40q0 15 7.5 22.5t28.5 15.5q23 9 23 26q0 33 -40 39q-9 1 -22.5 2t-30 2t-34 1.5t-33.5 0.5q-38 0 -53.5 -1.5t-23.5 -6.5t-14 -17.5t-6 -24.5q0 -11 4.5 -14
t27.5 -10q14 -5 22 -14.5t8 -21.5q0 -58 -140 -58q-35 0 -67 3t-49 8q-16 5 -25 17t-9 28q0 15 7.5 23.5t27.5 15.5q15 5 25.5 11t20.5 18.5t21 33t27 55.5l69 151q20 44 32.5 74t19.5 52.5t10 40.5t3 38q0 21 1 35t4 24t7.5 17t12.5 15q17 16 39.5 25t46.5 9
q36 0 70.5 -20.5t60.5 -57.5q29 -42 64.5 -107.5t80.5 -160.5zM413 276q27 0 27 12q0 5 -5.5 18.5t-13.5 27.5q-14 25 -23.5 41t-16 25t-12 12t-11.5 3q-8 0 -14.5 -7.5t-13.5 -25.5q-2 -4 -14 -34q-13 -31 -17 -42.5t-4 -17.5q0 -7 4.5 -9.5t17.5 -2.5h96z" />
    <glyph glyph-name="B" unicode="B" horiz-adv-x="713" 
d="M121 669q21 -2 46.5 -2.5t48.5 -0.5h20t21 0.5t36 1t65 2.5q16 1 33 1h28q65 0 105 -10.5t69 -35.5q23 -20 35.5 -48t12.5 -60q0 -35 -14 -66t-38 -51q-11 -9 -14.5 -13.5t-3.5 -11.5q0 -8 4.5 -12t16.5 -9q19 -8 38 -22t34 -32q18 -21 26 -44.5t8 -55.5q0 -48 -26 -93.5
t-71 -73.5q-60 -38 -155 -38q-12 0 -37 1t-85 3l-46 1q-57 0 -102 -0.5t-64 -2.5q-12 -1 -23 -1.5t-17 -0.5q-29 0 -47 14.5t-18 36.5q0 7 1 12t5 9.5t11.5 10.5t19.5 14q7 5 11.5 11.5t8 19t6 34t5.5 55.5q2 23 4 54.5t3.5 66.5t2 71.5t0.5 69.5q0 28 -1.5 46.5t-6 29.5
t-13 18t-22.5 13q-32 13 -32 40q0 22 19.5 35.5t49.5 13.5zM312 430q0 -24 6 -33.5t22 -9.5q70 0 70 92q0 46 -17.5 71t-49.5 25q-18 0 -24.5 -9.5t-6.5 -34.5v-101zM312 203q0 -32 2 -52.5t7 -32.5t14.5 -16.5t23.5 -4.5q74 0 74 87q0 53 -21 80.5t-62 27.5q-22 0 -30 -9.5
t-8 -33.5v-46z" />
    <glyph glyph-name="C" unicode="C" horiz-adv-x="708" 
d="M386 680q71 0 138 -31q11 -5 17.5 -8t11 -4.5t7.5 -2t7 -0.5q7 0 10.5 0.5t18.5 4.5q8 2 14 2q18 0 34 -13.5t29 -36.5t20.5 -53t7.5 -62q0 -45 -24.5 -73t-65.5 -28q-24 0 -40 11t-31 38q-10 19 -18 32.5t-15.5 23t-15 16.5t-17.5 14q-23 16 -48 24.5t-51 8.5
q-50 0 -79.5 -36t-29.5 -98q0 -58 22.5 -112.5t60.5 -89.5q23 -21 55.5 -32.5t69.5 -11.5q40 0 78 13t60 34q12 11 17.5 14.5t13.5 3.5q17 0 29 -16t12 -38q0 -15 -4.5 -31.5t-12.5 -33t-18.5 -30.5t-22.5 -24q-4 -3 -6.5 -5t-6.5 -3.5t-11 -3t-19 -3.5q-7 -1 -11 -2t-9 -3
t-11.5 -5t-17.5 -8q-73 -35 -151 -35q-59 0 -120 20t-108 55q-31 24 -56.5 54.5t-43.5 66t-27.5 73.5t-9.5 76q0 70 29.5 133.5t80 111t117.5 75.5t141 28z" />
    <glyph glyph-name="D" unicode="D" horiz-adv-x="792" 
d="M183 0q-14 0 -33.5 -0.5t-35.5 -2.5q-11 -1 -20 -1.5t-13 -0.5q-33 0 -53.5 15t-20.5 40q0 17 9 26.5t30 15.5q10 2 16 5.5t10 10t6.5 16.5t4.5 26q2 19 3.5 57t3 86.5t2.5 103t1 107.5q0 21 -1.5 33.5t-5 21t-10.5 13t-19 9.5q-34 12 -34 43q0 24 23 37.5t65 13.5h14.5
t17.5 -1q21 -1 35 -1h25h38.5t35.5 0.5t38 1.5t46 2q11 1 22 1h25q84 0 142.5 -15.5t103.5 -49.5q119 -92 119 -277q0 -77 -24.5 -139.5t-69.5 -107.5t-108 -69.5t-139 -24.5l-214 5h-35zM321 152q0 -31 13 -44t44 -13q143 0 143 217q0 58 -8.5 105.5t-24.5 79.5
q-37 73 -124 73q-23 0 -33 -9t-10 -31v-378z" />
    <glyph glyph-name="E" unicode="E" horiz-adv-x="681" 
d="M360 667q39 0 65.5 0.5t46.5 2.5t35.5 5t32.5 8q9 3 16 3q15 0 29 -11.5t24.5 -30t17 -43t6.5 -50.5q0 -32 -13.5 -50.5t-37.5 -18.5q-16 0 -24.5 7t-24.5 30q-11 16 -23.5 26.5t-30.5 17t-43 9t-60 2.5q-30 0 -46.5 -4t-24.5 -13q-4 -4 -6.5 -10t-3.5 -17.5t-1.5 -31.5
t-0.5 -52q0 -21 1 -32.5t7 -17.5t18 -7t34 -1t31 8t12 31q2 15 3.5 24.5t3.5 15.5t5 10t8 8q10 9 24 9q19 0 35 -19q10 -14 17 -50.5t7 -75.5q0 -35 -6.5 -69t-17.5 -57q-13 -27 -40 -27q-17 0 -23 8.5t-10 35.5q-7 55 -64 55q-22 0 -30 -14t-8 -51q0 -18 1 -37t3 -35.5
t4.5 -28.5t5.5 -16q5 -8 28 -12t61 -4q36 0 62.5 4.5t46.5 14.5t34 26.5t26 40.5q14 29 25 38.5t29 9.5q20 0 33.5 -18t13.5 -44q0 -15 -4 -34t-11.5 -39.5t-17 -40.5t-20.5 -37t-18.5 -22.5t-18.5 -5.5q-4 0 -11 0.5t-15 2.5q-18 3 -41 5t-43 2h-414q-52 0 -52 42
q0 14 5.5 20.5t27.5 16.5q14 6 21 15.5t12 27.5q16 71 16 198q0 91 -6.5 153t-17.5 85q-5 10 -10.5 14t-24.5 9q-28 9 -28 37q0 31 28 42q8 4 26 5.5t53 1.5h251z" />
    <glyph glyph-name="F" unicode="F" horiz-adv-x="667" 
d="M315 212q1 -37 3.5 -60t9 -35.5t18.5 -18t31 -6.5q13 -2 21.5 -13.5t8.5 -26.5q0 -36 -44 -47q-30 -7 -77 -11t-101 -4q-52 0 -85.5 3t-53.5 9q-17 5 -28 19t-11 31q0 22 15 35q3 2 6.5 3.5t21.5 9.5q28 11 32 49q5 28 7 101t2 173q0 46 -1.5 75t-5 45.5t-11 24.5
t-19.5 13q-25 11 -32.5 19t-7.5 24q0 21 21 35.5t52 14.5q19 0 57 -3q12 -1 37 -2.5t53.5 -2.5t55.5 -1.5t44 -0.5q52 0 89 0.5t64.5 1.5t48 3t38.5 5l12 1q13 0 26.5 -13t24.5 -33t18 -45.5t7 -49.5q0 -30 -14 -48t-37 -18q-9 0 -14 1t-12 6t-17 16t-28 32q-11 12 -24.5 20
t-33 13.5t-46.5 7.5t-64 2q-18 0 -26.5 -2.5t-13.5 -10.5q-3 -5 -6.5 -18t-6 -30t-4 -36t-1.5 -36q0 -20 11 -26.5t43 -6.5q23 0 33 7.5t15 26.5q11 53 45 53q29 0 44.5 -37t15.5 -106q0 -76 -18 -117t-52 -41q-28 0 -32 39q-2 25 -6 35t-14 19q-17 15 -45 15
q-23 0 -31 -7.5t-8 -29.5v-45z" />
    <glyph glyph-name="G" unicode="G" horiz-adv-x="785" 
d="M390 681q61 0 120 -18q17 -5 23 -6.5t12 -1.5q7 0 12.5 1.5t28.5 9.5q9 3 21 3q16 0 32.5 -13t30 -33.5t21.5 -46.5t8 -52q0 -42 -21 -68t-56 -26q-29 0 -56 21q-3 2 -5.5 4t-6.5 6.5t-10.5 12.5t-17.5 22q-54 66 -124 66q-63 0 -100.5 -46.5t-37.5 -125.5q0 -54 14 -102
t37.5 -84t55.5 -57t68 -21q26 0 42 17t16 43q0 23 -13 34q-5 4 -10 4.5t-29 0.5q-21 0 -34.5 13.5t-13.5 34.5q0 32 36 49q24 12 65.5 19t88.5 7q80 0 139 -17q53 -16 53 -60q0 -18 -12 -30.5t-32 -15.5q-17 -2 -22 -7t-11 -26q-28 -96 -109.5 -150.5t-198.5 -54.5
q-80 0 -149 27t-119.5 74t-79 112t-28.5 140q0 63 25.5 124t71.5 108q109 109 275 109z" />
    <glyph glyph-name="H" unicode="H" horiz-adv-x="782" 
d="M84 349q-2 53 -2.5 87t0.5 45q0 23 -1.5 36.5t-6.5 22t-14.5 14.5t-25.5 13q-9 5 -15 13.5t-6 18.5q0 17 15 33t38 24q30 10 73 16t84 6q75 0 114 -16t39 -47q0 -17 -7.5 -27.5t-29.5 -24.5q-10 -6 -16 -13t-9 -18.5t-4 -29.5t-1 -47q0 -35 13 -42q3 -2 7.5 -3.5
t14.5 -2.5t26.5 -1h43.5q25 0 40 1t22.5 4t10 9.5t2.5 17.5q0 32 -1.5 54t-4.5 36t-8.5 22t-14.5 13q-22 12 -29 20.5t-7 22.5q0 20 15 36.5t40 22.5q22 5 58.5 8.5t69.5 3.5q91 0 133 -16t42 -51q0 -30 -30 -44q-19 -9 -24.5 -17t-9.5 -30q-1 -6 -2.5 -37t-2.5 -71.5
t-2 -83t-1 -70.5q0 -18 0.5 -38t1.5 -38t2.5 -31.5t2.5 -18.5q2 -7 3.5 -11t5 -8t11 -8.5t20.5 -11.5q18 -11 18 -31q0 -38 -44 -54.5t-143 -16.5q-86 0 -126 15.5t-40 49.5q0 28 28 44q12 7 16 11t8 14q6 19 10 50t4 65q0 17 -1.5 27t-7.5 15t-17.5 6.5t-30.5 1.5
q-37 0 -69.5 -3t-42.5 -7q-8 -4 -11 -23t-3 -61q0 -22 4.5 -43.5t11.5 -32.5q5 -6 8 -9t18 -11q9 -5 15 -16t6 -23q0 -34 -47.5 -52t-135.5 -18q-86 0 -132 17.5t-46 49.5q0 16 8 24.5t34 22.5q14 8 19.5 18t8.5 36q1 11 2.5 29.5t2.5 39.5t1.5 42.5t0.5 38.5v41z" />
    <glyph glyph-name="I" unicode="I" horiz-adv-x="394" 
d="M216 677q24 0 53.5 -2.5t51.5 -7.5q66 -12 66 -56q0 -14 -6.5 -21.5t-33.5 -20.5q-11 -6 -18.5 -17t-11.5 -32.5t-5.5 -57.5t-1.5 -91q0 -92 2.5 -150t7.5 -81q3 -14 10 -22t25 -16q17 -8 24.5 -18t7.5 -26q0 -15 -9 -26t-30 -19q-26 -11 -72 -17t-106 -6q-160 0 -160 60
q0 13 6.5 22t24.5 20q14 8 20 17t9 23q2 12 3.5 36t3 55.5t2 69t0.5 75.5q0 54 -1.5 88t-6.5 55t-13.5 33t-23.5 21q-20 13 -27 22t-7 23q0 31 53 46q36 10 79 15.5t84 5.5z" />
    <glyph glyph-name="J" unicode="J" horiz-adv-x="641" 
d="M436 677q23 0 55.5 -2.5t55.5 -7.5q48 -8 67.5 -21.5t19.5 -37.5q0 -15 -7.5 -23.5t-31.5 -21.5q-20 -10 -27 -23t-9 -39q-1 -12 -3 -104q-2 -95 -3 -165q-4 -131 -81 -188q-36 -27 -86 -42t-104 -15t-108 14t-95 39q-33 21 -52.5 56t-19.5 74q0 49 30.5 81t77.5 32
q23 0 43 -7.5t34.5 -20t23 -30t8.5 -36.5q0 -8 -1 -13.5t-5 -21.5q-1 -3 -1 -11q0 -15 11.5 -25t29.5 -10q33 0 53 29t20 77q0 45 -0.5 92.5t-2 88.5t-3 71t-2.5 41q-6 31 -22 43l-4 2t-5 2t-8.5 2.5t-15.5 3.5q-11 3 -19.5 14t-8.5 25q0 20 14 35t40 23q29 9 68 14.5
t74 5.5z" />
    <glyph glyph-name="K" unicode="K" horiz-adv-x="824" 
d="M523 483q-29 -28 -29 -50q0 -12 7 -24.5t24 -32.5l183 -212q12 -14 19.5 -22.5t13.5 -13.5t12.5 -8.5t15.5 -7.5q27 -11 38 -24.5t11 -35.5q0 -25 -19.5 -38.5t-54.5 -13.5h-185q-9 0 -16 1.5t-14 7t-15 15t-20 25.5q-7 9 -19.5 24.5t-27 33t-29 34t-25.5 28.5
q-27 29 -38.5 38.5t-20.5 9.5q-13 0 -20.5 -14t-7.5 -39q0 -26 6.5 -41.5t20.5 -24.5q19 -12 26.5 -23t7.5 -25q0 -32 -43 -46t-144 -14q-48 0 -81 3t-53.5 9.5t-29 17.5t-8.5 28q0 25 29 44q14 9 19 19.5t10 35.5q5 29 7.5 69.5t2.5 100.5q0 42 -0.5 70.5t-1.5 50.5
t-3 38.5t-5 34.5q-5 23 -11.5 33.5t-23.5 20.5q-27 16 -27 43q0 24 17 37.5t55 21.5q21 5 57 7.5t68 2.5q78 0 112.5 -14.5t34.5 -48.5q0 -15 -5 -23t-27 -26q-8 -6 -14.5 -32t-6.5 -51q0 -41 19 -41q5 0 10 2t11.5 8t16.5 17.5t25 31.5q23 29 30 40t7 22q0 5 -1.5 10
t-7.5 17q-7 13 -7 22q0 18 9.5 30.5t30 20.5t53.5 11.5t80 3.5q87 0 121.5 -14t34.5 -48q0 -16 -9 -29t-23 -18q-4 -1 -7 -1.5t-7.5 -1t-12 -0.5h-21.5q-13 0 -22 -1.5t-16.5 -4.5t-15.5 -9t-18 -16z" />
    <glyph glyph-name="L" unicode="L" horiz-adv-x="627" 
d="M318 229q0 -39 3 -63.5t12 -38t24.5 -18t41.5 -4.5q56 0 88 24t45 77q8 32 33 32q26 0 42.5 -23t16.5 -61q0 -29 -12 -63t-33 -66q-14 -22 -25 -30t-26 -8q-5 0 -10 0.5t-12 1.5t-18 3t-29 5q-14 3 -40 3h-341q-21 0 -30 1.5t-17 6.5q-9 5 -14.5 14t-5.5 19
q0 14 6.5 20.5t31.5 18.5q12 6 22 16.5t14 20.5q2 6 3 14t2 21.5t1 33v48.5q0 25 -1 54t-2 76q-1 39 -1.5 70.5t-0.5 51.5q-1 21 -2.5 34t-4.5 21t-9 12.5t-16 7.5q-33 11 -45 20.5t-12 25.5q0 33 51 51.5t144 18.5q37 0 65 -1t49 -4t36 -7.5t26 -10.5q26 -14 26 -38
q0 -17 -8 -25.5t-40 -21.5q-9 -4 -14.5 -10t-8.5 -18.5t-4 -33.5t-1 -54v-224z" />
    <glyph glyph-name="M" unicode="M" horiz-adv-x="868" 
d="M438 71q-14 -32 -24 -44t-21 -12q-10 0 -19 10q-3 3 -9.5 14.5t-15 27.5t-17 34t-14.5 32l-65 145q-12 30 -28 30q-6 0 -10 -5.5t-6.5 -20t-3 -41t-0.5 -68.5q0 -28 1 -44t5 -25.5t13 -15.5t25 -14q8 -4 12.5 -12.5t4.5 -16.5q0 -55 -141 -55q-118 0 -118 53q0 14 6 20
t31 18q8 4 13.5 8.5t8.5 12t5.5 19.5t4.5 30q2 19 4.5 54t4 75.5t2.5 81t1 70.5q0 42 -3 67t-9 41q-5 10 -10 14.5t-22 12.5q-34 16 -34 44q0 27 31 44q8 4 23.5 8t34.5 7t39.5 5t37.5 2q27 0 52 -2.5t36 -7.5q13 -5 20 -13.5t21 -34.5l101 -187q16 -30 23 -37t18 -7
q10 0 17 7.5t18 27.5l69 134q6 12 11 22.5t6 11.5q13 27 25.5 44t29.5 26.5t40.5 12.5t59.5 3q72 0 105.5 -15.5t33.5 -47.5q0 -14 -5 -22.5t-22 -20.5q-14 -10 -19.5 -20.5t-9.5 -29.5q-5 -35 -8 -74.5t-3 -89.5q0 -26 1 -56t2.5 -60t3.5 -57t5 -46q1 -11 3 -18t6 -13
t11 -11.5t20 -13.5q17 -12 17 -31q0 -33 -46 -49q-12 -4 -23 -6t-25.5 -3.5t-34 -2t-47.5 -0.5q-88 0 -127 13.5t-39 42.5q0 12 5.5 20t30.5 28q6 5 10.5 14.5t7 25.5t3.5 40t1 59q0 39 -4 51.5t-15 12.5q-7 0 -13 -4t-13 -14.5t-16 -29t-22 -47.5z" />
    <glyph glyph-name="N" unicode="N" horiz-adv-x="817" 
d="M525 431q19 -17 30.5 -24t19.5 -7q12 0 18.5 14t6.5 38q0 32 -1.5 52.5t-6 33.5t-11.5 20.5t-19 13.5q-20 10 -27.5 20t-7.5 27q0 41 56 53q14 3 32.5 4t50.5 1q39 0 61.5 -2t38.5 -7q45 -14 45 -52q0 -32 -37 -47q-14 -7 -19.5 -11.5t-9.5 -14.5q-14 -39 -14 -122v-160
v-82.5v-45.5t-0.5 -24.5t-1.5 -19.5q-5 -51 -18 -75t-38 -24q-8 0 -13.5 1t-12.5 5t-15.5 11t-20.5 18l-290 260q-30 27 -50 27q-29 0 -29 -83q0 -34 1.5 -56t6 -36.5t11.5 -22.5t19 -14q18 -9 25 -18.5t7 -23.5q0 -33 -37 -50.5t-109 -17.5q-66 0 -102 17.5t-36 49.5
q0 16 6.5 24.5t31.5 22.5q24 14 28 48q1 13 2.5 33.5t3 45.5t2 51.5t0.5 51.5q0 27 -1 54.5t-3 52t-5 44.5t-6 32q-5 21 -13 31.5t-28 19.5q-22 11 -30.5 21t-8.5 25q0 17 13 31t36 21q20 6 48.5 8.5t78.5 2.5q19 0 33 -1t24.5 -5t20 -10.5t21.5 -16.5z" />
    <glyph glyph-name="O" unicode="O" horiz-adv-x="769" 
d="M389 681q62 0 117.5 -18.5t101.5 -53.5q32 -24 58 -57t45 -70t29 -77.5t10 -79.5q0 -71 -29 -132.5t-79.5 -107t-118.5 -72t-146 -26.5q-77 0 -142.5 26.5t-113.5 73t-75.5 110t-27.5 137.5q0 75 27.5 139t77 110t117.5 72t149 26zM342 541q-18 0 -33 -8t-26 -21.5
t-17.5 -32t-6.5 -40.5q0 -28 6 -61t16.5 -67t25 -67t31.5 -61q15 -24 37.5 -38.5t45.5 -14.5q37 0 59.5 28t22.5 73q0 30 -5 62.5t-14 65t-21.5 63t-27.5 54.5q-19 29 -44.5 47t-48.5 18z" />
    <glyph glyph-name="P" unicode="P" horiz-adv-x="667" 
d="M88 487q0 25 -1.5 40t-6 23.5t-13 13t-23.5 9.5q-44 12 -44 43q0 23 18.5 34.5t53.5 11.5l58 -2h70.5t46.5 1t44.5 3t62.5 6q28 3 52 3q56 0 102.5 -15.5t79.5 -43.5t51 -67t18 -87q0 -47 -18.5 -87t-51.5 -68.5t-79 -44.5t-101 -16q-20 0 -63 3q-15 2 -19 2h-6
q-8 0 -10 -3t-4 -16l3 -80q1 -25 8.5 -35.5t31.5 -23.5q31 -17 31 -37q0 -31 -46.5 -47.5t-132.5 -16.5q-88 0 -134.5 16t-46.5 45q0 15 8 23.5t36 22.5q10 5 16 15.5t7 24.5q1 5 1 15.5t1 24.5v53v257zM308 383q0 -11 1 -15t5 -7q5 -3 16.5 -5.5t21.5 -2.5q40 0 63 28
t23 77q0 51 -25.5 81t-68.5 30q-36 0 -36 -20v-166z" />
    <glyph glyph-name="Q" unicode="Q" horiz-adv-x="769" 
d="M127 51q4 0 7.5 3t3.5 7t-4.5 10.5t-15.5 20.5q-53 61 -76.5 119.5t-23.5 127.5q0 74 28.5 138t82.5 109q52 44 121.5 69.5t136.5 25.5q27 0 56 -5t57.5 -13.5t54.5 -21t47 -27.5q32 -23 59 -55.5t46.5 -71t30 -80.5t10.5 -84q0 -54 -16.5 -104t-46 -91.5t-71 -72
t-91.5 -45.5q-12 -5 -12 -10q0 -9 12 -17t31.5 -14t45 -9.5t53.5 -3.5q11 0 18.5 0.5t14.5 2t14.5 4t17.5 7.5q6 3 11 3q8 0 16 -12t8 -25q0 -21 -19 -41.5t-49.5 -36.5t-70 -26t-79.5 -10q-32 0 -64 5.5t-72 18.5t-92 35.5t-123 55.5q-25 12 -56 20t-52 8h-7.5t-8.5 -1
q-4 -1 -9 -1q-10 0 -16 8t-6 20q0 26 22.5 44.5t53.5 16.5zM340 539q-38 0 -60 -26t-22 -72q0 -53 17.5 -117.5t46.5 -121.5q41 -76 100 -76q38 0 63.5 26.5t25.5 68.5q0 27 -5 59.5t-14.5 65.5t-22 64.5t-27.5 57.5q-19 33 -46 52t-56 19z" />
    <glyph glyph-name="R" unicode="R" horiz-adv-x="769" 
d="M333 281q-19 0 -24 -11t-5 -50q0 -25 2.5 -55.5t5.5 -44.5q2 -10 7 -15t19 -13q29 -17 29 -43q0 -32 -41 -45.5t-138 -13.5q-180 0 -180 68q0 12 5.5 19t24.5 20q15 10 23.5 22t12 45.5t4.5 99t1 182.5q0 34 -1.5 56t-5.5 36t-11 22t-18 14q-21 11 -28.5 19.5t-7.5 22.5
q0 17 14 30.5t39 20.5q23 5 58 5h9t11.5 -0.5t21 -1.5t38.5 -3q8 -1 17.5 -1h21.5q40 0 117 6l38 2t27 1q53 0 96.5 -12.5t74 -35.5t47 -55.5t16.5 -72.5q0 -45 -21.5 -82t-58.5 -56q-10 -5 -13 -8.5t-3 -10.5q0 -8 5 -12.5t19 -9.5q27 -11 45.5 -25.5t31.5 -34.5t20.5 -47
t11.5 -64q3 -17 5.5 -27t8 -16t14 -10t23.5 -8q9 -2 15.5 -12t6.5 -21q0 -35 -41 -54.5t-113 -19.5q-96 0 -136 51q-9 11 -16.5 24.5t-15 32t-14.5 44.5t-16 62q-11 47 -29 66.5t-49 19.5zM299 416v-4q0 -18 5 -24t21 -6q43 0 62.5 22.5t19.5 70.5q0 95 -67 95
q-19 0 -26.5 -8.5t-9.5 -31.5z" />
    <glyph glyph-name="S" unicode="S" horiz-adv-x="630" 
d="M303 681q15 0 28.5 -1t28 -4t32.5 -8t43 -12q9 -3 16 -3q4 0 7.5 1t21.5 8q7 3 17 3q16 0 34.5 -15t34 -37.5t26 -49t10.5 -49.5q0 -27 -16.5 -46t-39.5 -19q-10 0 -16.5 1.5t-15 6.5t-20.5 16t-33 31q-31 29 -58.5 42t-56.5 13q-27 0 -43.5 -13t-16.5 -35t18 -37.5
t57 -26.5q48 -14 76.5 -23.5t47.5 -17.5t33 -17t31 -23q65 -53 65 -141q0 -53 -22.5 -97t-63.5 -75.5t-98.5 -48.5t-127.5 -17q-31 0 -65.5 4t-66.5 11t-58.5 16t-41.5 19q-12 7 -23 25.5t-19.5 42.5t-13.5 50.5t-5 51.5q0 24 10.5 38t29.5 14t36 -19q4 -4 6.5 -7t7 -9.5
t12.5 -18.5l22 -33q18 -28 57.5 -46t81.5 -18q36 0 58.5 13.5t22.5 34.5q0 20 -17.5 33.5t-57.5 26.5q-35 11 -60.5 20.5t-45.5 19.5t-36 21.5t-32 25.5q-38 33 -57.5 73t-19.5 82q0 46 21.5 86.5t59 71t88 48t107.5 17.5z" />
    <glyph glyph-name="T" unicode="T" horiz-adv-x="711" 
d="M489 667q20 0 35.5 2t40.5 9q7 2 14 3t12 1q19 0 39.5 -16.5t37 -42.5t27 -58t10.5 -63q0 -35 -19.5 -55.5t-53.5 -20.5q-26 0 -45 14.5t-37 47.5q-17 30 -26 39.5t-22 9.5q-18 0 -26 -15t-8 -50v-273q0 -42 9 -61t33 -30q26 -11 35.5 -21.5t9.5 -28.5q0 -68 -194 -68
q-118 0 -173 18t-55 56q0 10 7 21q3 4 5 6t6.5 4t12 4.5t21.5 6.5q9 3 15.5 7.5t10.5 13.5t6.5 23t4.5 35q2 18 4 51t3.5 71t2.5 75.5t1 64.5q0 51 -6.5 70.5t-22.5 19.5q-19 0 -37 -27q-32 -48 -54.5 -66.5t-48.5 -18.5t-43 20t-17 51q0 30 11.5 62.5t29.5 59t40 44
t42 17.5q9 0 23 -3q43 -9 82 -9h257z" />
    <glyph glyph-name="U" unicode="U" horiz-adv-x="808" 
d="M729 303q0 -52 -3.5 -89t-13 -64.5t-25.5 -48.5t-40 -41q-44 -35 -108 -54t-139 -19q-77 0 -141 19t-110 56q-23 18 -38.5 38.5t-25 46.5t-13.5 60.5t-4 79.5v19.5t0.5 30.5t1 35t0.5 32l1 76q0 20 -1 33.5t-4.5 23t-10 16t-16.5 12.5q-32 21 -32 48q0 31 41 48
q17 7 59 11.5t87 4.5q35 0 72 -3.5t61 -8.5q24 -6 38 -19.5t14 -33.5t-15 -33q-3 -2 -7 -4t-23 -11q-16 -9 -21 -25.5t-5 -58.5v-38.5t-1 -30.5l-3 -116q-2 -76 37 -120t109 -44q39 0 70.5 14t48.5 40q13 19 18 42t5 64v108q-1 60 -2 93t-5 50t-11.5 23t-20.5 12
q-25 12 -34 21.5t-9 23.5q0 29 35.5 42t111.5 13q75 0 109 -13t34 -42q0 -14 -6 -21t-31 -21q-27 -16 -31 -38q-1 -5 -1.5 -15.5t-0.5 -23.5l-1 -80v-120z" />
    <glyph glyph-name="V" unicode="V" horiz-adv-x="824" 
d="M475 61q-21 -42 -39 -57.5t-47 -15.5q-32 0 -50 14t-35 52l-199 441q-10 19 -17.5 31.5t-15 20t-16 11t-20.5 5.5q-29 5 -29 36q0 38 51.5 58t147.5 20q100 0 146.5 -15t46.5 -47q0 -11 -5.5 -19t-20.5 -19q-20 -13 -20 -25q0 -8 10 -31l60 -137q8 -17 14.5 -24t16.5 -7
q15 0 28 16.5t34 63.5q19 42 30 65.5t15.5 35t5.5 15.5t1 8q0 9 -5 15t-18 13q-14 7 -20 15t-6 19q0 58 156 58q78 0 110 -12.5t32 -42.5q0 -17 -11 -28t-31 -13q-15 -2 -25 -4t-17.5 -8.5t-15 -19t-18.5 -33.5z" />
    <glyph glyph-name="W" unicode="W" horiz-adv-x="1060" 
d="M446 528q-8 18 -14 25.5t-18 13.5q-19 11 -27 21.5t-8 26.5q0 30 48 46t140 16q44 0 81.5 -4t60.5 -11q16 -5 26 -17t10 -26q0 -6 -1 -10t-4 -8.5t-9 -10.5t-16 -15q-12 -9 -12 -21q0 -8 5 -24t13 -33l28 -60q9 -20 15.5 -32t11.5 -19t9.5 -9t9.5 -2q11 0 19 12.5
t20 49.5l24 69q10 27 10 44q0 11 -4.5 16.5t-16.5 9.5q-41 13 -41 46q0 29 31.5 42t104.5 13q26 0 43 -2.5t31 -8.5q17 -6 27 -19t10 -28q0 -14 -6.5 -24t-26.5 -27q-6 -5 -10.5 -9.5t-9 -12t-9.5 -20.5t-14 -34l-85 -228q-21 -53 -36 -89.5t-24.5 -61t-16 -39t-11 -24
t-8 -15.5t-8.5 -14q-11 -18 -24 -25t-35 -7q-29 0 -47 13t-30 42l-97 230q-8 20 -11.5 24.5t-11.5 4.5q-5 0 -9 -2t-8.5 -10t-11 -23t-16.5 -41l-67 -165q-9 -23 -17 -37t-17.5 -22.5t-22 -11.5t-29.5 -3q-30 0 -48 14.5t-33 52.5l-180 459q-8 20 -10.5 26t-7.5 11
q-3 3 -13 8l-10 6q-25 13 -25 44q0 34 43 51t128 17q91 0 127.5 -13.5t36.5 -47.5q0 -5 -0.5 -8.5t-2 -7.5t-4.5 -9t-9 -14t-6 -23q0 -23 33 -102l20 -47q12 -28 16.5 -34.5t11.5 -6.5q20 0 40 55l20 55q2 8 2 9q0 4 -3 10z" />
    <glyph glyph-name="X" unicode="X" horiz-adv-x="808" 
d="M701 157q9 -11 15 -18t11.5 -11t11 -6.5t14.5 -5.5q27 -8 38 -19.5t11 -30.5q0 -17 -12 -32.5t-32 -23.5q-29 -11 -73 -15.5t-120 -4.5q-97 0 -138 13t-41 45q0 21 20 35q13 9 16 12.5t3 8.5q0 14 -13 36t-44 64q-8 9 -13 9q-4 0 -15.5 -13.5t-23.5 -30.5t-21.5 -34
t-9.5 -23q0 -5 3 -9t17 -15q19 -15 19 -37q0 -34 -38 -45q-23 -8 -55 -12t-64 -4q-33 0 -67.5 4t-52.5 9q-17 5 -28.5 19.5t-11.5 31.5q0 44 56 47q16 0 27.5 3t25 14t32 32t48.5 58l75 96q7 7 7 11q0 2 -1 4t-6 7l-125 160q-14 18 -22.5 28.5t-15 16.5t-13.5 9.5t-17 6.5
q-32 10 -43.5 21.5t-11.5 33.5q0 34 46 51q29 11 79.5 17.5t109.5 6.5q53 0 82.5 -3t48.5 -10q15 -5 24.5 -18.5t9.5 -29.5q0 -11 -5 -21t-13 -16q-11 -8 -13 -10.5t-2 -7.5q0 -6 5.5 -15.5t12.5 -19t14.5 -16.5t12.5 -7q4 0 12 7.5t16.5 17.5t14.5 20t6 15t-2.5 8t-18.5 15
q-15 12 -15 33q0 31 37.5 44.5t124.5 13.5q74 0 107 -14t33 -46q0 -25 -20 -38q-6 -4 -14 -5t-34 -3q-22 0 -46 -19t-64 -66l-58 -72q-2 -4 -4 -7t-2 -5t6 -11z" />
    <glyph glyph-name="Y" unicode="Y" horiz-adv-x="794" 
d="M220 677q54 0 92 -3t61.5 -10t34 -17.5t10.5 -26.5q0 -14 -11 -26q-12 -15 -14 -18.5t-2 -10.5q0 -17 28 -56q18 -25 34 -25q11 0 20.5 7.5t25.5 27.5q11 14 15 22t4 16q0 4 -0.5 7t-2 6t-5 8t-10.5 13q-5 5 -7.5 13.5t-2.5 16.5q0 29 36 42.5t116 13.5q28 0 48 -0.5
t33.5 -2t22.5 -4t15 -6.5q26 -16 26 -43q0 -20 -12.5 -30.5t-42.5 -15.5q-14 -3 -24.5 -7t-23.5 -14t-30.5 -28t-44.5 -47q-34 -36 -53.5 -60t-30 -45.5t-13.5 -44.5t-3 -57q0 -8 0.5 -23t1 -31t1.5 -30.5t1 -20.5q3 -30 10 -42t28 -22q20 -10 28 -21t8 -26q0 -66 -196 -66
q-54 0 -103.5 6.5t-75.5 17.5q-34 13 -34 43q0 31 37 44q16 6 23 11.5t12 13.5q15 34 15 159q0 20 -1.5 34t-6 27t-13 26t-21.5 30q-28 36 -56 68.5t-58 61.5q-14 14 -24 21.5t-24 12.5q-18 6 -28.5 11t-16 10t-7.5 12t-2 17q0 32 50 46.5t163 14.5z" />
    <glyph glyph-name="Z" unicode="Z" horiz-adv-x="683" 
d="M397 217q-22 -38 -29.5 -53.5t-7.5 -22.5q0 -22 66 -22q26 0 52.5 5.5t39.5 13.5q12 8 24 25t25 46q11 21 19.5 28.5t24.5 7.5q69 0 69 -77q0 -78 -41 -136q-29 -41 -55 -41q-3 0 -8.5 0.5t-11.5 1.5q-20 4 -35 5.5t-32 1.5h-424h-21.5t-11.5 0.5t-6 1.5t-5 3
q-13 10 -13 31q0 9 2.5 15t12.5 23l251 427q11 19 11 27q0 13 -15 20t-41 7q-24 0 -40 -3t-29 -12.5t-24 -26.5t-24 -44q-20 -43 -47 -43q-13 0 -25 6.5t-21 17.5t-14.5 25t-5.5 30q0 22 9.5 51t23.5 55t29 44.5t27 18.5q4 0 13 -3q15 -5 44 -7.5t84 -2.5q43 0 301 15
q14 1 25.5 1.5t19.5 0.5q21 0 34 -12t13 -32q0 -8 -4 -17.5t-13 -26.5z" />
    <glyph glyph-name="bracketleft" unicode="[" horiz-adv-x="396" 
d="M222 144q0 -23 2 -36.5t8.5 -20.5t18.5 -9.5t32 -2.5q8 0 15.5 0.5t21.5 2.5l24 1q20 0 32.5 -9t12.5 -25q0 -13 -8.5 -25t-21.5 -17q-16 -6 -55.5 -9.5t-96.5 -3.5q-60 0 -91 3t-42 11q-35 23 -35 140v375q0 64 7.5 97t24.5 45q12 9 41 12.5t89 3.5q63 0 104.5 -3.5
t55.5 -11.5q26 -12 26 -38q0 -17 -13.5 -26t-37.5 -9q-3 0 -12 0.5t-20 1.5q-8 1 -15.5 1h-15.5q-18 0 -28 -2t-15 -10.5t-6.5 -24t-1.5 -42.5v-369z" />
    <glyph glyph-name="backslash" unicode="\" horiz-adv-x="408" 
d="M104 424q-8 18 -18 39.5t-23 46.5q-11 23 -22 44.5t-22 44.5q-6 11 -9 21.5t-3 18.5q0 17 21.5 27.5t58.5 10.5q23 0 33 -9t20 -36q8 -23 23 -57q9 -22 15 -36t8 -19l22 -57l96 -222l22 -48t24 -47q18 -36 28.5 -56t15.5 -31t6 -16.5t1 -11.5q0 -17 -22.5 -29t-54.5 -12
q-17 0 -27 6t-19 21l-4 8t-5 11.5t-8 19.5t-13 33q-5 11 -8 19.5t-7.5 19.5t-12 28.5t-20.5 47.5z" />
    <glyph glyph-name="bracketright" unicode="]" horiz-adv-x="396" 
d="M174 523q0 22 -2 36t-8.5 21t-18.5 9.5t-32 2.5q-8 0 -15.5 -0.5t-21.5 -2.5l-24 -1q-20 0 -32.5 9t-12.5 25q0 13 8.5 25t21.5 17q16 6 55.5 9.5t96.5 3.5q60 0 91 -3t42 -11q35 -23 35 -140v-375q0 -64 -7.5 -97t-24.5 -45q-12 -9 -41 -12.5t-89 -3.5q-63 0 -104.5 3.5
t-55.5 11.5q-26 12 -26 38q0 17 13.5 26t37.5 9q3 0 12 -0.5t20 -1.5q8 -1 15.5 -1h15.5q18 0 28 2t15 10.5t6.5 24t1.5 42.5v369z" />
    <glyph glyph-name="asciicircum" unicode="^" 
d="M0 327l130 345h241l130 -345h-189l-61 199l-62 -199h-189z" />
    <glyph glyph-name="underscore" unicode="_" 
d="M500 -42v-126h-500v126h500z" />
    <glyph glyph-name="grave" unicode="`" 
d="M192 698q35 0 57.5 -8t22.5 -21q0 -3 -0.5 -4.5t-4.5 -8.5q-3 -5 -3 -9q0 -6 4.5 -11t19.5 -16q4 -3 10.5 -7.5t15.5 -12.5q17 -13 17 -31q0 -36 -51 -36q-88 0 -162 57q-41 31 -42 55q0 11 8.5 20.5t24.5 17t37.5 11.5t45.5 4z" />
    <glyph glyph-name="a" unicode="a" horiz-adv-x="558" 
d="M494 238q0 -48 3.5 -72t13.5 -36q4 -5 7.5 -6.5t17.5 -3.5q15 -3 15 -20q0 -21 -12.5 -41t-33 -36t-46.5 -26t-52 -10q-50 0 -81 35q-10 13 -19 13q-6 0 -10.5 -2t-15.5 -10q-50 -36 -110 -36q-65 0 -104 27q-26 18 -41 47t-15 61q0 42 28 76.5t80 55.5q27 11 54.5 15
t69.5 5q29 0 36 5.5t7 25.5q0 51 -11 74.5t-35 23.5q-14 0 -25.5 -9t-28.5 -32q-23 -32 -44.5 -46.5t-46.5 -14.5q-24 0 -39 14t-15 37q0 25 22 49t57.5 43t81 30.5t93.5 11.5q42 0 78.5 -11t65.5 -32q16 -11 26.5 -23.5t17 -28.5t9.5 -36t3 -46zM262 204q-21 0 -37 -17.5
t-16 -41.5t11.5 -38.5t29.5 -14.5q39 0 39 66q0 26 -5.5 36t-21.5 10z" />
    <glyph glyph-name="b" unicode="b" horiz-adv-x="604" 
d="M251 446l-1 -10q0 -10 6 -10q3 0 5.5 1.5t14.5 11.5q27 22 60.5 34.5t65.5 12.5q40 0 74 -16t59 -44.5t39.5 -67t14.5 -83.5q0 -62 -22 -114.5t-60 -91t-90 -60.5t-113 -22q-50 0 -91 13t-90 44q-6 5 -12 5q-4 0 -7.5 -1t-22.5 -9q-13 -5 -30 -5q-30 0 -30 20q0 6 3 14
q6 21 8 33.5t3 29.5q1 9 1.5 33.5t1.5 51t1.5 49.5t0.5 30v135q0 25 -0.5 40t-3.5 23t-8 12t-14 8q-26 11 -35.5 21t-9.5 27q0 32 70 64q18 8 43 15.5t52 13.5t52.5 9.5t45.5 3.5q13 0 18 -6q2 -2 5 -10t2 -11v-2zM299 340q-11 0 -22 -5t-16 -13t-7 -20.5t-2 -35.5
q0 -62 3 -108.5t8 -57.5q12 -26 38 -26q35 0 54 30.5t19 87.5q0 67 -20.5 107.5t-54.5 40.5z" />
    <glyph glyph-name="c" unicode="c" horiz-adv-x="519" 
d="M296 486q45 0 84.5 -11.5t69 -31.5t46.5 -46.5t17 -57.5q0 -40 -27 -66.5t-68 -26.5t-61 29l-4 6t-4 7.5t-4.5 12.5t-6.5 21q-14 41 -51 41q-26 0 -44.5 -23.5t-18.5 -57.5q0 -29 10 -54.5t27.5 -44.5t41 -30t49.5 -11q12 0 22 1t19 3t19.5 6.5l24.5 10.5q5 4 15 4
q17 0 29.5 -16t12.5 -36q0 -22 -18 -46.5t-48 -42.5q-63 -39 -150 -39q-56 0 -103.5 19t-83 52t-55.5 78t-20 98q0 54 21 100t58.5 80t89 53t111.5 19z" />
    <glyph glyph-name="d" unicode="d" horiz-adv-x="646" 
d="M589 181q0 -19 0.5 -30t3 -18t6.5 -11.5t11 -9.5q17 -13 23.5 -22t6.5 -22q0 -21 -18.5 -35t-60.5 -25q-14 -3 -32.5 -6.5t-38 -6t-38 -4t-32.5 -1.5q-16 0 -20.5 4.5t-6.5 22.5q-2 25 -17 25q-5 0 -10 -2.5t-16 -12.5q-49 -40 -111 -40q-44 0 -84 20.5t-71 55
t-49.5 79.5t-18.5 94q0 50 19 95t51.5 79.5t74.5 55t89 20.5q26 0 53.5 -7t47.5 -18q10 -4 13 -4q7 0 11 11.5t4 29.5q0 19 -8 28.5t-31 16.5q-31 10 -31 34q0 20 16 32.5t54 23.5q27 7 53 13.5t49 11.5t40 7.5t26 2.5q42 0 42 -40v-447zM324 382q-33 0 -54 -42t-21 -110
q0 -59 19 -92t51 -33t46.5 36.5t14.5 118.5q0 64 -13.5 93t-42.5 29z" />
    <glyph glyph-name="e" unicode="e" horiz-adv-x="532" 
d="M240 219q-15 0 -15 -13q0 -16 9.5 -32t25 -28.5t34.5 -20t39 -7.5q24 0 52 8.5t47 22.5q11 8 16 10t11 2q13 0 25 -15.5t12 -32.5q0 -23 -19.5 -45.5t-51 -40.5t-71.5 -29t-81 -11q-55 0 -102 19t-81.5 52t-54 78t-19.5 98q0 52 21 98t57 80.5t84.5 54t104.5 19.5
q93 0 157 -52q35 -28 55.5 -67t20.5 -76q0 -32 -13 -52t-34 -20h-229zM302 310q31 0 31 28q0 26 -15.5 43t-39.5 17q-23 0 -40 -18.5t-17 -43.5q0 -14 7 -20t24 -6h50z" />
    <glyph glyph-name="f" unicode="f" horiz-adv-x="400" 
d="M366 395q30 0 28 -19v-1l-4 -58q-2 -18 -6.5 -23t-20.5 -5q-3 0 -6 0.5t-8 1.5t-8 1h-5q-22 0 -30 -15t-8 -54q0 -17 3.5 -42.5t8.5 -40.5q5 -14 12.5 -21.5t27.5 -12.5q44 -14 44 -48q0 -16 -12.5 -30.5t-32.5 -20.5q-26 -8 -70 -13t-97 -5q-173 0 -173 67q0 17 7.5 25
t31.5 19q27 11 31 43q2 11 3.5 25t3 28.5t2 27.5t0.5 22q0 23 -9 32.5t-30 9.5q-20 0 -26.5 0.5t-8.5 2.5q-2 1 -5 4t-3 5l1 4l4 62q2 16 6 19.5t22 3.5q19 2 19 18q0 5 -2 9.5t-11 21.5q-23 42 -23 82q0 70 57.5 111.5t155.5 41.5q41 0 75.5 -9t60 -25.5t40 -39t14.5 -48.5
q0 -32 -21 -54t-52 -22q-36 0 -67 25q-3 2 -5 4l-5.5 5.5t-9.5 10.5t-17 19q-12 13 -21.5 18t-20.5 5q-14 0 -23.5 -10t-9.5 -24q0 -20 17.5 -40t55.5 -43q23 -14 31 -22t13 -22q2 -4 5 -5t11 -1h60z" />
    <glyph glyph-name="g" unicode="g" horiz-adv-x="571" 
d="M535 513q12 0 21.5 -14.5t9.5 -32.5q0 -20 -12.5 -45t-29.5 -40q-7 -7 -9 -9.5t-2 -6.5v-2t1 -9q1 -6 1 -10.5v-9.5q0 -37 -18.5 -68.5t-52 -54t-79.5 -35.5t-100 -13h-18t-15 2q-7 1 -11.5 1h-8.5q-11 0 -18.5 -7.5t-7.5 -18.5q0 -16 17 -25.5t43 -9.5q11 0 27 1.5
t33 3.5q42 6 70.5 8.5t49.5 2.5q57 0 88 -19q26 -15 40.5 -41.5t14.5 -55.5q0 -37 -20.5 -73t-55.5 -61q-88 -64 -238 -64q-56 0 -101 9t-76.5 25.5t-49 40t-17.5 52.5q0 19 10 34.5t27 23.5q9 4 12 6.5t3 5.5q0 4 -2 7t-10 9q-19 16 -29.5 33.5t-10.5 34.5q0 23 18.5 47.5
t47.5 39.5q12 5 12 11q0 7 -15 21q-50 47 -50 109q0 32 18 62t50 51q36 23 82.5 37t90.5 14q12 0 22.5 -0.5t23 -2.5t30 -5t42.5 -7q13 -3 28 -3q29 0 53 9.5t53 32.5q12 9 18 9zM271 411q-25 0 -40 -18.5t-15 -48.5q0 -53 16 -84.5t43 -31.5q26 0 41 19.5t15 53.5
q0 51 -16 80.5t-44 29.5zM164 -33q-12 0 -12 -14q0 -29 31 -46.5t81 -17.5q48 0 75 12.5t27 35.5q0 12 -10.5 20.5t-25.5 8.5q-4 0 -9 -0.5t-13 -1.5q-12 -2 -28.5 -3t-32.5 -1q-19 0 -42 2t-34 4q-3 1 -7 1z" />
    <glyph glyph-name="h" unicode="h" horiz-adv-x="671" 
d="M281 438q-1 -17 5.5 -27t17.5 -10t23 16q48 69 126 69q36 0 69 -12.5t55 -34.5q20 -22 28 -50.5t10 -82.5l4 -176q1 -12 2.5 -20.5t5 -15t9.5 -12t15 -12.5q15 -12 15 -28q0 -52 -160 -52q-69 0 -105 12.5t-36 35.5q0 4 0.5 7t2 6.5t5.5 9t12 15.5q11 14 15.5 45.5
t4.5 88.5q0 72 -16.5 104t-53.5 32q-14 0 -25.5 -5.5t-18.5 -16.5q-6 -9 -8 -21t-2 -38v-94q3 -44 3 -48q0 -10 1 -16t3.5 -11.5t7.5 -11.5t13 -15q10 -10 10 -23q0 -28 -36.5 -42t-107.5 -14q-168 0 -168 57q0 13 5.5 20t26.5 22q9 7 15.5 24t10.5 48t5.5 78t1.5 115
q0 50 -1.5 86.5t-4.5 56.5q-2 16 -7 22.5t-20 14.5q-30 16 -30 38q0 34 62 56q25 8 51.5 15t52 12.5t47.5 8.5t38 3q29 0 27 -24z" />
    <glyph glyph-name="i" unicode="i" horiz-adv-x="347" 
d="M285 169q0 -34 6 -49.5t25 -28.5q15 -11 20 -19t5 -19q0 -63 -160 -63q-18 0 -37.5 1t-38.5 3t-35 4.5t-26 5.5q-17 5 -27.5 17t-10.5 28q0 6 1 11t4.5 9.5t10 10t17.5 13.5q16 11 22 36t6 76q0 15 -0.5 34.5t-1.5 37t-2.5 31t-2.5 16.5q-3 8 -8.5 13t-17.5 10
q-17 8 -23.5 17t-6.5 23q0 30 40 46q27 10 57.5 19t60 16t54.5 11t42 4q27 0 27 -31v-283zM188 667q42 0 67 -16t25 -43q0 -17 -10.5 -33t-27.5 -26q-28 -17 -66.5 -26t-78.5 -9q-38 0 -61 17t-23 46q0 32 39 55q12 7 29 13.5t35.5 11t37 7.5t34.5 3z" />
    <glyph glyph-name="j" unicode="j" horiz-adv-x="338" 
d="M295 12q0 -66 -10 -102t-35 -56q-26 -21 -66.5 -34t-82.5 -13q-48 0 -80 19t-32 47q0 12 9.5 21.5t21.5 9.5q2 0 9.5 -0.5t18.5 -1.5q9 0 16 8t7 19q0 3 -2 13t-2.5 17.5t-0.5 16.5v310q0 22 -7.5 34t-26.5 19q-28 11 -28 34q0 26 22.5 44.5t73.5 34.5q17 6 40 11.5
t46.5 10t44.5 7t33 2.5q17 0 24 -9t7 -30v-432zM192 667q42 0 67 -16t25 -43q0 -17 -10.5 -33t-27.5 -26q-28 -17 -66.5 -26t-78.5 -9q-38 0 -61 17t-23 46q0 32 39 55q12 7 29 13.5t35.5 11t37 7.5t34.5 3z" />
    <glyph glyph-name="k" unicode="k" horiz-adv-x="725" 
d="M285 490l-1 -68q0 -20 0.5 -36.5t1.5 -21.5q3 -20 20 -20q7 0 20 5.5t25.5 13.5t21.5 15.5t9 12.5q0 4 -1.5 6.5t-9.5 13.5q-8 10 -8 19q0 26 34 39.5t97 13.5q36 0 70 -5.5t46 -13.5q13 -8 19.5 -19t6.5 -23q0 -17 -10 -24t-39 -13q-11 -2 -34 -14t-43 -26
q-13 -10 -13 -16q0 -8 25.5 -45.5t67.5 -91.5q18 -23 30.5 -38t23 -24.5t20 -16.5t23.5 -14q35 -20 35 -44q0 -26 -22.5 -40.5t-61.5 -14.5h-158q-17 0 -26.5 5t-19.5 17l-81 104q-17 21 -26 33t-14 17t-7 6t-5 1q-5 0 -7 -9.5t-2 -34.5q0 -20 5 -30.5t22 -23.5
q6 -5 9.5 -13.5t3.5 -16.5q0 -17 -10.5 -31.5t-27.5 -19.5q-18 -7 -49 -10.5t-68 -3.5q-48 0 -81 2t-47 7q-17 5 -28.5 19.5t-11.5 31.5q0 18 21 32q18 11 22.5 16.5t7.5 18.5q2 11 4 33t3.5 51t2.5 62t1 65v107q0 27 -1 43.5t-4.5 26t-10.5 13t-18 5.5q-40 6 -40 34
q0 30 57 55q25 11 55 21t59 17.5t54 12t42 4.5q11 0 19.5 -6.5t6.5 -14.5l-1 -3z" />
    <glyph glyph-name="l" unicode="l" horiz-adv-x="347" 
d="M284 231q0 -51 0.5 -79t3 -41.5t8 -18.5t15.5 -9q18 -8 24 -14.5t6 -20.5q0 -25 -28 -41q-17 -10 -46.5 -13.5t-86.5 -3.5q-51 0 -80.5 3t-50.5 11q-17 7 -28.5 20.5t-11.5 27.5q0 12 6 18t27 15q9 4 15 16t9.5 37.5t5 67.5t1.5 105q0 60 -1.5 96t-5.5 57.5t-12.5 32
t-21.5 18.5q-20 12 -28 22.5t-8 25.5q0 24 22.5 42t73.5 33q17 5 40.5 10.5t47 9.5t44.5 6.5t33 2.5q39 0 39 -48q0 -7 -1.5 -26.5l-3.5 -45.5q-1 -8 -2 -31t-2 -48.5t-2 -48.5t-1 -31v-157z" />
    <glyph glyph-name="m" unicode="m" horiz-adv-x="958" 
d="M281 435q-1 -4 -1 -7.5v-5.5q0 -26 16 -26q5 0 10 4t16 17q26 31 66 48.5t82 17.5q80 0 114 -60q8 -14 11 -18t8 -4q6 0 15 9q73 73 155 73q68 0 106.5 -38t38.5 -105v-21.5t-1 -31.5q-1 -6 -1 -28.5v-49.5v-34t-1 -22v-15q0 -31 20 -54q12 -14 14.5 -19t2.5 -13
q0 -13 -8.5 -24.5t-22.5 -19.5q-15 -8 -48.5 -13t-67.5 -5q-19 0 -38.5 2t-36.5 5.5t-31 8.5t-21 10q-18 13 -18 31q0 8 3 14.5t18 27.5q8 11 11.5 42.5t3.5 91.5q0 36 -2 56t-7 35q-5 14 -17 22.5t-27 8.5t-27.5 -10t-16.5 -25q-2 -6 -2.5 -13t-1.5 -17.5t-1 -25.5v-38
q0 -82 8 -112q1 -3 2 -5.5t3 -6t6 -9.5t11 -16q5 -8 5 -19q0 -29 -39 -43.5t-114 -14.5q-41 0 -69.5 3t-45.5 9t-24.5 16t-7.5 25q0 6 0.5 9.5t3 7t7 8.5t13.5 13q11 11 14 20t5 33l3 114q0 90 -49 90q-29 0 -40 -28q-4 -11 -6.5 -46.5t-2.5 -73.5q0 -28 0.5 -45t2 -28
t4.5 -18.5t8 -16.5q7 -12 9.5 -19.5t2.5 -15.5q0 -25 -31 -39q-20 -8 -53 -13t-68 -5q-75 0 -110 12.5t-35 38.5q0 9 4.5 15.5t21.5 21.5q13 11 18 23t7 32q1 10 2 27.5t2 36t1.5 35.5t0.5 28q0 45 -5 63.5t-19 29.5q-16 11 -20 17t-4 16q0 33 52 52q56 20 107 32.5t77 12.5
q29 0 29 -37v-11z" />
    <glyph glyph-name="n" unicode="n" horiz-adv-x="660" 
d="M610 134q1 -11 2 -17.5t4.5 -13t10 -14t18.5 -19.5q8 -8 8 -22q0 -32 -39 -45t-138 -13q-67 0 -95.5 12t-28.5 40q0 5 0.5 8t2.5 6.5t6.5 8l13.5 13.5q7 8 10 19t5 35q1 8 2 20t1.5 25t1 25t0.5 20q0 31 -6.5 60.5t-14.5 40.5q-15 18 -42 18q-34 0 -47 -25
q-5 -11 -7.5 -27t-2.5 -45v-97q0 -15 0.5 -23.5t3 -16t8 -17t15.5 -24.5q6 -9 6 -20q0 -29 -40 -42.5t-125 -13.5q-70 0 -103 14t-33 43q0 11 4.5 17t20.5 17q6 5 10 9.5t6 12.5t3.5 21.5t2.5 36.5q2 28 3 57.5t1 59.5q0 17 -1 27t-4.5 17t-10.5 12.5t-19 13.5
q-21 12 -21 32q0 10 4 17.5t13.5 14.5t26.5 14.5t44 16.5q23 8 46.5 15.5t43.5 13t36 8.5t24 3q14 0 24 -11t10 -26v-4.5t-1 -7.5v-7q0 -23 20 -23q10 0 24 18q23 32 51.5 46.5t70.5 14.5q30 0 57.5 -8.5t47.5 -23.5q15 -12 25.5 -24.5t17.5 -29.5t10.5 -39t4.5 -52z" />
    <glyph glyph-name="o" unicode="o" horiz-adv-x="602" 
d="M320 486q56 0 104.5 -19t84 -52.5t56 -79t20.5 -97.5q0 -106 -97 -180q-92 -71 -213 -71q-58 0 -105.5 17t-81.5 48t-53 74t-19 95q0 57 23 105.5t63.5 84t96.5 55.5t121 20zM282 373q-22 0 -35 -16t-13 -42q0 -15 3 -35.5t8 -43.5t11.5 -46.5t14.5 -42.5q15 -40 49 -40
q44 0 44 55q0 20 -3 44.5t-8 48.5t-12 46t-15 38q-16 34 -44 34z" />
    <glyph glyph-name="p" unicode="p" horiz-adv-x="662" 
d="M255 484q15 0 24 -1t13.5 -4t6 -9t1.5 -17q0 -18 11 -18q4 0 8 2.5t25 16.5t53.5 23.5t58.5 9.5q40 0 74.5 -18.5t60 -50t40.5 -74.5t15 -92q0 -54 -18 -102.5t-49.5 -84.5t-73 -57t-87.5 -21q-41 0 -85 19q-8 4 -15 4q-6 0 -10 -8t-4 -21q0 -20 6 -33t20 -23
q12 -8 18.5 -13t10 -8.5t4 -8t0.5 -10.5q0 -29 -32.5 -45t-92.5 -16q-54 0 -99 10.5t-87 32.5q-40 21 -40 53q0 14 6 22t24 16q22 10 28 33q5 22 8 69.5t3 116.5q0 21 -0.5 43.5t-2 42t-3 33t-3.5 16.5q-2 5 -5.5 6t-23.5 5q-17 3 -26.5 14.5t-9.5 28.5q0 19 13.5 34
t44.5 29q60 26 108.5 40.5t81.5 14.5zM296 165v-15q0 -17 12.5 -26t35.5 -9q67 0 67 111q0 57 -18.5 88t-51.5 31q-36 0 -37 -46z" />
    <glyph glyph-name="q" unicode="q" horiz-adv-x="634" 
d="M302 486q16 0 27.5 -0.5t24.5 -2.5t30.5 -6t46.5 -10q15 -4 30 -4q11 0 21.5 2.5t30.5 9.5q17 6 27.5 8.5t21.5 2.5q43 0 43 -34q0 -9 -1 -20t-3 -24q-3 -22 -6 -59t-5 -80.5t-3.5 -89t-1.5 -84.5q0 -16 0.5 -37t1.5 -41t2 -36t2 -23q2 -18 6.5 -25.5t19.5 -18.5
q21 -17 21 -39q0 -62 -129 -62q-47 0 -86 6t-67 17.5t-44 27t-16 33.5q0 14 7 21t31 19q29 13 29 57q0 25 -13 25q-3 0 -5 -0.5t-5.5 -2l-10.5 -4.5t-19 -9q-14 -8 -36 -12t-43 -4q-47 0 -86.5 18.5t-68 52.5t-44.5 80t-16 102q0 55 20.5 100.5t58 77.5t90.5 50t117 18z
M317 379q-28 0 -45.5 -32t-17.5 -83q0 -34 5.5 -62t16 -48.5t24 -32t30.5 -11.5q11 0 20 6.5t13 17.5q5 15 7 34t2 63q0 33 -1 56t-3.5 38.5t-7 25t-11.5 15.5q-15 13 -32 13z" />
    <glyph glyph-name="r" unicode="r" horiz-adv-x="532" 
d="M244 483q13 0 20 -1t11 -6.5t6 -16.5t4 -30q3 -21 15 -21q11 0 19 14q39 61 102 61q22 0 41 -8.5t33 -23t22 -34t8 -42.5q0 -24 -9 -45.5t-25 -37t-36.5 -25t-44.5 -9.5q-25 0 -42 9t-44 36q-11 10 -19 10q-14 0 -18 -16.5t-4 -67.5q0 -84 8 -106q5 -10 10.5 -14t22.5 -9
q44 -13 44 -46q0 -34 -37 -49q-15 -7 -56.5 -11t-95.5 -4q-89 0 -130.5 15t-41.5 47q0 26 30 46q14 9 19 16.5t7 20.5q5 23 6.5 63.5t1.5 101.5q0 22 -5 31.5t-19 15.5q-35 13 -35 40q0 23 23.5 39.5t80.5 33.5q15 4 33.5 8.5t36 7.5t33 5t25.5 2z" />
    <glyph glyph-name="s" unicode="s" horiz-adv-x="454" 
d="M201 486q16 0 31 -2t49 -9q5 -1 10 -1.5t8 -0.5q6 0 11 1.5t22 8.5q5 2 10 3t9 1q13 0 28.5 -12.5t28.5 -31.5t21.5 -41.5t8.5 -41.5t-14 -32t-34 -13q-8 0 -15 1.5t-15 6.5t-18 14t-25 23q-31 30 -52 30q-14 0 -24 -10t-10 -24q0 -12 10.5 -22.5t35.5 -21.5
q88 -42 125.5 -81.5t37.5 -90.5q0 -32 -14.5 -60t-39 -48.5t-58.5 -32.5t-73 -12h-11t-14.5 1t-26.5 3t-48 6q-8 1 -13.5 1.5t-8.5 0.5h-6.5t-8.5 -2q-11 -2 -13.5 -2h-7.5q-14 0 -21 2.5t-15 9.5q-10 9 -20 24t-17.5 32.5t-12 35t-4.5 31.5q0 45 35 45q7 0 12 -1.5t12.5 -7
t18.5 -17t30 -31.5q20 -22 33.5 -30t28.5 -8q16 0 26 8.5t10 22.5q0 23 -37 40q-80 39 -114.5 80t-34.5 95q0 35 13 64.5t36 50.5t55 33t70 12z" />
    <glyph glyph-name="t" unicode="t" horiz-adv-x="470" 
d="M316 194q0 -29 14 -48t37 -19q12 0 21 3.5t29 14.5q10 4 15 4q11 0 21 -14t10 -31q0 -22 -17.5 -43t-45.5 -37.5t-64.5 -26.5t-73.5 -10q-39 0 -71 11.5t-54.5 32.5t-35 51t-12.5 66v225q0 11 -3 13.5t-14 2.5h-50q-14 0 -18 4.5t-4 21.5v22q0 14 11 22l225 141q5 4 20 4
h40q12 0 16 -5.5t4 -22.5v-66q0 -14 4.5 -18.5t19.5 -4.5h90q18 0 23.5 -6.5t5.5 -28.5v-29q0 -24 -6.5 -32.5t-25.5 -8.5h-88q-14 0 -18.5 -4.5t-4.5 -18.5v-165z" />
    <glyph glyph-name="u" unicode="u" horiz-adv-x="667" 
d="M278 194q0 -86 56 -86q14 0 28 8t19 20q7 14 9 36t2 69q0 40 -1.5 67t-3.5 42q-2 12 -7 18t-19 13q-28 16 -28 38q0 21 31 36q11 5 34 10t51.5 9t58 6.5t53.5 2.5q49 0 49 -52l-1 -22l-1 -58v-215q0 -9 6 -15.5t22 -14.5q24 -12 24 -34q0 -43 -104 -68q-28 -6 -60 -10
t-58 -4q-24 0 -32 5.5t-10 20.5q-3 31 -19 31q-3 0 -5 -0.5t-6 -2.5t-10.5 -6.5t-18.5 -13.5q-27 -19 -51.5 -26.5t-55.5 -7.5q-44 0 -78.5 14t-52.5 40q-17 24 -25 60t-8 93v40t1 28v23q0 42 -7.5 62t-28.5 31q-19 10 -24 16t-5 17q0 27 36 42q12 5 37 10t55 8.5t62 6
t58 2.5q28 0 28 -24v-265z" />
    <glyph glyph-name="v" unicode="v" horiz-adv-x="655" 
d="M417 87q-29 -57 -50 -79t-44 -22q-24 0 -37 16q-12 14 -28 36.5t-24 39.5l-139 263q-14 23 -24 32t-27 13q-37 11 -37 40t45.5 43t144.5 14q84 0 123.5 -11.5t39.5 -36.5q0 -19 -19 -35q-12 -11 -15.5 -16t-3.5 -13q0 -11 10.5 -33t24.5 -42q12 -18 27 -18q11 0 19 8.5
t20 31.5q9 16 14 25.5t7.5 15.5t3 10t0.5 9q0 8 -3 13t-13 15q-17 19 -17 33q0 23 31.5 33.5t101.5 10.5q52 0 76 -10.5t24 -33.5t-36 -35q-14 -5 -22.5 -8.5t-15 -10.5t-13.5 -19t-18 -33z" />
    <glyph glyph-name="w" unicode="w" horiz-adv-x="1016" 
d="M544 165q-9 13 -14.5 21t-9 11.5t-6.5 4.5t-7 1q-18 0 -35 -32l-82 -141q-23 -40 -53 -40q-18 0 -33.5 12.5t-32.5 41.5l-146 244q-18 28 -29.5 44.5t-21 26t-19.5 14t-23 7.5q-11 4 -18 14t-7 23q0 31 49.5 48.5t136.5 17.5q156 0 156 -57q0 -8 -2 -13t-13 -21
q-3 -3 -3 -9q0 -4 3.5 -13.5t9.5 -21t12.5 -23.5t12.5 -20q18 -23 29 -23q5 0 12.5 7t14.5 17.5t12 21t5 18.5q0 7 -1.5 13t-6 11.5t-12.5 12t-22 15.5q-17 12 -17 29q0 14 11.5 25t30.5 16q24 7 63 11t84 4q74 0 107 -12t33 -40q0 -12 -4 -18.5t-21 -24.5q-6 -6 -6 -15
q0 -10 10 -32.5t24 -41.5q12 -19 24 -19q8 0 15.5 7t18.5 24q14 20 22 38t8 26q0 7 -2 10.5t-14 18.5q-11 13 -11 30q0 25 23 35q14 6 40 10t54 4q32 0 57 -4t36 -10q23 -14 23 -35q0 -16 -14 -28q-1 -1 -2 -1.5t-4 -1.5t-9.5 -3.5t-18.5 -6.5q-9 -4 -16 -8t-13.5 -11
t-13 -18t-15.5 -28l-122 -236q-53 -104 -95 -104q-17 0 -38.5 22t-53.5 74z" />
    <glyph glyph-name="x" unicode="x" horiz-adv-x="616" 
d="M137 325q-15 18 -25.5 29.5t-19 18.5t-17 9.5t-18.5 4.5q-39 8 -39 38q0 58 203 58q82 0 117 -10.5t35 -36.5q0 -8 -2.5 -13.5t-13.5 -23.5q-3 -5 -3 -10t4.5 -13.5t10.5 -16.5t12.5 -14t10.5 -6t11.5 6.5t14.5 15t12 17.5t5 15q0 8 -10 24q-9 13 -9 21q0 11 8 21t20 15
q13 5 29 7t45 2q33 0 49 -3.5t26 -14.5q12 -14 12 -27q0 -12 -7.5 -18.5t-34.5 -20.5q-11 -5 -16.5 -10t-15.5 -18q-3 -4 -9 -11.5t-14 -19.5l-21 -28l-34 -51q-5 -7 -5 -11t5 -11l29 -44q21 -32 35.5 -52t25.5 -32t21 -18.5t22 -10.5q23 -11 23 -35q0 -16 -9.5 -27
t-32 -17.5t-58.5 -9.5t-89 -3q-50 0 -74.5 1.5t-44.5 6.5q-44 11 -44 45q0 22 26 32q14 7 14 21q0 8 -6 20.5t-14 24.5t-16.5 20t-14.5 8t-16 -10.5t-19.5 -25t-16.5 -29t-7 -23.5q0 -5 2 -8.5t10 -13.5q11 -13 11 -26q0 -43 -100 -43q-54 0 -78.5 11t-24.5 35
q0 16 7.5 22.5t28.5 11.5q22 4 37 23q2 2 11 15.5t19 30.5q9 14 17.5 27t16.5 27l36 58q5 8 5 11q0 4 -7 11z" />
    <glyph glyph-name="y" unicode="y" horiz-adv-x="632" 
d="M426 69q-24 -66 -48 -108t-55 -71q-31 -30 -70 -45.5t-82 -15.5q-33 0 -61 8.5t-48 23.5t-31.5 35.5t-11.5 45.5q0 19 6.5 35t18 28t26.5 19t33 7q35 0 56 -24q5 -5 8 -9t5.5 -9.5t5 -14t5.5 -22.5q2 -9 9 -15.5t15 -6.5q15 0 25.5 13t10.5 33q0 14 -5 29.5t-21 47.5
l-117 250q-10 19 -18.5 34t-13.5 19q-4 5 -14 10l-23 10q-10 5 -17 16t-7 22q0 16 13 29.5t36 20.5q29 8 74.5 13.5t93.5 5.5q122 0 122 -58q0 -8 -2.5 -14t-8.5 -16q-7 -9 -9 -14.5t-2 -12.5q0 -12 6.5 -29.5t16 -33.5t19.5 -27.5t17 -11.5t15.5 8.5t16 21.5t12 28.5
t4.5 29.5q0 23 -12 36q-11 14 -14.5 21t-3.5 17q0 25 33 40t89 15q103 0 103 -51q0 -17 -10.5 -27.5t-38.5 -21.5q-11 -3 -21 -11t-19.5 -23.5t-20.5 -40.5t-25 -62z" />
    <glyph glyph-name="z" unicode="z" horiz-adv-x="514" 
d="M398 473q23 0 36.5 -0.5t21 -1.5t11.5 -3t7 -5q8 -8 8 -22q0 -19 -16 -46l-129 -230q-16 -28 -16 -40q0 -23 34 -23q25 0 40 10t28 35q11 22 18.5 29.5t18.5 7.5q21 0 34.5 -17t13.5 -44q0 -22 -9 -46t-23.5 -44.5t-31 -34t-31.5 -13.5q-3 0 -8 1t-11 3q-17 7 -27.5 9
t-28.5 2h-256q-65 0 -65 37q0 4 0.5 7.5t4.5 11t11.5 20.5t22.5 37l112 179q17 29 24 42.5t7 21.5q0 19 -41 19q-21 0 -33.5 -7.5t-26.5 -30.5q-17 -26 -25 -33.5t-22 -7.5q-20 0 -32 15t-12 38q0 22 8 47t20.5 46t27.5 35t28 14q5 0 16 -3q10 -4 16 -6t11.5 -3t12 -1.5
t17.5 -1.5q15 -1 104 -3h130z" />
    <glyph glyph-name="braceleft" unicode="{" horiz-adv-x="425" 
d="M251 175v-37t0.5 -19.5t1.5 -10t3 -7.5q7 -13 24 -18t52 -5h7.5t13.5 1h12q53 0 53 -34q0 -40 -56 -49q-8 -1 -24.5 -2t-36.5 -2t-41 -1.5t-37 -0.5q-85 0 -120 33t-35 111v63q0 22 -2.5 37t-8.5 25t-17 16.5t-27 11.5t-24.5 17t-8.5 29t8.5 29.5t24.5 17.5t27 11.5
t17 16.5t8.5 25t2.5 37v63q0 78 35 111t120 33q21 0 43.5 -0.5t43.5 -2t37 -3t24 -2.5q22 -5 34.5 -17.5t12.5 -29.5q0 -34 -53 -34h-9.5t-24.5 1q-17 1 -36 -2t-27 -8q-15 -9 -16 -33q0 -3 -0.5 -5.5t-0.5 -7.5v-14.5v-26.5v-32q0 -23 -2.5 -40.5t-7.5 -31t-14.5 -24.5
t-22.5 -21q-4 -4 -4 -8t2.5 -7.5t13.5 -12.5q35 -29 35 -108v-32z" />
    <glyph glyph-name="bar" unicode="|" 
d="M360 667v-834h-220v834h220z" />
    <glyph glyph-name="braceright" unicode="}" horiz-adv-x="425" 
d="M174 492v37t-0.5 19.5t-1.5 10t-3 7.5q-7 13 -24 18t-52 5h-7.5t-13.5 -1h-12q-53 0 -53 34q0 40 56 49q7 1 24 2t37 2t41 1.5t37 0.5q84 0 119 -33t35 -111v-63q0 -22 2.5 -37t8.5 -25t16.5 -16.5t27.5 -11.5q33 -9 33 -47q0 -37 -33 -46q-17 -5 -27.5 -11.5
t-16.5 -16.5t-8.5 -25t-2.5 -37v-63q0 -78 -35 -111t-119 -33q-21 0 -43.5 0.5t-43.5 2t-37.5 2.5t-23.5 3q-22 5 -34.5 17.5t-12.5 29.5q0 34 53 34h9.5t24.5 -1q17 -1 36 2t27 8q15 9 16 33q0 3 0.5 5.5t0.5 7.5v14.5v26.5v32q0 46 10 71.5t37 45.5q4 4 4 8t-2.5 7.5
t-13.5 12.5q-35 29 -35 108v32z" />
    <glyph glyph-name="asciitilde" unicode="~" horiz-adv-x="667" 
d="M91 613q32 85 70 122t92 37q9 0 16 -1t20.5 -4.5t38 -11.5t67.5 -23q18 -7 29 -7q18 0 32 17q4 4 7 9t13 24l103 -87q-10 -26 -18.5 -44t-16 -31.5t-16 -24.5t-18.5 -21q-19 -20 -43.5 -30.5t-48.5 -10.5q-8 0 -16.5 1t-23.5 5.5t-40 13t-67 23.5q-15 5 -27 5
q-14 0 -25 -10.5t-25 -38.5z" />
    <glyph glyph-name="nonbreakingspace" unicode="&#xa0;" horiz-adv-x="173" 
 />
    <glyph glyph-name="exclamdown" unicode="&#xa1;" horiz-adv-x="291" 
d="M75 408q33 -16 63 -16q16 0 29 3.5t33 11.5q15 -34 27 -70.5t20.5 -72.5t13 -70t4.5 -64q0 -66 -34 -104.5t-91 -38.5q-59 0 -93.5 41.5t-34.5 111.5q0 31 4.5 65.5t12.5 69.5t20 69t26 64zM139 660q26 0 49 -10t40.5 -27.5t27.5 -40.5t10 -49t-10 -49.5t-27.5 -40.5
t-40.5 -27t-49 -10q-27 0 -50 10t-40 27.5t-27 40.5t-10 50q0 26 10 49t27.5 40t40.5 27t49 10z" />
    <glyph glyph-name="cent" unicode="&#xa2;" horiz-adv-x="470" 
d="M194 530q0 20 6.5 26.5t26.5 6.5h29q22 0 27.5 -6.5t5.5 -32.5q0 -10 3.5 -14t14.5 -5q32 -3 60.5 -15t49.5 -30t33.5 -40t12.5 -45q0 -37 -25 -61t-63 -24q-26 0 -40.5 13t-25.5 46q-8 25 -19.5 36t-29.5 11q-25 0 -41 -22t-16 -56q0 -24 9.5 -46.5t25 -39.5t36.5 -27
t44 -10q20 0 35 4t40 15q5 2 9 3t7 1q14 0 25.5 -15t11.5 -34q0 -31 -38 -63q-11 -9 -21 -16t-22 -12t-27.5 -9.5t-36.5 -9.5q-8 -2 -10 -6t-2 -17v-15q0 -20 -6.5 -26.5t-26.5 -6.5h-29q-19 0 -26 7t-7 26v19q0 15 -3 18.5t-18 6.5q-29 6 -62 31t-56 57q-39 55 -39 124
q0 88 57 148q22 24 50.5 42.5t54.5 25.5q11 3 13.5 6.5t2.5 17.5v13z" />
    <glyph glyph-name="sterling" unicode="&#xa3;" horiz-adv-x="599" 
d="M397 277q-20 0 -31 -0.5t-17.5 -4.5t-10 -11.5t-8.5 -21.5l-9 -21l-9 -16q-2 -4 -3 -7t-1 -6q0 -7 10.5 -15t26.5 -14.5t35 -11t36 -4.5q23 0 39.5 10.5t32.5 33.5t28 32t27 9q22 0 35.5 -15.5t13.5 -39.5q0 -31 -16 -68t-41 -64q-23 -26 -58 -40.5t-74 -14.5
q-31 0 -67 13t-61 33q-15 13 -19 15.5t-9 2.5q-6 0 -14.5 -5t-25.5 -19q-52 -40 -98 -40q-45 0 -73.5 33t-28.5 85q0 47 23 74.5t63 27.5q8 0 16 -1t22 -5q5 -2 10.5 -2.5t7.5 -0.5q13 0 13 10q0 2 -2 10q-1 3 -1.5 8t-2.5 12q-2 11 -4 17.5t-7.5 9.5t-16 3.5t-28.5 0.5
l-27 -1q-20 0 -28.5 11.5t-8.5 37.5q0 23 9 32q3 3 4.5 4t5.5 2t11 1h19q21 0 21 11q0 4 -3 15q-10 31 -10 58q0 41 18.5 74.5t52 57t81.5 36.5t108 13q52 0 88.5 -10.5t65.5 -34.5q55 -43 55 -104q0 -36 -21.5 -57t-58.5 -21q-32 0 -50.5 16.5t-18.5 45.5v6t1 9v13
q0 43 -49 43q-53 0 -53 -64q0 -31 6.5 -60t15.5 -36q2 -2 5 -2.5t10.5 -1.5t20 -1h33.5t29.5 -11t8.5 -37q0 -20 -6.5 -28.5t-22.5 -8.5h-15z" />
    <glyph glyph-name="currency" unicode="&#xa4;" horiz-adv-x="587" 
d="M114 538q5 0 9 -1t8 -4t10 -9.5t15 -18.5q8 -11 13.5 -14.5t11.5 -3.5t19 5q52 19 108 19q22 0 46 -3.5t42 -9.5q11 -4 17 -4q8 0 14 5.5t20 24.5q11 15 24 15q16 0 69 -27q27 -14 27 -28q0 -6 -3 -9.5t-12 -11.5q-17 -13 -28 -26t-11 -21q0 -7 7 -20q31 -52 31 -110
q0 -32 -8 -57t-28 -53q-8 -11 -8 -17q0 -7 14 -23t31 -29q10 -8 12.5 -11.5t2.5 -9.5q0 -12 -18 -22q-9 -6 -21 -12t-23 -10.5t-20.5 -7.5t-15.5 -3q-10 0 -19 11q-2 2 -3.5 4t-9.5 14q-2 2 -4 4.5t-5 6.5q-11 14 -22 14q-4 0 -8 -1t-14 -5q-26 -10 -55 -15t-58 -5
q-23 0 -46 3.5t-41 9.5q-10 2 -11 2q-6 0 -11 -4t-16 -18q-9 -11 -15.5 -15.5t-14.5 -4.5q-6 0 -17 3.5t-24 8.5t-25.5 11t-20.5 12q-10 6 -10 17q0 9 15 23q21 17 27.5 24.5t6.5 14.5q0 6 -7 22q-25 47 -25 103q0 67 33 120q8 11 8 20q0 5 -0.5 8.5t-4.5 8.5t-13 13t-25 22
q-10 9 -12.5 13t-2.5 10q0 12 18 22q21 10 33.5 16t20.5 9t13 4t10 1zM279 421q-29 0 -47 -16.5t-18 -43.5q0 -14 3.5 -34.5t9 -43.5t12.5 -46t15 -42q16 -40 54 -40q29 0 46 15.5t17 42.5q0 18 -3.5 41t-9.5 47t-13.5 46.5t-15.5 39.5q-15 34 -50 34z" />
    <glyph glyph-name="yen" unicode="&#xa5;" horiz-adv-x="625" 
d="M458 349q-21 -1 -25.5 -1.5t-6.5 -2.5t-4 -9t-4 -16.5t-3.5 -19t-1.5 -16.5q0 -11 4.5 -14t21.5 -3l45 1h30q28 0 39 -8.5t11 -29.5q0 -17 -9 -23.5t-30 -6.5h-26l-53 -1q-21 0 -26 -2t-5 -13q0 -3 0.5 -9t1 -13.5t1 -14.5t1.5 -11q2 -16 8 -24.5t23 -17.5
q17 -10 24.5 -19.5t7.5 -23.5q0 -30 -44.5 -45.5t-132.5 -15.5q-48 0 -93 6t-68 16q-30 13 -30 40q0 28 34 41q14 5 21 10t10 13q2 4 4 13t4 18.5t3 18.5t1 14q0 16 -20 15h-6l-26 -1l-30 -1q-26 0 -37 9t-11 30q0 18 12 26q3 2 5.5 3t7 1.5t13.5 0.5h25l43 1q17 0 21.5 2.5
t4.5 13.5q0 13 -3.5 28.5t-8.5 24.5q-4 8 -9 9.5t-20 1.5h-23l-30 -1q-26 0 -37 9t-11 30q0 19 10 25t41 6h6q17 0 17 10q0 6 -13 22q-3 3 -12 15q-20 27 -33 40.5t-24 18.5q-23 12 -29.5 19.5t-6.5 24.5q0 31 37 44.5t126 13.5q90 0 128.5 -11.5t38.5 -39.5q0 -13 -12 -25
q-14 -13 -16.5 -17t-2.5 -9q0 -16 25 -52q16 -23 31 -23q9 0 18 7t23 25q11 13 14.5 20.5t3.5 13.5q0 9 -3 13t-19 19q-5 5 -8 13t-3 16q0 50 124 50q38 0 57 -2.5t29 -9.5q20 -15 20 -40q0 -17 -8.5 -26.5t-28.5 -14.5q-8 -2 -14.5 -5t-13 -8.5t-14.5 -14.5t-19 -22
q-15 -19 -23.5 -29t-12.5 -15t-4.5 -7t-0.5 -3q0 -7 12 -7h10q5 1 10 1h12q29 0 40 -8t11 -30q0 -20 -12.5 -26t-50.5 -4h-2z" />
    <glyph glyph-name="brokenbar" unicode="&#xa6;" 
d="M360 667v-368h-220v368h220zM360 153v-320h-220v320h220z" />
    <glyph glyph-name="section" unicode="&#xa7;" horiz-adv-x="508" 
d="M100 85q9 0 15.5 -1t12.5 -4.5t12.5 -10t15.5 -17.5q35 -38 88 -38q26 0 40.5 8.5t14.5 24.5q0 23 -54 35q-48 11 -92 26t-70 30q-29 16 -47 46t-18 64q0 33 17 62t49 49q5 3 5 5q0 1 -4 5t-27 25q-14 12 -23 35t-9 48q0 66 62 103.5t173 37.5q47 0 88 -6.5t71 -18.5
t47.5 -28t17.5 -34q0 -9 -7.5 -18.5t-19.5 -16.5t-27 -11.5t-30 -4.5q-8 0 -12.5 0.5t-9.5 3.5t-11.5 8.5t-17.5 15.5q-14 14 -35 21.5t-41 7.5t-33.5 -8t-13.5 -20q0 -14 16 -23.5t52 -17.5q55 -11 97.5 -27t61.5 -33q20 -18 30.5 -42t10.5 -50q0 -32 -18 -62.5t-47 -48.5
q-8 -5 -8 -8t12 -10q8 -5 22 -17t19 -20q18 -29 18 -66q0 -72 -62 -112.5t-173 -40.5q-131 0 -206 52q-17 12 -29 29t-12 31q0 17 26 29.5t63 12.5zM289 237q2 -1 6 -1q6 0 13 12.5t7 23.5q0 24 -31 32l-73 20q-2 1 -6 1q-8 -1 -15 -12.5t-7 -22.5q0 -23 32 -31z" />
    <glyph glyph-name="dieresis" unicode="&#xa8;" 
d="M142 701q38 0 60 -18t22 -49q0 -19 -9.5 -35t-26.5 -28t-40 -19t-50 -7q-32 0 -52.5 19t-20.5 50q0 41 31.5 64t85.5 23zM394 699q38 0 60 -17.5t22 -49.5q0 -19 -9.5 -35t-26.5 -28t-40 -19t-50 -7q-32 0 -52.5 19t-20.5 50q0 41 31.5 64t85.5 23z" />
    <glyph glyph-name="copyright" unicode="&#xa9;" horiz-adv-x="772" 
d="M390 524q40 0 79 -17q12 -6 15 -7t8 -1q2 0 4 0.5t11 2.5q2 1 9 1q10 0 20 -7.5t17.5 -20.5t12 -29t4.5 -34q0 -26 -15 -41.5t-39 -15.5q-27 0 -42 28q-20 33 -40.5 47.5t-49.5 14.5q-26 0 -42 -18t-16 -50q0 -28 8.5 -51.5t23.5 -40.5t36 -26.5t45 -9.5q22 0 42.5 6.5
t32.5 17.5q8 8 11.5 9.5t8.5 1.5q11 0 18.5 -9.5t7.5 -22.5q0 -16 -10 -35.5t-24 -30.5q-5 -4 -8 -5t-17 -4q-7 -1 -10.5 -2.5t-16.5 -6.5q-43 -19 -85 -19q-43 0 -80.5 15t-66 40.5t-45 59.5t-16.5 72t17 72t45.5 60t66.5 41t80 15zM392 680q73 0 138.5 -27.5t115 -75
t78 -110.5t28.5 -134q0 -72 -29 -135t-78.5 -110t-116 -74t-141.5 -27q-76 0 -142.5 27.5t-116.5 74.5t-79 110t-29 134q0 73 29 136t79 110t118 74t146 27zM391 614q-63 0 -117 -22t-94.5 -60t-63.5 -89t-23 -110q0 -58 23 -109t63 -89t93.5 -60t113.5 -22q61 0 114 22
t93 60t63 89t23 109q0 57 -23 108.5t-62 89.5t-91.5 60.5t-111.5 22.5z" />
    <glyph glyph-name="ordfeminine" unicode="&#xaa;" horiz-adv-x="366" 
d="M162 435q14 0 18 2.5t4 12.5q0 55 -26 55q-9 0 -15.5 -4.5t-17.5 -18.5q-15 -20 -29.5 -29t-31.5 -9t-27.5 9.5t-10.5 24.5q0 16 14 31t37.5 26.5t53.5 18.5t62 7t60.5 -9.5t46.5 -26.5q14 -14 19 -29.5t5 -42.5l-1 -41q0 -41 4 -53.5t20 -14.5q13 -2 13 -15t-8.5 -25.5
t-22 -22.5t-30.5 -16t-35 -6q-35 0 -54 22q-5 7 -10 7q-3 0 -5.5 -1t-9.5 -6q-31 -22 -72 -22q-48 0 -77 23t-29 60q0 19 11 36t30 30t44.5 20t54.5 7h15zM171 387q-13 0 -22 -9.5t-9 -22.5q0 -12 6 -19.5t17 -7.5q22 0 22 38q0 12 -3 16.5t-11 4.5z" />
    <glyph glyph-name="guillemotleft" unicode="&#xab;" horiz-adv-x="387" 
d="M269 85q0 7 -1 13t-6.5 16t-17 27.5t-32.5 47.5q-30 45 -30 67q0 6 2.5 14t10.5 22.5t24 39t42 63.5q7 11 9 19t2 24q29 23 41.5 29.5t25.5 6.5q16 0 29 -13.5t13 -29.5q0 -6 -1 -10t-5.5 -13t-15 -25t-29.5 -45q-39 -59 -39 -83q0 -25 33 -74q20 -30 31 -47t16 -26.5
t6 -14.5t1 -11q0 -17 -14 -29t-33 -12q-14 0 -27 7t-35 27v10zM217 475q16 0 29 -13.5t13 -29.5q0 -6 -1 -10t-5.5 -13t-15 -25t-29.5 -45q-39 -59 -39 -83q0 -25 33 -74q20 -30 31 -47t16 -26.5t6 -14.5t1 -11q0 -17 -14 -29t-34 -12q-10 0 -22 5.5t-28.5 18.5t-37.5 34
t-49 52q-37 40 -50.5 62t-13.5 42q0 24 18.5 53t60.5 72q45 45 79 69.5t52 24.5z" />
    <glyph glyph-name="logicalnot" unicode="&#xac;" 
d="M253 112h-220v191h433v-303h-213v112z" />
    <glyph glyph-name="sfthyphen" unicode="&#xad;" horiz-adv-x="308" 
d="M96 349h12.5t13.5 -2q33 -4 53.5 -5.5t37.5 -1.5q11 0 25.5 0.5t19.5 2.5q15 3 21 3q16 2 16 -23q0 -21 -9.5 -53t-23.5 -63q-11 -23 -19.5 -31.5t-19.5 -8.5t-24 3q-8 1 -21 2.5t-27 3t-27.5 2t-23.5 0.5t-23 -0.5t-21 -1.5t-14.5 -1.5t-9.5 -0.5q-21 0 -21 23
q0 8 3 22.5t8 30.5t11 31.5t12 25.5q13 24 24 33t27 9z" />
    <glyph glyph-name="registered" unicode="&#xae;" horiz-adv-x="772" 
d="M365 305q-9 0 -11 -5.5t-2 -29.5q0 -10 1 -25t3 -21q2 -4 4 -6.5t9 -6.5q19 -9 19 -25q0 -19 -23.5 -27t-79.5 -8q-105 0 -105 40q0 8 3.5 11.5t14.5 11.5q7 5 11.5 11t6.5 24t2.5 52.5t0.5 95.5q0 34 -3.5 46.5t-14.5 17.5q-13 5 -17.5 10.5t-4.5 14.5q0 33 65 33h5h6.5
t12.5 -0.5t22 -1.5q5 -1 10 -1h12q22 0 64 3q11 1 22 1.5t15 0.5q62 0 98.5 -26t36.5 -71q0 -25 -12.5 -45t-34.5 -31q-7 -3 -7 -6q0 -5 11 -10q32 -13 45.5 -33t18.5 -60q2 -17 6.5 -21t19.5 -8q15 -5 15 -22q0 -19 -24 -30.5t-65 -11.5q-26 0 -44 5t-31 18t-22 35.5
t-18 57.5q-6 23 -15.5 33t-25.5 10zM350 380l-1 -2q-3 -13 11 -13q43 0 43 47t-34 47q-9 0 -12.5 -4t-3.5 -15zM392 680q73 0 138.5 -27.5t115 -75t78 -110.5t28.5 -134q0 -72 -29 -135t-78.5 -110t-116 -74t-141.5 -27q-76 0 -142.5 27.5t-116.5 74.5t-79 110t-29 134
q0 73 29 136t79 110t118 74t146 27zM391 614q-63 0 -117 -22t-94.5 -60t-63.5 -89t-23 -110q0 -58 23 -109t63 -89t93.5 -60t113.5 -22q61 0 114 22t93 60t63 89t23 109q0 57 -23 108.5t-62 89.5t-91.5 60.5t-111.5 22.5z" />
    <glyph glyph-name="macron" unicode="&#xaf;" 
d="M369 658h32.5t16.5 1t8 1.5t5 0.5q20 0 20 -20q0 -9 -7 -27t-20 -41q-7 -11 -13 -16t-16 -5q-4 0 -8 0.5t-27 3.5q-8 1 -20 1.5t-26 0.5h-127q-40 0 -61.5 -0.5t-40.5 -1.5q-3 -1 -6 -1h-5q-11 0 -17.5 5.5t-6.5 13.5q0 3 3 11t7.5 18t9.5 20.5t10 19.5q13 21 34 21h6
t9 -1q23 -2 45 -3.5t39 -1.5h156z" />
    <glyph glyph-name="degree" unicode="&#xb0;" horiz-adv-x="374" 
d="M199 677q34 0 63 -11.5t51 -32t34.5 -48.5t12.5 -60q0 -31 -15 -59t-41 -49t-60 -33t-73 -12q-35 0 -64 10.5t-50 29t-32.5 45t-11.5 58.5q0 35 14 64.5t39 51.5t59 34t74 12zM173 625q-20 0 -31 -12t-11 -32q0 -11 2.5 -26t7 -32.5t9.5 -34.5t11 -30q13 -30 40 -30
q40 0 40 44q0 13 -2.5 30t-7 35t-10.5 34.5t-12 28.5q-13 25 -36 25z" />
    <glyph glyph-name="plusminus" unicode="&#xb1;" 
d="M178 118q-1 -13 -1.5 -23.5t-1.5 -21.5q-1 -3 -1 -6.5v-5.5q0 -14 9.5 -24.5t23.5 -10.5q8 0 23 4t31 10t30.5 12.5t21.5 12.5q16 13 16 35v6t-1 12h84h30.5t15.5 1t8 1.5t5 0.5q8 1 13.5 -5t5.5 -14q0 -6 -2.5 -16t-6 -22t-8 -24t-8.5 -20q-7 -13 -13.5 -18t-14.5 -5
q-4 0 -8 0.5t-25 3.5q-18 3 -45 3h-219q-37 0 -58.5 -0.5t-38.5 -2.5q-3 -1 -5.5 -1h-4.5q-10 0 -16.5 6t-6.5 14q0 4 3 15t7.5 23.5t9.5 24.5t8 19q12 22 33 22h6t8 -1q23 -2 43 -3.5t37 -1.5h13zM140 229q-38 0 -59 -0.5t-38 -1.5q-3 -1 -5.5 -1h-4.5q-10 0 -16.5 5.5
t-6.5 13.5q0 4 3 15t7.5 23.5t9.5 24.5t8 19q12 22 33 22h6t8 -1q20 -2 39 -3.5t28 -1.5h12q27 0 27 27v31v16t-0.5 12.5t-2 15t-3.5 23.5q-1 4 -1 11q0 9 7 16t24 15q9 4 20.5 8t22.5 7t20.5 5t14.5 2q8 0 14.5 -5.5t5.5 -13.5q0 -2 -0.5 -5t-1.5 -8t-1 -15.5v-30.5v-84
q0 -27 27 -27h75h30.5t16.5 1q10 2 12 2q8 1 13.5 -5t5.5 -14q0 -6 -2.5 -16.5t-6 -22.5t-8 -23.5t-8.5 -19.5q-7 -13 -13.5 -18t-14.5 -5q-4 0 -8 0.5t-25 3.5q-18 3 -45 3h-22q-15 0 -21 -6t-6 -21v-8q0 -17 1.5 -38.5t3.5 -41.5q1 -4 1 -8v-7q0 -11 -6.5 -19t-23.5 -16
q-8 -3 -19.5 -7.5t-23.5 -8.5t-22 -6.5t-13 -2.5q-8 0 -14 6.5t-6 16.5v10q2 20 2.5 39.5t0.5 57.5v33q0 15 -6 21t-21 6h-24z" />
    <glyph glyph-name="twosuperior" unicode="&#xb2;" horiz-adv-x="373" 
d="M28 267q-31 0 -31 18q0 4 1 7t5.5 8t13.5 13.5t26 22.5q48 41 75.5 77t27.5 57q0 13 -8 20.5t-22 7.5q-7 0 -11 -0.5t-9.5 -3t-12.5 -8t-20 -14.5q-8 -6 -20 -6q-16 0 -29.5 11.5t-13.5 25.5q0 17 17.5 35t45.5 32.5t63 23.5t69 9q67 0 107 -25t40 -67q0 -26 -20 -54.5
t-57 -57.5q-12 -9 -19 -16t-7 -12q0 -7 7 -11.5t17 -4.5q26 0 48 19q12 11 15.5 13t9.5 2q15 0 23.5 -12t8.5 -33q0 -20 -6 -38.5t-16.5 -33t-23.5 -23.5t-26 -9q-9 0 -14 3t-12 13q-5 7 -10 9t-19 2h-213z" />
    <glyph glyph-name="threesuperior" unicode="&#xb3;" horiz-adv-x="373" 
d="M160 604q67 0 108.5 -22t41.5 -57q0 -33 -37 -60q-8 -6 -8 -9q0 -5 15 -8q42 -7 64 -29.5t22 -59.5q0 -34 -17 -62t-47.5 -48t-73.5 -31t-95 -11q-65 0 -104 13.5t-39 36.5q0 14 10.5 23.5t26.5 9.5h5t6 -1t11.5 -2.5t20.5 -4.5q5 -1 13 -1.5t19 -0.5q33 0 56 15t23 36
q0 20 -17 32t-44 12q-8 0 -17 -1t-14 -3q-5 -1 -8.5 -1.5t-5.5 -0.5q-9 0 -18.5 16.5t-9.5 31.5q0 4 0.5 7t3.5 5t9.5 4t18.5 6q21 7 35.5 20.5t14.5 26.5q0 16 -13 27t-31 11q-11 0 -19.5 -3t-30.5 -13q-7 -4 -12 -4q-9 0 -17 11.5t-8 23.5t14 24t36.5 21t52 14.5t59.5 5.5
z" />
    <glyph glyph-name="acute" unicode="&#xb4;" 
d="M308 698q25 0 46.5 -4.5t37 -12t24.5 -17t8 -20.5q-2 -23 -42 -54q-74 -57 -163 -57q-50 0 -50 36q0 7 1.5 12t7 11t16.5 14.5t30 22.5q12 9 12 18q0 3 -0.5 5t-5.5 10q-2 4 -2 7q0 13 22.5 21t57.5 8z" />
    <glyph glyph-name="mu" unicode="&#xb5;" 
d="M12 480h184v-232q0 -46 3 -59q4 -19 19.5 -31t36.5 -12q28 0 40 21q5 8 8.5 18t2.5 16q-1 11 -1.5 17.5t-0.5 11v8v9.5v233h184v-480h-184v44q-10 -27 -22.5 -39t-30.5 -12q-34 0 -55 47v-214h-184v654z" />
    <glyph glyph-name="paragraph" unicode="&#xb6;" horiz-adv-x="567" 
d="M480 -35q0 -17 1 -40.5t3 -38.5q1 -5 1 -9v-7q0 -21 -27 -35q-7 -3 -18 -7.5t-21.5 -8.5t-19 -6.5t-11.5 -2.5q-8 0 -13 6.5t-5 16.5v10q1 12 1.5 22t1 21t0.5 24v30v596q0 18 -4.5 22.5t-22.5 4.5h-16q-18 0 -22 -4.5t-4 -22.5v-571q0 -17 1 -40.5t3 -38.5q1 -5 1 -9v-7
q0 -21 -27 -35q-7 -3 -18 -7.5t-21.5 -8.5t-19 -6.5t-11.5 -2.5q-8 0 -13 6.5t-5 16.5v10q3 36 3 76v326q0 19 -5 23.5t-27 6.5q-35 2 -64 17.5t-50 42.5t-32.5 63t-11.5 78q0 45 13 82t36.5 63.5t56 41t72.5 14.5h11.5t13.5 -1t25.5 -3t45.5 -5q17 -2 48.5 -3t62.5 -1h20
t17 0.5t21 1t32 1.5h19q31 0 48.5 -11t17.5 -31q0 -29 -44 -41q-15 -4 -23.5 -8t-13 -12.5t-5.5 -22t-1 -36.5v-540z" />
    <glyph glyph-name="periodcentered" unicode="&#xb7;" horiz-adv-x="275" 
d="M140 374q26 0 48.5 -10t39.5 -27t27 -39.5t10 -48.5q0 -27 -10 -50.5t-27.5 -41t-40.5 -27.5t-49 -10t-49.5 10t-40.5 27.5t-27 41t-10 50.5q0 26 10 49t27 40t41 26.5t51 9.5z" />
    <glyph glyph-name="cedilla" unicode="&#xb8;" 
d="M250 -40q36 0 61 -25t25 -61q0 -21 -9 -43t-23.5 -40t-31.5 -29.5t-33 -11.5q-12 0 -20.5 6.5t-8.5 15.5q0 3 1.5 5.5t6.5 7.5q10 11 17 22t7 17q0 7 -3 9t-19 7q-19 6 -31 22.5t-12 35.5q0 26 21 44t52 18z" />
    <glyph glyph-name="onesuperior" unicode="&#xb9;" horiz-adv-x="373" 
d="M57 509q-12 0 -19.5 6t-7.5 17q0 13 20 26t52.5 23t74 16.5t84.5 6.5q54 0 54 -28q0 -8 -4.5 -13.5t-18.5 -10.5q-9 -3 -13.5 -7t-7 -13.5t-3 -27t-0.5 -48.5q0 -47 1 -72.5t6 -38t15.5 -15.5t29.5 -4q33 -2 33 -26q0 -23 -37 -30q-10 -2 -26 -4t-34 -3.5t-36 -2.5
t-31 -1q-30 0 -61 3t-59 9q-28 5 -40 13t-12 20q0 11 9 18t21 7h5.5t15.5 -2q4 -1 7 -1h5q14 0 23 17q3 8 4.5 42t1.5 101q0 14 -6 19t-23 5h-4.5t-7.5 -1h-11z" />
    <glyph glyph-name="ordmasculine" unicode="&#xba;" horiz-adv-x="389" 
d="M207 560q36 0 68 -11.5t55 -32t36.5 -48t13.5 -58.5t-16 -58.5t-43.5 -48.5t-64 -33t-77.5 -12q-38 0 -69 10.5t-53.5 29t-35 44.5t-12.5 58q0 34 15 63.5t41.5 51t63 33.5t78.5 12zM182 487q-12 0 -19.5 -8.5t-7.5 -22.5q0 -11 3 -28t7.5 -33.5t10 -30t10.5 -19.5
q7 -10 21 -10q25 0 25 28q0 15 -2.5 32.5t-7 33.5t-9.5 29t-11 20q-8 9 -20 9z" />
    <glyph glyph-name="guillemotright" unicode="&#xbb;" horiz-adv-x="387" 
d="M134 71q28 25 71 71q37 41 52 66t15 48q0 33 -37 82.5t-104 104.5q13 32 41 32q20 0 58.5 -29.5t86.5 -80.5q35 -37 49.5 -62t14.5 -47q0 -11 -3.5 -22t-13 -25t-25 -32t-39.5 -43q-25 -27 -43 -44.5t-32.5 -28t-25 -15t-20.5 -4.5q-30 0 -45 29zM49 474q19 1 59 -29
t87 -81q34 -36 49 -61.5t15 -47.5q0 -11 -4 -22t-13 -25t-24.5 -32t-39.5 -43q-50 -53 -76 -72.5t-45 -19.5t-33 12t-14 29q0 6 1 11t6 14.5t16 26.5t31 47q33 49 33 74q0 8 -2.5 16t-10.5 23t-24.5 40.5t-43.5 67.5q-9 13 -9 29t12.5 29t29.5 14z" />
    <glyph glyph-name="onequarter" unicode="&#xbc;" horiz-adv-x="733" 
d="M294 253q39 5 55 15.5t16 31.5q0 23 -23 35l57 95q20 35 32 56.5t20.5 36.5t14 26.5t12.5 25.5q12 25 23.5 33.5t33.5 8.5q46 0 46 -23q0 -9 -8 -25t-30 -48q-6 -8 -15 -22t-20 -31t-22.5 -36.5t-22.5 -38.5l-151 -256q-9 -15 -21 -37t-24.5 -44.5t-24 -43.5t-18.5 -34
q-13 -27 -23 -36.5t-26 -9.5q-25 0 -41.5 7t-16.5 18q0 10 10 25q22 34 37 57t28 44t26.5 43t31.5 54zM56 509q-12 0 -19.5 6t-7.5 17q0 13 20 26t52.5 23t74 16.5t84.5 6.5q54 0 54 -28q0 -8 -4.5 -13.5t-18.5 -10.5q-9 -3 -13.5 -7t-7 -13.5t-3 -27t-0.5 -48.5
q0 -47 1 -72.5t6 -38t15.5 -15.5t29.5 -4q33 -2 33 -26q0 -23 -37 -30q-10 -2 -26 -4t-34 -3.5t-36 -2.5t-31 -1q-30 0 -61 3t-59 9q-28 5 -40 13t-12 20q0 11 9 18t21 7h5.5t15.5 -2q4 -1 7 -1h5q14 0 23 17q3 8 4.5 42t1.5 101q0 14 -6 19t-23 5h-4.5t-7.5 -1h-11z
M685 126q0 -12 9 -12h13q19 0 19 -20v-59q0 -17 -20 -20q-10 -2 -12 -3.5t-2 -9.5v-34q0 -22 -21 -22h-107q-13 0 -17 4t-4 18v30q0 11 -4 14.5t-15 3.5h-122q-23 0 -33 9.5t-10 32.5q0 14 2 25.5t8.5 23.5t18 26.5t29.5 34.5l80 88q29 32 49.5 52t38 31.5t33 16t34.5 4.5
q33 0 33 -35v-199zM547 190q0 22 -12 22q-5 0 -10.5 -2.5t-9.5 -7.5l-48 -55q-11 -13 -15.5 -19.5t-4.5 -11.5q0 -7 14.5 -9t56.5 -2q20 0 25 5q2 4 3 19t1 47v14z" />
    <glyph glyph-name="onehalf" unicode="&#xbd;" horiz-adv-x="733" 
d="M418 316q-72 -38 -72 -80q0 -12 9 -25l-43 -74q-9 -16 -21 -37.5t-24.5 -44t-24 -43t-18.5 -34.5q-13 -27 -23 -36.5t-26 -9.5q-25 0 -41.5 7t-16.5 18q0 10 10 25q22 34 37 57t28 44t26.5 43t31.5 54l44 73q39 5 55 15.5t16 31.5q0 23 -23 35l57 95q20 35 32 56.5
t20.5 36.5t14 26.5t12.5 25.5q12 25 23.5 33.5t33.5 8.5q46 0 46 -23q0 -9 -8 -25t-30 -48q-6 -8 -15 -22t-20 -31.5t-22.5 -37t-22.5 -37.5zM56 509q-12 0 -19.5 6t-7.5 17q0 13 20 26t52.5 23t74 16.5t84.5 6.5q54 0 54 -28q0 -8 -4.5 -13.5t-18.5 -10.5q-9 -3 -13.5 -7
t-7 -13.5t-3 -27t-0.5 -48.5q0 -47 1 -72.5t6 -38t15.5 -15.5t29.5 -4q33 -2 33 -26q0 -23 -37 -30q-10 -2 -26 -4t-34 -3.5t-36 -2.5t-31 -1q-30 0 -61 3t-59 9q-28 5 -40 13t-12 20q0 11 9 18t21 7h5.5t15.5 -2q4 -1 7 -1h5q14 0 23 17q3 8 4.5 42t1.5 101q0 14 -6 19
t-23 5h-4.5t-7.5 -1h-11zM388 0q-31 0 -31 18q0 4 1 7t5.5 8t13.5 13.5t26 22.5q48 42 75.5 78t27.5 57q0 13 -8 20.5t-22 7.5q-7 0 -11 -0.5t-9.5 -3t-12.5 -8t-20 -14.5q-8 -6 -20 -6q-16 0 -29.5 11.5t-13.5 25.5q0 17 17.5 35t45.5 32.5t63 23.5t69 9q67 0 107 -25
t40 -67q0 -26 -19.5 -54.5t-57.5 -56.5q-26 -21 -26 -29q0 -7 7 -11.5t17 -4.5q25 0 48 18q12 11 15.5 13t9.5 2q32 0 32 -46q0 -19 -6 -37.5t-16.5 -33t-23.5 -23.5t-27 -9q-8 0 -13 3t-12 13q-5 7 -10 9t-19 2h-213z" />
    <glyph glyph-name="threequarters" unicode="&#xbe;" horiz-adv-x="733" 
d="M274 219q51 23 78.5 58.5t27.5 81.5q0 8 -1 14t-4 16l24 41q21 37 33.5 59t20.5 36t13.5 24.5t12.5 25.5q12 25 23.5 33.5t33.5 8.5q46 0 46 -23q0 -9 -8 -25t-30 -48q-5 -6 -14 -20.5t-20.5 -33t-24 -38t-22.5 -36.5l-151 -256q-5 -8 -8.5 -14.5t-8.5 -15.5t-13 -23.5
t-21 -38.5q-20 -35 -27 -48t-9 -19q-14 -27 -23.5 -36.5t-26.5 -9.5q-24 0 -40.5 7t-16.5 18q0 10 10 25q24 37 38.5 59t26.5 41.5t24.5 41t33.5 56.5zM160 604q67 0 108.5 -22t41.5 -57q0 -33 -37 -60q-8 -6 -8 -9q0 -5 15 -8q42 -7 64 -29.5t22 -59.5q0 -34 -17 -62
t-47.5 -48t-73.5 -31t-95 -11q-65 0 -104 13.5t-39 36.5q0 14 10.5 23.5t26.5 9.5h5t6 -1t11.5 -2.5t20.5 -4.5q5 -1 13 -1.5t19 -0.5q33 0 56 15t23 36q0 20 -17 32t-44 12q-8 0 -17 -1t-14 -3q-5 -1 -8.5 -1.5t-5.5 -0.5q-9 0 -18.5 16.5t-9.5 31.5q0 4 0.5 7t3.5 5t9.5 4
t18.5 6q21 7 35.5 20.5t14.5 26.5q0 16 -13 27t-31 11q-11 0 -19.5 -3t-30.5 -13q-7 -4 -12 -4q-9 0 -17 11.5t-8 23.5t14 24t36.5 21t52 14.5t59.5 5.5zM686 126q0 -12 9 -12h12q19 0 19 -20v-59q0 -17 -19 -20q-10 -2 -12 -3.5t-2 -9.5v-34q0 -22 -21 -22h-107
q-13 0 -17.5 4.5t-4.5 17.5v30q0 11 -4 14.5t-15 3.5h-122q-23 0 -33 9.5t-10 32.5q0 14 2 25.5t8.5 23.5t18 26.5t29.5 34.5l80 88q28 31 49 51t38.5 32t34 16.5t34.5 4.5q33 0 33 -35v-199zM548 190q0 22 -13 22q-5 0 -10.5 -2.5t-9.5 -7.5l-48 -55q-11 -13 -15.5 -19.5
t-4.5 -11.5q0 -7 14.5 -9t56.5 -2q11 0 17 1t9 8t3.5 21t0.5 41v14z" />
    <glyph glyph-name="questiondown" unicode="&#xbf;" horiz-adv-x="508" 
d="M198 412q17 -8 29.5 -10.5t26.5 -2.5q18 0 33 4t35 15q7 -11 9 -19.5t2 -20.5q0 -30 -15 -63q-2 -3 -3 -5.5t-5 -8.5t-11.5 -17.5t-21.5 -32.5q-35 -51 -35 -98q0 -23 10.5 -38t26.5 -15q15 0 21.5 10.5t9.5 39.5q5 53 33 82t73 29q35 0 57.5 -21.5t22.5 -54.5
q0 -26 -9 -51.5t-25 -48.5t-38 -42t-48 -31q-58 -25 -119 -25q-50 0 -94.5 16t-78.5 43.5t-53.5 63.5t-19.5 77q0 62 48 105q5 4 8.5 7t10.5 7t20 11t37 19q14 8 22.5 13.5t14.5 12.5t11 17t12 26zM254 667q26 0 49 -10t40.5 -27.5t27.5 -40.5t10 -49t-10 -49.5t-27.5 -40.5
t-40.5 -27t-49 -10q-27 0 -50 10t-40 27.5t-27 40.5t-10 50q0 26 10 49t27.5 40t40.5 27t49 10z" />
    <glyph glyph-name="Agrave" unicode="&#xc0;" horiz-adv-x="840" 
d="M205 354q20 44 32.5 73.5t19.5 52t10 40.5t3 39q1 27 1 36t2 16q31 -14 58.5 -20.5t58.5 -6.5q64 0 64 50q0 11 -3.5 19t-12.5 18q24 -12 45.5 -32.5t46 -58t55 -96t72.5 -146.5l93 -198q13 -29 22.5 -37.5t26.5 -10.5q35 -5 35 -35q0 -35 -43 -51t-140 -16
q-160 0 -192 19q-26 15 -26 40q0 15 7.5 22.5t28.5 15.5q23 9 23 27q0 32 -40 38q-9 1 -22.5 2t-30 2t-33.5 1.5t-33 0.5q-39 0 -54.5 -1.5t-23.5 -6.5t-14 -17.5t-6 -24.5q0 -11 4.5 -14t27.5 -10q14 -5 22 -14.5t8 -21.5q0 -58 -141 -58q-34 0 -66 3t-49 8q-16 5 -25 17
t-9 28q0 15 7.5 23.5t27.5 15.5q15 5 25.5 11t20.5 18.5t21 33t27 55.5zM413 276q26 0 26 11q0 8 -9.5 29t-26.5 50q-17 30 -26 39.5t-19 9.5q-8 0 -14.5 -7.5t-14.5 -25.5l-19 -47.5t-10 -27t-4 -13t-1 -6.5q0 -12 22 -12h96zM302 762q35 0 57.5 -8t22.5 -21
q0 -3 -0.5 -4.5t-4.5 -8.5q-3 -5 -3 -9q0 -6 4.5 -11t19.5 -16q4 -3 10.5 -7.5t15.5 -12.5q17 -13 17 -31q0 -36 -51 -36q-88 0 -162 57q-41 31 -42 55q0 11 8.5 20.5t24.5 17t37.5 11.5t45.5 4z" />
    <glyph glyph-name="Aacute" unicode="&#xc1;" horiz-adv-x="840" 
d="M205 354q20 44 32.5 73.5t19.5 52t10 40.5t3 39q-2 54 17 81t67 40q-28 -21 -28 -46q0 -50 64 -50q61 0 118 28q29 -40 65 -105.5t84 -168.5l93 -198q13 -29 22.5 -37.5t26.5 -10.5q35 -5 35 -35q0 -35 -43 -51t-140 -16q-160 0 -192 19q-26 15 -26 40q0 15 7.5 22.5
t28.5 15.5q23 9 23 27q0 32 -40 38q-9 1 -22.5 2t-30 2t-33.5 1.5t-33 0.5q-39 0 -54.5 -1.5t-23.5 -6.5t-14 -17.5t-6 -24.5q0 -11 4.5 -14t27.5 -10q14 -5 22 -14.5t8 -21.5q0 -58 -141 -58q-34 0 -66 3t-49 8q-16 5 -25 17t-9 28q0 15 7.5 23.5t27.5 15.5q15 5 25.5 11
t20.5 18.5t21 33t27 55.5zM413 276q26 0 26 11q0 8 -9.5 29t-26.5 50q-17 30 -26 39.5t-19 9.5q-8 0 -14.5 -7.5t-14.5 -25.5l-19 -47.5t-10 -27t-4 -13t-1 -6.5q0 -12 22 -12h96zM478 763q25 0 46.5 -4.5t37 -12t24.5 -17t8 -20.5q-2 -23 -42 -54q-74 -57 -163 -57
q-50 0 -50 36q0 7 1.5 12t7 11t16.5 14.5t30 22.5q12 9 12 18q0 3 -0.5 5t-5.5 10q-2 4 -2 7q0 13 22.5 21t57.5 8z" />
    <glyph glyph-name="Acircumflex" unicode="&#xc2;" horiz-adv-x="840" 
d="M271 589q16 7 27.5 12t22.5 11q16 8 25.5 13t16 7.5t10.5 3t10 0.5q19 0 66 -22q18 -8 29 -13t18.5 -8t14 -4.5t15.5 -3.5q23 -32 56.5 -96t74.5 -151l93 -198q13 -29 22.5 -37.5t26.5 -10.5q35 -5 35 -35q0 -35 -43 -51t-140 -16q-160 0 -192 19q-26 15 -26 40
q0 15 7.5 22.5t28.5 15.5q23 9 23 27q0 32 -40 38q-9 1 -22.5 2t-30 2t-33.5 1.5t-33 0.5q-39 0 -54.5 -1.5t-23.5 -6.5t-14 -17.5t-6 -24.5q0 -11 4.5 -14t27.5 -10q14 -5 22 -14.5t8 -21.5q0 -58 -141 -58q-34 0 -66 3t-49 8q-16 5 -25 17t-9 28q0 15 7.5 23.5t27.5 15.5
q15 5 25.5 11t20.5 18.5t21 33t27 55.5l69 151q22 48 34.5 79t19.5 54.5t9 44t2 47.5zM413 276q26 0 26 11q0 8 -9.5 29t-26.5 50q-17 30 -26 39.5t-19 9.5q-8 0 -14.5 -7.5t-14.5 -25.5l-19 -47.5t-10 -27t-4 -13t-1 -6.5q0 -12 22 -12h96zM384 777q16 0 52.5 -20.5
t74.5 -49.5q34 -26 47 -42t13 -30q0 -15 -11 -26t-25 -11q-11 0 -27 6t-53 23q-49 23 -72 23q-7 0 -11.5 -0.5t-11.5 -3t-17 -8t-28 -14.5q-24 -13 -44 -20t-30 -7q-17 0 -27.5 11t-10.5 28t16 35.5t57 48.5q34 26 63.5 41.5t44.5 15.5z" />
    <glyph glyph-name="Atilde" unicode="&#xc3;" horiz-adv-x="840" 
d="M271 587q51 8 51 41q0 5 -1 7l-2 8q0 2 4 2q7 0 15 -3t25 -12q18 -9 38.5 -17.5t40 -15t37 -10.5t28.5 -4q4 0 8 0.5t11 1.5q24 -35 57.5 -98.5t73.5 -148.5l93 -198q13 -29 22.5 -37.5t26.5 -10.5q35 -5 35 -35q0 -35 -43 -51t-140 -16q-160 0 -192 19q-26 15 -26 40
q0 15 7.5 22.5t28.5 15.5q23 9 23 27q0 32 -40 38q-9 1 -22.5 2t-30 2t-33.5 1.5t-33 0.5q-39 0 -54.5 -1.5t-23.5 -6.5t-14 -17.5t-6 -24.5q0 -11 4.5 -14t27.5 -10q14 -5 22 -14.5t8 -21.5q0 -58 -141 -58q-34 0 -66 3t-49 8q-16 5 -25 17t-9 28q0 15 7.5 23.5t27.5 15.5
q15 5 25.5 11t20.5 18.5t21 33t27 55.5l69 151q22 48 34.5 78.5t19.5 54t9 43.5t2 47zM413 276q26 0 26 11q0 8 -9.5 29t-26.5 50q-17 30 -26 39.5t-19 9.5q-8 0 -14.5 -7.5t-14.5 -25.5l-19 -47.5t-10 -27t-4 -13t-1 -6.5q0 -12 22 -12h96zM484 732q-1 11 14.5 21.5
t32.5 10.5q29 0 47 -19.5t18 -51.5q0 -18 -7.5 -35.5t-20 -31t-28.5 -22t-32 -8.5q-21 0 -60 13t-78 33q-20 11 -29.5 14.5t-17.5 3.5q-5 0 -11 -4t-6 -7l2 -25q0 -3 -4 -7.5t-11 -8t-15 -6t-15 -2.5t-19 5.5t-20 11.5q-9 8 -14.5 24.5t-5.5 35.5q0 36 24 60t64 26
q10 0 16.5 -0.5t18 -4t31 -12t55.5 -23.5q8 -3 14.5 -5.5t7.5 -3.5q9 -3 14.5 -5t6.5 -2q12 -5 17 -5q4 0 8 4t4 8z" />
    <glyph glyph-name="Adieresis" unicode="&#xc4;" horiz-adv-x="840" 
d="M271 589q106 23 112 95q12 -1 17 -1.5t18 -3.5q-1 -5 -1 -8.5v-5.5q0 -32 25 -53.5t63 -21.5h7.5t9.5 1q23 -33 58 -97.5t77 -155.5l93 -198q13 -29 22.5 -37.5t26.5 -10.5q35 -5 35 -35q0 -35 -43 -51t-140 -16q-160 0 -192 19q-26 15 -26 40q0 15 7.5 22.5t28.5 15.5
q23 9 23 27q0 32 -40 38q-9 1 -22.5 2t-30 2t-33.5 1.5t-33 0.5q-39 0 -54.5 -1.5t-23.5 -6.5t-14 -17.5t-6 -24.5q0 -11 4.5 -14t27.5 -10q14 -5 22 -14.5t8 -21.5q0 -58 -141 -58q-34 0 -66 3t-49 8q-16 5 -25 17t-9 28q0 15 7.5 23.5t27.5 15.5q15 5 25.5 11t20.5 18.5
t21 33t27 55.5l69 151q22 48 34.5 79t19.5 54t9 44t2 48zM413 276q26 0 26 11q0 8 -9.5 29t-26.5 50q-17 30 -26 39.5t-19 9.5q-8 0 -14.5 -7.5t-14.5 -25.5l-19 -47.5t-10 -27t-4 -13t-1 -6.5q0 -12 22 -12h96zM291 757q37 0 58 -17.5t21 -47.5q0 -40 -35 -64
q-23 -14 -53 -23t-57 -9q-33 0 -53.5 18t-20.5 47q0 17 8.5 33t22.5 27q21 17 51 26.5t58 9.5zM571 764q37 0 58 -17.5t21 -47.5q0 -40 -35 -64q-23 -14 -53.5 -23t-56.5 -9q-34 0 -54.5 18t-20.5 47q0 17 8.5 33t22.5 27q21 17 51 26.5t59 9.5z" />
    <glyph glyph-name="Aring" unicode="&#xc5;" horiz-adv-x="840" 
d="M270 581q43 -27 118 -27q89 0 130 42q26 -35 61 -100t78 -158l93 -198q13 -29 22.5 -37.5t26.5 -10.5q35 -5 35 -35q0 -35 -43 -51t-140 -16q-160 0 -192 19q-26 15 -26 40q0 15 7.5 22.5t28.5 15.5q23 9 23 27q0 32 -40 38q-9 1 -22.5 2t-30 2t-33.5 1.5t-33 0.5
q-39 0 -54.5 -1.5t-23.5 -6.5t-14 -17.5t-6 -24.5q0 -11 4.5 -14t27.5 -10q14 -5 22 -14.5t8 -21.5q0 -58 -141 -58q-34 0 -66 3t-49 8q-16 5 -25 17t-9 28q0 15 7.5 23.5t27.5 15.5q15 5 25.5 11t20.5 18.5t21 33t27 55.5l69 151q21 46 34 77t19.5 54t9 42.5t2.5 43.5v10z
M413 276q26 0 26 11q0 8 -9.5 29t-26.5 50q-17 30 -26 39.5t-19 9.5q-8 0 -14.5 -7.5t-14.5 -25.5l-19 -47.5t-10 -27t-4 -13t-1 -6.5q0 -12 22 -12h96zM386 766q69 0 108 -25.5t39 -71.5q0 -48 -38 -74.5t-107 -26.5q-147 0 -147 97q0 48 38 74.5t107 26.5zM387 721
q-23 0 -35.5 -15t-12.5 -41q0 -23 13 -38t33 -15q23 0 36.5 15.5t13.5 40.5t-12.5 39t-35.5 14z" />
    <glyph glyph-name="AE" unicode="&#xc6;" horiz-adv-x="1042" 
d="M800 668q32 0 51 2.5t37 8.5q22 7 28 7q16 0 30 -11t25 -30t17.5 -44t6.5 -52q0 -29 -14.5 -48.5t-36.5 -19.5q-13 0 -23 7t-21 24q-14 20 -26.5 31.5t-27.5 16.5q-19 7 -47 10.5t-57 3.5q-28 0 -44.5 -2.5t-25.5 -9.5t-12 -20t-3 -35v-78q0 -14 2 -21.5t8.5 -12t19 -5.5
t34.5 -1q23 0 33 16q3 5 3.5 10t2.5 22q2 26 13.5 40.5t30.5 14.5q13 0 24.5 -7.5t16.5 -19.5q3 -8 6.5 -22t5.5 -31.5t3.5 -36t1.5 -36.5q0 -66 -17.5 -105.5t-47.5 -39.5q-25 0 -31 42q-5 33 -18 46t-44 13q-22 0 -31 -12t-9 -41q0 -17 1 -35.5t2.5 -35.5t3 -30t3.5 -19
q3 -8 8.5 -13t18.5 -8t34 -4t54 -1q35 0 60.5 8t47.5 26q14 11 22.5 23t20.5 38q10 22 21 31t26 9q22 0 35.5 -18t13.5 -47q0 -14 -3.5 -31t-9 -35.5t-13.5 -36.5t-17 -33q-15 -25 -25 -32.5t-28 -7.5q-12 0 -28 4l-16.5 3t-12.5 1l-22 1h-2l-437 -2q-56 -2 -56 41
q0 30 36 44q17 7 23 13.5t6 16.5q0 16 -13 22.5t-44 7.5h-19.5t-36.5 1h-13q-36 0 -50 -6t-14 -23q0 -10 5 -14.5t23 -14.5q31 -17 31 -42q0 -53 -143 -53q-77 0 -113.5 14.5t-36.5 44.5q0 17 9.5 26.5t34.5 18.5q14 5 21 11t20 24q39 58 70 108t63 109l103 189
q10 19 14.5 30t4.5 19l-1 28q0 31 31 47q7 3 12.5 5t15 3t26 1h45.5h324zM445 404q0 15 -0.5 21t-2.5 11q-4 14 -17 14q-9 0 -16 -7.5t-20 -29.5l-46 -84q-9 -16 -12 -24t-3 -16q0 -17 15 -23.5t54 -6.5q15 0 24 3t14.5 11.5t7.5 23.5t2 38v69z" />
    <glyph glyph-name="Ccedilla" unicode="&#xc7;" horiz-adv-x="708" 
d="M444 -8q-29 44 -85 44q-47 0 -74 -36q-42 12 -72 26.5t-58 35.5q-63 48 -100 120.5t-37 150.5q0 70 29.5 133t80 110.5t116.5 75.5t140 28q73 0 140 -31q11 -5 17.5 -8t11 -4.5t7.5 -2t7 -0.5q7 0 10.5 0.5t18.5 4.5q8 2 14 2q18 0 34 -13.5t29 -36.5t20.5 -53t7.5 -62
q0 -45 -24.5 -73t-65.5 -28q-24 0 -40 11t-31 38q-10 19 -18 32.5t-15.5 23t-15 16.5t-17.5 14q-23 16 -48 24.5t-51 8.5q-50 0 -79.5 -36.5t-29.5 -97.5q0 -59 22.5 -113.5t60.5 -89.5q23 -21 55.5 -32.5t69.5 -11.5q40 0 78 13.5t60 34.5q12 11 17.5 14.5t13.5 3.5
q17 0 29 -16t12 -38q0 -15 -4.5 -31.5t-12.5 -33t-18.5 -31t-22.5 -24.5q-4 -3 -6.5 -4.5t-6.5 -3t-11 -3t-19 -3.5q-7 -2 -11 -3t-9 -2.5t-11.5 -4.5t-17.5 -9q-23 -11 -43.5 -17.5t-46.5 -11.5zM360 23q37 0 62.5 -25.5t25.5 -62.5q0 -21 -9.5 -44t-24 -41.5t-32 -30.5
t-34.5 -12q-12 0 -21 7t-9 16q0 3 1.5 5.5t6.5 7.5q11 11 18.5 22.5t7.5 17.5q0 9 -11 13q-57 18 -57 63q0 27 22 45.5t54 18.5z" />
    <glyph glyph-name="Egrave" unicode="&#xc8;" horiz-adv-x="681" 
d="M175 667q36 -38 88.5 -60.5t107.5 -22.5q64 0 64 50q0 10 -3 16.5t-11 17.5q27 1 44 2t29.5 2.5t22.5 4t23 6.5q9 3 16 3q15 0 29 -11.5t24.5 -30t17 -43t6.5 -50.5q0 -32 -13.5 -50.5t-37.5 -18.5q-16 0 -24.5 7t-24.5 30q-11 16 -23.5 26.5t-30.5 17t-43 9t-60 2.5
q-30 0 -46.5 -4t-24.5 -13q-4 -4 -6.5 -10t-3.5 -17.5t-1.5 -31.5t-0.5 -52q0 -21 1 -32.5t7 -17.5t18 -7t34 -1t31 8t12 31q2 15 3.5 24.5t3.5 15.5t5 10t8 8q10 9 24 9q19 0 35 -19q10 -14 17 -50.5t7 -75.5q0 -35 -6.5 -69t-17.5 -57q-13 -27 -40 -27q-17 0 -23 8.5
t-10 35.5q-7 55 -64 55q-22 0 -30 -14t-8 -51q0 -18 1 -37t3 -35.5t4.5 -28.5t5.5 -16q5 -8 28 -12t61 -4q36 0 62.5 4.5t46.5 14.5t34 26.5t26 40.5q14 29 25 38.5t29 9.5q20 0 33.5 -18t13.5 -44q0 -15 -4 -34t-11.5 -39.5t-17 -40.5t-20.5 -37t-18.5 -22.5t-18.5 -5.5
q-4 0 -11 0.5t-15 2.5q-18 3 -41 5t-43 2h-414q-52 0 -52 42q0 14 5.5 20.5t27.5 16.5q14 6 21 15.5t12 27.5q16 71 16 198q0 91 -6.5 153t-17.5 85q-5 10 -10.5 14t-24.5 9q-28 9 -28 37q0 31 28 42q8 4 26 5.5t53 1.5h66zM283 762q35 0 57.5 -8t22.5 -21q0 -3 -0.5 -4.5
t-4.5 -8.5q-3 -5 -3 -9q0 -6 4.5 -11t19.5 -16q4 -3 10.5 -7.5t15.5 -12.5q17 -13 17 -31q0 -36 -51 -36q-88 0 -162 57q-41 31 -42 55q0 11 8.5 20.5t24.5 17t37.5 11.5t45.5 4z" />
    <glyph glyph-name="Eacute" unicode="&#xc9;" horiz-adv-x="681" 
d="M219 667q-7 -10 -9.5 -16.5t-2.5 -16.5q0 -50 64 -50q28 0 56 6t54 17.5t48.5 27t40.5 35.5q12 1 20 2t15 2t15 3t20 6q9 3 16 3q15 0 29 -11.5t24.5 -30t17 -43t6.5 -50.5q0 -32 -13.5 -50.5t-37.5 -18.5q-16 0 -24.5 7t-24.5 30q-11 16 -23.5 26.5t-30.5 17t-43 9
t-60 2.5q-30 0 -46.5 -4t-24.5 -13q-4 -4 -6.5 -10t-3.5 -17.5t-1.5 -31.5t-0.5 -52q0 -21 1 -32.5t7 -17.5t18 -7t34 -1t31 8t12 31q2 15 3.5 24.5t3.5 15.5t5 10t8 8q10 9 24 9q19 0 35 -19q10 -14 17 -50.5t7 -75.5q0 -35 -6.5 -69t-17.5 -57q-13 -27 -40 -27
q-17 0 -23 8.5t-10 35.5q-7 55 -64 55q-22 0 -30 -14t-8 -51q0 -18 1 -37t3 -35.5t4.5 -28.5t5.5 -16q5 -8 28 -12t61 -4q36 0 62.5 4.5t46.5 14.5t34 26.5t26 40.5q14 29 25 38.5t29 9.5q20 0 33.5 -18t13.5 -44q0 -15 -4 -34t-11.5 -39.5t-17 -40.5t-20.5 -37t-18.5 -22.5
t-18.5 -5.5q-4 0 -11 0.5t-15 2.5q-18 3 -41 5t-43 2h-414q-52 0 -52 42q0 14 5.5 20.5t27.5 16.5q14 6 21 15.5t12 27.5q16 71 16 198q0 91 -6.5 153t-17.5 85q-5 10 -10.5 14t-24.5 9q-28 9 -28 37q0 31 28 42q8 4 26 5.5t53 1.5h110zM359 763q25 0 46.5 -4.5t37 -12
t24.5 -17t8 -20.5q-2 -23 -42 -54q-74 -57 -163 -57q-50 0 -50 36q0 7 1.5 12t7 11t16.5 14.5t30 22.5q12 9 12 18q0 3 -0.5 5t-5.5 10q-2 4 -2 7q0 13 22.5 21t57.5 8z" />
    <glyph glyph-name="Ecircumflex" unicode="&#xca;" horiz-adv-x="681" 
d="M146 667q-5 -9 -7 -15.5t-2 -15.5q0 -23 14.5 -38t36.5 -15q8 0 16.5 2t21 7t30.5 14t44 23q6 4 14.5 6t15.5 2q19 0 66 -22q38 -19 55.5 -25t30.5 -6q20 0 34.5 15.5t14.5 35.5q0 17 -18 41l7 1l20 6q9 3 16 3q15 0 29 -11.5t24.5 -30t17 -43t6.5 -50.5
q0 -32 -13.5 -50.5t-37.5 -18.5q-16 0 -24.5 7t-24.5 30q-11 16 -23.5 26.5t-30.5 17t-43 9t-60 2.5q-30 0 -46.5 -4t-24.5 -13q-4 -4 -6.5 -10t-3.5 -17.5t-1.5 -31.5t-0.5 -52q0 -21 1 -32.5t7 -17.5t18 -7t34 -1t31 8t12 31q2 15 3.5 24.5t3.5 15.5t5 10t8 8q10 9 24 9
q19 0 35 -19q10 -14 17 -50.5t7 -75.5q0 -35 -6.5 -69t-17.5 -57q-13 -27 -40 -27q-17 0 -23 8.5t-10 35.5q-7 55 -64 55q-22 0 -30 -14t-8 -51q0 -18 1 -37t3 -35.5t4.5 -28.5t5.5 -16q5 -8 28 -12t61 -4q36 0 62.5 4.5t46.5 14.5t34 26.5t26 40.5q14 29 25 38.5t29 9.5
q20 0 33.5 -18t13.5 -44q0 -15 -4 -34t-11.5 -39.5t-17 -40.5t-20.5 -37t-18.5 -22.5t-18.5 -5.5q-4 0 -11 0.5t-15 2.5q-18 3 -41 5t-43 2h-414q-52 0 -52 42q0 14 5.5 20.5t27.5 16.5q14 6 21 15.5t12 27.5q16 71 16 198q0 91 -6.5 153t-17.5 85q-5 10 -10.5 14t-24.5 9
q-28 9 -28 37q0 31 28 42q8 4 26 5.5t53 1.5h37zM331 777q16 0 52.5 -20.5t74.5 -49.5q34 -26 47 -42t13 -30q0 -15 -11 -26t-25 -11q-11 0 -27 6t-53 23q-49 23 -72 23q-7 0 -11.5 -0.5t-11.5 -3t-17 -8t-28 -14.5q-24 -13 -44 -20t-30 -7q-17 0 -27.5 11t-10.5 28t16 35.5
t57 48.5q34 26 63.5 41.5t44.5 15.5z" />
    <glyph glyph-name="Edieresis" unicode="&#xcb;" horiz-adv-x="681" 
d="M351 667q2 -37 25 -57t62 -20q29 0 61 9t57 26q13 8 21 18t15 26q20 -21 30.5 -52t10.5 -66q0 -32 -13.5 -50.5t-37.5 -18.5q-16 0 -24.5 7t-24.5 30q-11 16 -23.5 26.5t-30.5 17t-43 9t-60 2.5q-30 0 -46.5 -4t-24.5 -13q-4 -4 -6.5 -10t-3.5 -17.5t-1.5 -31.5t-0.5 -52
q0 -21 1 -32.5t7 -17.5t18 -7t34 -1t31 8t12 31q2 15 3.5 24.5t3.5 15.5t5 10t8 8q10 9 24 9q19 0 35 -19q10 -14 17 -50.5t7 -75.5q0 -35 -6.5 -69t-17.5 -57q-13 -27 -40 -27q-17 0 -23 8.5t-10 35.5q-7 55 -64 55q-22 0 -30 -14t-8 -51q0 -18 1 -37t3 -35.5t4.5 -28.5
t5.5 -16q5 -8 28 -12t61 -4q36 0 62.5 4.5t46.5 14.5t34 26.5t26 40.5q14 29 25 38.5t29 9.5q20 0 33.5 -18t13.5 -44q0 -15 -4 -34t-11.5 -39.5t-17 -40.5t-20.5 -37t-18.5 -22.5t-18.5 -5.5q-4 0 -11 0.5t-15 2.5q-18 3 -41 5t-43 2h-414q-52 0 -52 42q0 14 5.5 20.5
t27.5 16.5q14 6 21 15.5t12 27.5q16 71 16 198q0 91 -6.5 153t-17.5 85q-5 10 -10.5 14t-24.5 9q-28 9 -28 37q0 31 27 42q7 3 15.5 4t27.5 2q-1 -2 -1 -4.5v-3.5q0 -32 25 -53.5t63 -21.5q29 0 60.5 9t56.5 26q14 9 22.5 20t15.5 29h37zM225 757q37 0 58 -17.5t21 -47.5
q0 -40 -35 -64q-23 -14 -53 -23t-57 -9q-33 0 -53.5 18t-20.5 47q0 17 8.5 33t22.5 27q21 17 51 26.5t58 9.5zM505 764q37 0 58 -17.5t21 -47.5q0 -40 -35 -64q-23 -14 -53.5 -23t-56.5 -9q-34 0 -54.5 18t-20.5 47q0 17 8.5 33t22.5 27q21 17 51 26.5t59 9.5z" />
    <glyph glyph-name="Igrave" unicode="&#xcc;" horiz-adv-x="394" 
d="M238 677q21 -1 43.5 -3.5t39.5 -5.5q66 -14 66 -56q0 -15 -6.5 -22t-33.5 -20q-11 -6 -18 -17t-11 -33t-5.5 -57.5t-1.5 -90.5q0 -91 2 -150.5t7 -81.5q3 -14 10.5 -22t24.5 -16t24.5 -18t7.5 -26q0 -15 -9 -26t-30 -19q-26 -11 -72 -17t-106 -6q-159 0 -159 60
q0 13 6.5 22t24.5 20q14 8 20 17t9 23q2 12 3.5 36t3 55.5t2 69t0.5 75.5q0 54 -1.5 88t-6.5 55t-14 33t-24 21q-20 13 -27 22t-7 23q0 21 25 35q80 -61 172 -61q64 0 64 50q0 13 -4.5 22t-18.5 21zM109 762q35 0 57.5 -8t22.5 -21q0 -3 -0.5 -4.5t-4.5 -8.5q-3 -5 -3 -9
q0 -6 4.5 -11t19.5 -16q4 -3 10.5 -7.5t15.5 -12.5q17 -13 17 -31q0 -36 -51 -36q-88 0 -162 57q-41 31 -42 55q0 11 8.5 20.5t24.5 17t37.5 11.5t45.5 4z" />
    <glyph glyph-name="Iacute" unicode="&#xcd;" horiz-adv-x="394" 
d="M352 659q35 -18 35 -48q0 -14 -7 -21t-33 -20q-11 -6 -18.5 -17t-11.5 -33t-5.5 -57.5t-1.5 -90.5q0 -93 2.5 -151t7.5 -81q3 -14 10 -21.5t25 -16.5q17 -8 24.5 -18t7.5 -26q0 -15 -9 -26t-30 -19q-26 -11 -72 -17t-106 -6q-160 0 -160 60q0 13 6.5 22t24.5 20
q14 8 20 17t9 23q2 12 3.5 36t3 55.5t2 69t0.5 75.5q0 54 -1.5 88t-6.5 55t-13.5 33t-23.5 21q-20 13 -27 22t-7 23q0 23 25.5 35.5t88.5 23.5q-15 -15 -15 -35q0 -50 65 -50q51 0 100.5 20t87.5 55zM251 763q25 0 46.5 -4.5t37.5 -12t25 -17t8 -20.5q-2 -23 -42 -54
q-74 -57 -163 -57q-50 0 -50 36q0 7 1.5 12t7 11t16.5 14.5t30 22.5q12 9 12 18q0 3 -1 5t-6 10q-2 4 -2 7q0 13 22.5 21t57.5 8z" />
    <glyph glyph-name="Icircumflex" unicode="&#xce;" horiz-adv-x="394" 
d="M387 611q1 -14 -7 -21.5t-33 -20.5q-11 -6 -18.5 -17t-11.5 -32.5t-5.5 -57.5t-1.5 -91q0 -92 2.5 -150t7.5 -81q3 -14 10 -22t25 -16q17 -8 24.5 -18t7.5 -26q0 -15 -9 -26t-30 -19q-26 -11 -72 -17t-106 -6q-160 0 -160 60q0 13 6.5 22t24.5 20q14 8 20 17t9 23
q2 12 3.5 36t3 55.5t2 69t0.5 75.5q0 54 -1.5 88t-6.5 55t-13.5 33t-23.5 21q-20 13 -27 21.5t-7 22.5v5q15 -31 47 -31q8 0 16.5 2t21 7t30.5 13.5t44 22.5q14 8 31 8q20 0 65 -22q38 -17 55.5 -23.5t31.5 -6.5q29 0 45 31v-4zM190 777q16 0 52.5 -20.5t74.5 -49.5
q34 -26 47 -42t13 -30q0 -15 -11 -26t-25 -11q-11 0 -27 6t-53 23q-49 23 -72 23q-7 0 -11.5 -0.5t-11.5 -3t-17 -8t-28 -14.5q-24 -13 -44 -20t-30 -7q-17 0 -27.5 11t-10.5 28t16 35.5t57 48.5q34 26 63.5 41.5t44.5 15.5z" />
    <glyph glyph-name="Idieresis" unicode="&#xcf;" horiz-adv-x="394" 
d="M182 617q29 -28 69 -28q35 0 69.5 12t60.5 33q4 -8 5 -12.5t1 -9.5q0 -15 -6.5 -22.5t-33.5 -20.5q-11 -6 -18 -17t-11 -32.5t-5.5 -57.5t-1.5 -91q0 -91 2 -150t7 -81q3 -14 10.5 -22t24.5 -16t24.5 -18t7.5 -26q0 -15 -9 -26t-30 -19q-26 -11 -72 -17t-106 -6
q-159 0 -159 60q0 13 6.5 22t24.5 20q14 8 20 17t9 23q2 12 3.5 36t3 55.5t2 69t0.5 75.5q0 54 -1.5 88t-6.5 55t-14 33t-24 21q-18 11 -24.5 18.5t-8.5 21.5q16 -12 30.5 -17t34.5 -5q29 0 59.5 8.5t56.5 25.5zM213 732q52 32 105 32q37 0 58 -17.5t21 -47.5q0 -40 -35 -64
q-23 -14 -53 -23t-58 -9q-36 0 -58 22q17 15 24 31t7 36q0 11 -2.5 20t-8.5 20zM131 757q37 0 58 -17.5t21 -47.5q0 -40 -35 -64q-23 -14 -53 -23t-57 -9q-33 0 -53.5 18t-20.5 47q0 17 8.5 33t22.5 27q21 17 51 26.5t58 9.5z" />
    <glyph glyph-name="Eth" unicode="&#xd0;" horiz-adv-x="792" 
d="M321 287v-136q0 -30 13 -43t45 -13q142 0 142 217q0 58 -8.5 105.5t-24.5 79.5q-38 73 -124 73q-23 0 -33 -9t-10 -32v-142h-230q1 20 1 36.5v21.5q1 23 1 39v22q0 19 -1.5 31.5t-5 20.5t-10.5 13t-19 9q-34 14 -34 44q0 24 23 37t65 13h14t18 -1q23 -1 36 -1h24h38.5
t35.5 1t38 1.5t46 2.5q9 1 21.5 1h23.5q88 0 145.5 -15t102.5 -50q58 -45 88.5 -114.5t30.5 -157.5q0 -78 -24.5 -142t-69 -109.5t-107.5 -70t-140 -24.5l-214 5h-35q-14 0 -33.5 -0.5t-35.5 -2.5q-11 -1 -20 -1.5t-13 -0.5q-33 0 -53.5 15t-20.5 40q0 17 9 26.5t30 15.5
q13 3 20.5 8t12 23.5t6.5 56.5t5 107h231zM401 374q18 0 25.5 -8t7.5 -28q0 -37 -31 -37l-363 -1q-19 0 -26 7.5t-7 28.5q0 20 7.5 29t27.5 9h359z" />
    <glyph glyph-name="Ntilde" unicode="&#xd1;" horiz-adv-x="817" 
d="M525 431q19 -17 30.5 -24t19.5 -7q12 0 18.5 14t6.5 38q0 32 -1.5 52.5t-5.5 34t-11.5 21t-19.5 13.5q-11 5 -14 7t-8 7q28 8 49 32.5t26 56.5q13 1 23.5 1h25.5q42 0 63.5 -2t38.5 -7q45 -14 45 -52q0 -31 -37 -47q-14 -6 -19.5 -11t-9.5 -15q-14 -39 -14 -122v-160
v-82.5v-45.5t-0.5 -24.5t-1.5 -19.5q-5 -51 -18 -75t-38 -24q-8 0 -13.5 1t-12.5 5t-15.5 11t-20.5 18l-290 260q-30 27 -50 27q-29 0 -29 -83q0 -34 1.5 -56t6 -36.5t11.5 -22.5t19 -14q18 -9 25 -18.5t7 -23.5q0 -33 -37 -50.5t-109 -17.5q-66 0 -102 17.5t-36 49.5
q0 16 6.5 24.5t31.5 22.5q24 14 28 48q1 13 2.5 33.5t3 45.5t2 51.5t0.5 51.5q0 27 -1 54.5t-3 52t-5 44.5t-6 32q-5 21 -13 31.5t-28 19.5q-22 11 -30.5 21t-8.5 25q0 17 13 31t36 21q21 6 48 8.5t78 2.5h19q0 -42 16 -62q9 -11 25 -19.5t30 -8.5q33 0 51 21zM492 732
q-1 11 14.5 21.5t32.5 10.5q29 0 47 -19.5t18 -51.5q0 -18 -7.5 -35.5t-20 -31t-28.5 -22t-32 -8.5q-21 0 -60 13t-78 33q-20 11 -29.5 14.5t-17.5 3.5q-5 0 -11.5 -4t-5.5 -7l3 -25q0 -3 -4 -7.5t-11 -8t-15 -6t-15 -2.5t-19 5.5t-20 11.5q-9 8 -14.5 24.5t-5.5 35.5
q0 36 24 60t63 26q10 0 16.5 -0.5t18 -4t31 -12t55.5 -23.5q8 -3 14.5 -5.5t7.5 -3.5q9 -3 14.5 -5t6.5 -2q12 -5 17 -5q4 0 8 4t4 8z" />
    <glyph glyph-name="Ograve" unicode="&#xd2;" horiz-adv-x="769" 
d="M411 680q48 -4 83 -13.5t70 -29.5q41 -23 75.5 -57t59 -75t38 -87.5t13.5 -92.5q0 -71 -29 -132.5t-79.5 -107t-118.5 -72t-146 -26.5q-77 0 -142.5 26.5t-113.5 73t-75.5 110.5t-27.5 138q0 100 49.5 180t139.5 126q78 -57 167 -57q64 0 64 50q0 14 -6 24.5t-21 21.5z
M342 540q-18 0 -33 -8t-26 -21.5t-17.5 -32t-6.5 -39.5q0 -28 6 -61t16.5 -67t25 -67.5t31.5 -61.5q15 -23 37.5 -37.5t45.5 -14.5q37 0 59.5 28t22.5 73q0 30 -5 62.5t-14 65t-21.5 62.5t-27.5 54q-19 29 -44.5 47t-48.5 18zM286 762q35 0 57.5 -8t22.5 -21q0 -3 -0.5 -4.5
t-4.5 -8.5q-3 -5 -3 -9q0 -6 4.5 -11t19.5 -16q4 -3 10.5 -7.5t15.5 -12.5q17 -13 17 -31q0 -36 -51 -36q-88 0 -162 57q-41 31 -42 55q0 11 8.5 20.5t24.5 17t37.5 11.5t45.5 4z" />
    <glyph glyph-name="Oacute" unicode="&#xd3;" horiz-adv-x="769" 
d="M525 656q49 -20 90.5 -54.5t71.5 -78t46.5 -94.5t16.5 -104q0 -71 -29 -132.5t-79.5 -107t-118.5 -72t-146 -26.5q-77 0 -142.5 26.5t-113.5 73t-75.5 110.5t-27.5 138q0 62 19.5 116.5t55 98.5t86 75t113.5 45q-9 -10 -12.5 -17.5t-3.5 -18.5q0 -50 65 -50q100 0 184 72
zM342 540q-18 0 -33 -8t-26 -21.5t-17.5 -32t-6.5 -39.5q0 -28 6 -61t16.5 -67t25 -67.5t31.5 -61.5q15 -23 37.5 -37.5t45.5 -14.5q37 0 59.5 28t22.5 73q0 30 -5 62.5t-14 65t-21.5 62.5t-27.5 54q-19 29 -44.5 47t-48.5 18zM429 763q25 0 46.5 -4.5t37 -12t24.5 -17
t8 -20.5q-2 -23 -42 -54q-74 -57 -163 -57q-50 0 -50 36q0 7 1.5 12t7 11t16.5 14.5t30 22.5q12 9 12 18q0 3 -0.5 5t-5.5 10q-2 4 -2 7q0 13 22.5 21t57.5 8z" />
    <glyph glyph-name="Ocircumflex" unicode="&#xd4;" horiz-adv-x="769" 
d="M568 635q41 -24 74.5 -58t57.5 -74.5t37 -86t13 -91.5q0 -71 -29 -132.5t-79.5 -107t-118.5 -72t-146 -26.5q-77 0 -142.5 26.5t-113.5 73t-75.5 110t-27.5 138.5q0 90 40.5 163.5t116.5 123.5q12 -39 49 -39q8 0 16.5 2t21 7t30.5 13.5t44 22.5q7 4 15.5 6t15.5 2
q19 0 66 -22q38 -17 55 -23.5t31 -6.5q20 0 33.5 14t15.5 37zM342 540q-18 0 -33 -8t-26 -21.5t-17.5 -32t-6.5 -39.5q0 -28 6 -61t16.5 -67t25 -67.5t31.5 -61.5q15 -23 37.5 -37.5t45.5 -14.5q37 0 59.5 28t22.5 73q0 30 -5 62.5t-14 65t-21.5 62.5t-27.5 54
q-19 29 -44.5 47t-48.5 18zM368 777q16 0 52 -20.5t74 -49.5q34 -26 47 -42t13 -30q0 -15 -10.5 -26t-24.5 -11q-12 0 -28 6t-53 23q-47 23 -71 23q-7 0 -12 -0.5t-11.5 -3t-17 -8t-28.5 -14.5q-23 -13 -43 -20t-30 -7q-17 0 -27.5 11t-10.5 28t16 35.5t56 48.5
q35 26 64.5 41.5t44.5 15.5z" />
    <glyph glyph-name="Otilde" unicode="&#xd5;" horiz-adv-x="769" 
d="M563 638q42 -23 76.5 -57.5t59 -76t38 -87.5t13.5 -92q0 -71 -29 -132.5t-79.5 -107t-118.5 -72t-146 -26.5q-77 0 -142.5 26.5t-113.5 73t-75.5 110t-27.5 138.5q0 89 40 162.5t116 124.5q9 -15 26 -25t33 -10q25 0 42 12t17 29q0 5 -1 7q-1 4 -1 8q0 2 4 2q7 0 15 -3
t25 -12q18 -10 38.5 -18.5t40 -15t36.5 -10t28 -3.5q54 0 86 55zM342 540q-18 0 -33 -8t-26 -21.5t-17.5 -32t-6.5 -39.5q0 -28 6 -61t16.5 -67t25 -67.5t31.5 -61.5q15 -23 37.5 -37.5t45.5 -14.5q37 0 59.5 28t22.5 73q0 30 -5 62.5t-14 65t-21.5 62.5t-27.5 54
q-19 29 -44.5 47t-48.5 18zM454 732q-1 11 14.5 21.5t32.5 10.5q29 0 47 -19.5t18 -51.5q0 -18 -7.5 -35.5t-20 -31t-28.5 -22t-32 -8.5q-21 0 -60 13t-78 33q-20 11 -29.5 14.5t-17.5 3.5q-5 0 -11.5 -4t-5.5 -7l3 -25q0 -3 -4 -7.5t-11 -8t-15 -6t-15 -2.5t-19 5.5
t-20 11.5q-9 8 -14.5 24.5t-5.5 35.5q0 36 24 60t63 26q10 0 16.5 -0.5t18 -4t31 -12t55.5 -23.5q8 -3 14.5 -5.5t7.5 -3.5q9 -3 14.5 -5t6.5 -2q12 -5 17 -5q4 0 8 4t4 8z" />
    <glyph glyph-name="Odieresis" unicode="&#xd6;" horiz-adv-x="769" 
d="M389 680q-1 -5 -1.5 -9.5t-0.5 -6.5q0 -32 25 -53t63 -21q29 0 58.5 8.5t55.5 23.5q37 -26 66.5 -59.5t50.5 -72t32.5 -80.5t11.5 -85q0 -71 -29 -132.5t-79.5 -107t-118.5 -72t-146 -26.5q-77 0 -142.5 26.5t-113.5 73t-75.5 110.5t-27.5 138q0 78 31 145t92 118
q25 -15 54 -15q40 0 80 15.5t59 37.5q8 11 12 20t7 23q12 1 18.5 1h17.5zM342 541q-18 0 -33 -8t-26 -21.5t-17.5 -32t-6.5 -40.5q0 -28 6 -61t16.5 -67t25 -67t31.5 -61q15 -24 37.5 -38.5t45.5 -14.5q37 0 59.5 28t22.5 73q0 30 -5 62.5t-14 65t-21.5 63t-27.5 54.5
q-19 29 -44.5 47t-48.5 18zM261 757q37 0 58 -17.5t21 -47.5q0 -40 -35 -64q-23 -14 -53 -23t-57 -9q-33 0 -53.5 18t-20.5 47q0 17 8.5 33t22.5 27q21 17 51 26.5t58 9.5zM541 764q37 0 58 -17.5t21 -47.5q0 -20 -9 -36.5t-26 -27.5q-23 -14 -53 -23t-57 -9q-33 0 -53.5 18
t-20.5 47q0 17 8.5 33t22.5 27q21 17 51 26.5t58 9.5z" />
    <glyph glyph-name="multiply" unicode="&#xd7;" 
d="M350 304q-9 -11 -9 -19q0 -9 9 -19l55 -55q17 -17 23 -22.5t11 -9.5q9 -7 12 -11t3 -10q0 -14 -28 -29q-53 -28 -72 -28q-5 0 -7.5 0.5t-6.5 4t-9.5 10.5t-14.5 19q-5 6 -12 14.5t-17 18.5l-18 17q-9 9 -19 9t-19 -9l-5 -5q-9 -10 -23.5 -25.5t-25.5 -29.5
q-9 -12 -16 -16.5t-16 -4.5q-5 0 -16.5 3.5t-24.5 9t-26 11.5t-22 12q-10 7 -10 18q0 6 3.5 10.5t11.5 12.5q9 7 16 13.5t14.5 13.5t17 16.5l23.5 23.5l19 18q8 8 8 19q0 9 -8 19l-19 19q-26 25 -41 39t-30 27q-8 8 -11.5 12.5t-3.5 10.5q0 11 13 20q10 6 23 12t25.5 11
t22.5 8t15 3q9 0 15.5 -4.5t16.5 -16.5q11 -13 25.5 -29.5t23.5 -25.5l5 -5q9 -9 19 -9t19 9l18 17q8 8 12.5 13t8.5 10t9 11.5t13 17.5q11 15 25 15q16 0 71 -28q28 -15 28 -29q0 -6 -3 -9.5t-12 -11.5q-5 -4 -11 -9.5t-23 -22.5z" />
    <glyph glyph-name="Oslash" unicode="&#xd8;" horiz-adv-x="769" 
d="M449 450q-48 90 -108 90q-17 0 -32 -8t-26 -21.5t-17.5 -32t-6.5 -39.5q0 -26 5.5 -56t18.5 -77l-201 -174q-32 47 -48 96.5t-16 106.5q0 74 28 137.5t77 109.5t116.5 72t146.5 26q69 0 126 -19.5t108 -61.5zM680 532q70 -100 70 -208q0 -70 -29 -131.5t-79.5 -107
t-118.5 -72t-146 -26.5q-66 0 -127 21t-109 60l176 152q25 -48 49 -69t55 -21q37 0 59.5 28t22.5 74q0 29 -4.5 60.5t-15.5 70.5zM692 643q6 6 15 6q5 0 10 -3t9 -7l7 -9q7 -9 7 -18t-9 -18l-657 -566q-9 -8 -15 -8q-10 0 -18 8l-11 12q-5 5 -5 15t10 18z" />
    <glyph glyph-name="Ugrave" unicode="&#xd9;" horiz-adv-x="808" 
d="M71 480q0 20 -1 33.5t-4.5 23t-10 16t-16.5 12.5q-32 21 -32 48q0 31 41 48q17 7 59 11.5t87 4.5h13t16 -1q12 -15 28.5 -29t36.5 -25t42 -19.5t43 -12.5q-7 -11 -13 -14l-12 -6l-14 -6q-15 -8 -20.5 -25t-5.5 -59v-40.5t-1 -28.5l-3 -116q-2 -76 37 -120t109 -44
q39 0 70.5 14t48.5 40q13 19 18 42t5 64v108q-1 60 -2 93t-5 50t-11.5 23t-20.5 12q-25 12 -34 21.5t-9 23.5q0 29 35.5 42t111.5 13q75 0 109 -13t34 -42q0 -14 -6 -21t-31 -21q-27 -16 -31 -38q-1 -5 -1.5 -15.5t-0.5 -23.5l-1 -80v-120q0 -52 -3.5 -89t-13 -64.5
t-25.5 -48.5t-40 -41q-44 -35 -108 -54t-139 -19q-77 0 -141 19t-110 56q-23 18 -38.5 38.5t-25 46.5t-13.5 60.5t-4 79.5v19.5t0.5 30.5t1 35t0.5 32zM339 762q35 0 57.5 -8t22.5 -21q0 -3 -0.5 -4.5t-4.5 -8.5q-3 -5 -3 -9q0 -6 4.5 -11t19.5 -16q4 -3 10.5 -7.5
t15.5 -12.5q17 -13 17 -31q0 -36 -51 -36q-88 0 -162 57q-41 31 -42 55q0 11 8.5 20.5t24.5 17t37.5 11.5t45.5 4z" />
    <glyph glyph-name="Uacute" unicode="&#xda;" horiz-adv-x="808" 
d="M592 399q-1 60 -2 93t-5 49.5t-11.5 23t-20.5 12.5q-14 7 -18.5 9.5t-12.5 8.5q38 11 74 34t55 48q80 0 114.5 -13t34.5 -42q0 -14 -6 -21t-31 -21q-27 -16 -31 -38q-1 -5 -1.5 -15.5t-0.5 -23.5l-1 -80v-120q0 -52 -3.5 -89t-13 -64.5t-25.5 -48.5t-40 -41
q-44 -35 -108 -54t-139 -19q-77 0 -141 19t-110 56q-23 18 -38.5 38.5t-25 46.5t-13.5 60.5t-4 79.5v19.5t0.5 30.5t1 35t0.5 32l1 76q0 20 -1 33.5t-4.5 23t-10 16t-16.5 12.5q-32 21 -32 48q0 31 41 48q17 7 59 11.5t87 4.5q35 0 72 -3.5t61 -8.5q24 -6 38 -19.5t14 -33.5
t-15 -33q-3 -2 -7 -4t-23 -11q-16 -9 -21 -25.5t-5 -58.5v-38.5t-1 -30.5l-3 -116q-2 -76 37 -120t109 -44q39 0 70.5 14t48.5 40q13 19 18 42t5 64v108zM535 763q25 0 46.5 -4.5t37 -12t24.5 -17t8 -20.5q-2 -23 -42 -54q-74 -57 -163 -57q-50 0 -50 36q0 7 1.5 12t7 11
t16.5 14.5t30 22.5q12 9 12 18q0 3 -0.5 5t-5.5 10q-2 4 -2 7q0 13 22.5 21t57.5 8z" />
    <glyph glyph-name="Ucircumflex" unicode="&#xdb;" horiz-adv-x="808" 
d="M71 480q0 20 -1 33.5t-4.5 23t-10 16t-16.5 12.5q-32 21 -32 48q0 31 41 48q8 3 23.5 6t35.5 5.5t42.5 3.5t45.5 1h25.5t33.5 -2q-8 -13 -11 -20.5t-3 -18.5q0 -23 14.5 -38t36.5 -15q26 0 88 34v-5q0 -9 -1.5 -15t-6 -11t-13.5 -10t-23 -12q-16 -8 -21.5 -25t-5.5 -59
v-40t-1 -29l-3 -116q-2 -76 37 -120t109 -44q39 0 70.5 14t48.5 40q13 19 18 42t5 64v108q-1 60 -2 93t-5 49.5t-11.5 23t-20.5 12.5q-21 10 -28.5 15.5t-12.5 15.5q30 -14 45.5 -19t27.5 -5q20 0 34.5 15.5t14.5 35.5q0 19 -19 41q11 1 21 1h22q75 0 108.5 -13t33.5 -42
q0 -14 -6 -21t-31 -21q-27 -16 -31 -38q-1 -5 -1.5 -15.5t-0.5 -23.5l-1 -80v-120q0 -52 -3.5 -89t-13 -64.5t-25.5 -48.5t-40 -41q-44 -35 -108 -54t-139 -19q-77 0 -141 19t-110 56q-23 18 -38.5 38.5t-25 46.5t-13.5 60.5t-4 79.5v19.5t0.5 30.5t1 35t0.5 32zM434 777
q16 0 52.5 -20.5t74.5 -49.5q34 -26 47 -42t13 -30q0 -15 -11 -26t-25 -11q-11 0 -27 6t-53 23q-49 23 -72 23q-7 0 -11.5 -0.5t-11.5 -3t-17 -8t-28 -14.5q-24 -13 -44 -20t-30 -7q-17 0 -27.5 11t-10.5 28t16 35.5t57 48.5q34 26 63.5 41.5t44.5 15.5z" />
    <glyph glyph-name="Udieresis" unicode="&#xdc;" horiz-adv-x="808" 
d="M71 480q0 20 -1 33.5t-4.5 22.5t-10 15.5t-16.5 13.5q-32 21 -32 48q0 19 16 33.5t43 19.5q10 2 18.5 3.5t19 2.5t24.5 2t34 2q-1 -6 -1 -10v-9q0 -32 25 -53t62 -21q35 0 69 11.5t60 32.5q1 -5 1.5 -9.5t0.5 -7.5q0 -18 -15 -31q-3 -2 -7 -4t-23 -11q-16 -9 -21 -25.5
t-5 -58.5v-38.5t-1 -30.5l-3 -116q-2 -76 37 -120t109 -44q39 0 70.5 14t48.5 40q13 19 18 42t5 64v108q-1 60 -2 93t-5 49.5t-11.5 23t-20.5 12.5l-24 13q61 2 103.5 26.5t50.5 60.5q62 -2 89.5 -15.5t27.5 -39.5q0 -14 -6 -21t-31 -21q-27 -16 -31 -38q-1 -5 -1.5 -15.5
t-0.5 -23.5l-1 -80v-120q0 -52 -3.5 -89t-13 -64.5t-25.5 -48.5t-40 -41q-44 -35 -108 -54t-139 -19q-77 0 -141 19t-110 56q-23 18 -38.5 38.5t-25 46.5t-13.5 60.5t-4 79.5v19.5t0.5 30.5t1 35t0.5 32zM314 757q37 0 58 -17.5t21 -47.5q0 -40 -35 -64q-23 -14 -53 -23
t-57 -9q-33 0 -53.5 18t-20.5 47q0 17 8.5 33t22.5 27q21 17 51 26.5t58 9.5zM594 764q37 0 58 -17.5t21 -47.5q0 -20 -9 -36.5t-26 -27.5q-23 -14 -53 -23t-57 -9q-33 0 -53.5 18t-20.5 47q0 17 8.5 33t22.5 27q21 17 51 26.5t58 9.5z" />
    <glyph glyph-name="Yacute" unicode="&#xdd;" horiz-adv-x="794" 
d="M650 677q51 0 75 -2.5t36 -10.5q26 -16 26 -43q0 -20 -12.5 -30.5t-42.5 -15.5q-14 -3 -24.5 -7t-23.5 -14t-30.5 -28t-44.5 -47q-34 -36 -53.5 -60t-30 -45.5t-13.5 -44.5t-3 -57q0 -8 0.5 -23t1 -31t1.5 -30.5t1 -20.5q3 -30 10 -42t28 -22q20 -10 28 -21t8 -26
q0 -66 -196 -66q-54 0 -103.5 6.5t-75.5 17.5q-34 13 -34 43q0 31 37 44q16 6 23 11.5t12 13.5q15 34 15 159q0 20 -1.5 34.5t-6 27t-13 25.5t-21.5 30q-28 36 -56 68.5t-58 61.5q-14 14 -24.5 21.5t-24.5 12.5q-24 9 -29.5 11t-10.5 7q-13 12 -13 31q0 33 50 47.5t166 14.5
q103 0 151 -12q-7 -9 -9 -15.5t-2 -15.5q0 -36 39 -48q-11 -11 -11 -21q0 -17 28 -56q18 -25 34 -25q11 0 21 7.5t25 27.5q11 14 15 21.5t4 15.5q0 9 -4.5 17t-15.5 21q19 5 38.5 14t37.5 20t33 24t24 25h19zM515 763q25 0 46.5 -4.5t37 -12t24.5 -17t8 -20.5
q-2 -23 -42 -54q-74 -57 -163 -57q-50 0 -50 36q0 7 1.5 12t7 11t16.5 14.5t30 22.5q12 9 12 18q0 3 -0.5 5t-5.5 10q-2 4 -2 7q0 13 22.5 21t57.5 8z" />
    <glyph glyph-name="Thorn" unicode="&#xde;" horiz-adv-x="667" 
d="M88 487q0 25 -1.5 39.5t-6 23.5t-13 13.5t-23.5 8.5q-44 12 -44 44q0 22 19 34t54 12h8.5t11.5 -1q29 -1 53 -1.5t58 -0.5h14.5t14 0.5t17.5 1t25 1.5h11q14 0 19 -4.5t5 -16.5q0 -4 -0.5 -13t-1.5 -20q-1 -8 -1 -16v-14q0 -33 11 -33q3 0 7 1l24 6q18 5 30.5 6.5
t29.5 1.5q55 0 100.5 -15t78.5 -41.5t51 -64t18 -82.5t-18.5 -82.5t-52 -65t-79 -43t-99.5 -15.5q-5 0 -16 0.5t-23.5 1t-25.5 1.5t-21 2h-3q-14 0 -14 -19q0 -8 1 -13t5.5 -9.5t13 -10t23.5 -13.5q31 -17 31 -37q0 -31 -47 -47.5t-132 -16.5q-88 0 -134.5 16t-46.5 45
q0 15 8 23.5t36 22.5q10 5 16 15.5t7 24.5q1 5 1 15t1 25v53v257zM308 289q0 -11 1 -14.5t5 -6.5q5 -3 16 -5.5t22 -2.5q40 0 63 25t23 69q0 46 -25.5 73t-68.5 27q-36 0 -36 -19v-146z" />
    <glyph glyph-name="germandbls" unicode="&#xdf;" horiz-adv-x="641" 
d="M67 363q0 66 14.5 114t44.5 84q39 45 100.5 69.5t133.5 24.5q73 0 114 -32q22 -17 34 -41.5t12 -50.5q0 -9 -1 -16t-3.5 -14t-7.5 -15.5t-14 -21.5q-3 -5 -3 -12q0 -10 8 -25.5t28 -44.5q30 -45 50 -78.5t32 -61t16.5 -51.5t4.5 -50q0 -68 -44.5 -109.5t-117.5 -41.5
q-59 0 -95 39q-9 11 -16 24.5t-7 21.5q0 6 4 9.5t16 8.5q18 7 27.5 21t9.5 32q0 20 -9 42t-32 59q-21 34 -32.5 54t-17.5 33t-7.5 22t-1.5 21q0 16 5 31.5t13 28.5q4 6 7.5 10.5t9 9.5t15 13t25.5 22q11 9 15 16t4 16q0 15 -11.5 24t-30.5 9q-20 0 -38 -12t-29 -34
q-14 -27 -20 -62t-6 -95v-33t1 -30t2.5 -44t4.5 -75q2 -30 7 -46t19 -29q18 -17 21.5 -22.5t3.5 -17.5q0 -32 -47 -49.5t-132 -17.5q-139 0 -139 59q0 7 1 11.5t4.5 9t11 10.5t20.5 16q13 9 18 28t5 54v185z" />
    <glyph glyph-name="agrave" unicode="&#xe0;" horiz-adv-x="558" 
d="M494 238q0 -48 3.5 -72t13.5 -36q4 -5 7.5 -6.5t17.5 -3.5q15 -3 15 -20q0 -21 -12.5 -41t-33 -36t-46.5 -26t-52 -10q-50 0 -81 35q-10 13 -19 13q-6 0 -10.5 -2t-15.5 -10q-50 -36 -110 -36q-65 0 -104 27q-26 18 -41 47t-15 61q0 42 28 76.5t80 55.5q27 11 54.5 15
t69.5 5q29 0 36 5.5t7 25.5q0 51 -11 74.5t-35 23.5q-14 0 -25.5 -9t-28.5 -32q-23 -32 -44.5 -46.5t-46.5 -14.5q-24 0 -39 14t-15 37q0 25 22 49t57.5 43t81 30.5t93.5 11.5q42 0 78.5 -11t65.5 -32q16 -11 26.5 -23.5t17 -28.5t9.5 -36t3 -46zM262 204q-21 0 -37 -17.5
t-16 -41.5t11.5 -38.5t29.5 -14.5q39 0 39 66q0 26 -5.5 36t-21.5 10zM231 698q35 0 57.5 -8t22.5 -21q0 -3 -0.5 -4.5t-4.5 -8.5q-3 -5 -3 -9q0 -6 4.5 -11t19.5 -16q4 -3 10.5 -7.5t15.5 -12.5q17 -13 17 -31q0 -36 -51 -36q-88 0 -162 57q-41 31 -42 55q0 11 8.5 20.5
t24.5 17t37.5 11.5t45.5 4z" />
    <glyph glyph-name="aacute" unicode="&#xe1;" horiz-adv-x="558" 
d="M494 238q0 -48 3.5 -72t13.5 -36q4 -5 7.5 -6.5t17.5 -3.5q15 -3 15 -20q0 -21 -12.5 -41t-33 -36t-46.5 -26t-52 -10q-50 0 -81 35q-10 13 -19 13q-6 0 -10.5 -2t-15.5 -10q-50 -36 -110 -36q-65 0 -104 27q-26 18 -41 47t-15 61q0 42 28 76.5t80 55.5q27 11 54.5 15
t69.5 5q29 0 36 5.5t7 25.5q0 51 -11 74.5t-35 23.5q-14 0 -25.5 -9t-28.5 -32q-23 -32 -44.5 -46.5t-46.5 -14.5q-24 0 -39 14t-15 37q0 25 22 49t57.5 43t81 30.5t93.5 11.5q42 0 78.5 -11t65.5 -32q16 -11 26.5 -23.5t17 -28.5t9.5 -36t3 -46zM262 204q-21 0 -37 -17.5
t-16 -41.5t11.5 -38.5t29.5 -14.5q39 0 39 66q0 26 -5.5 36t-21.5 10zM326 698q25 0 46.5 -4.5t37 -12t24.5 -17t8 -20.5q-2 -23 -42 -54q-74 -57 -163 -57q-50 0 -50 36q0 7 1.5 12t7 11t16.5 14.5t30 22.5q12 9 12 18q0 3 -0.5 5t-5.5 10q-2 4 -2 7q0 13 22.5 21t57.5 8z
" />
    <glyph glyph-name="acircumflex" unicode="&#xe2;" horiz-adv-x="558" 
d="M494 238q0 -48 3.5 -72t13.5 -36q4 -5 7.5 -6.5t17.5 -3.5q15 -3 15 -20q0 -21 -12.5 -41t-33 -36t-46.5 -26t-52 -10q-50 0 -81 35q-10 13 -19 13q-6 0 -10.5 -2t-15.5 -10q-50 -36 -110 -36q-65 0 -104 27q-26 18 -41 47t-15 61q0 42 28 76.5t80 55.5q27 11 54.5 15
t69.5 5q29 0 36 5.5t7 25.5q0 51 -11 74.5t-35 23.5q-14 0 -25.5 -9t-28.5 -32q-23 -32 -44.5 -46.5t-46.5 -14.5q-24 0 -39 14t-15 37q0 25 22 49t57.5 43t81 30.5t93.5 11.5q42 0 78.5 -11t65.5 -32q16 -11 26.5 -23.5t17 -28.5t9.5 -36t3 -46zM262 204q-21 0 -37 -17.5
t-16 -41.5t11.5 -38.5t29.5 -14.5q39 0 39 66q0 26 -5.5 36t-21.5 10zM278 714q16 0 52.5 -20.5t74.5 -50.5q34 -26 47 -42t13 -30t-11 -25.5t-25 -11.5q-11 0 -29 6.5t-51 23.5q-9 4 -20 8.5t-21 8t-18.5 6t-11.5 2.5q-9 0 -24.5 -6.5t-44.5 -21.5q-23 -13 -43.5 -20.5
t-30.5 -7.5q-17 0 -27.5 11t-10.5 28t16 36t57 49q34 26 63.5 41.5t44.5 15.5z" />
    <glyph glyph-name="atilde" unicode="&#xe3;" horiz-adv-x="558" 
d="M494 238q0 -48 3.5 -72t13.5 -36q4 -5 7.5 -6.5t17.5 -3.5q15 -3 15 -20q0 -21 -12.5 -41t-33 -36t-46.5 -26t-52 -10q-50 0 -81 35q-10 13 -19 13q-6 0 -10.5 -2t-15.5 -10q-50 -36 -110 -36q-65 0 -104 27q-26 18 -41 47t-15 61q0 42 28 76.5t80 55.5q27 11 54.5 15
t69.5 5q29 0 36 5.5t7 25.5q0 51 -11 74.5t-35 23.5q-14 0 -25.5 -9t-28.5 -32q-23 -32 -44.5 -46.5t-46.5 -14.5q-24 0 -39 14t-15 37q0 25 22 49t57.5 43t81 30.5t93.5 11.5q42 0 78.5 -11t65.5 -32q16 -11 26.5 -23.5t17 -28.5t9.5 -36t3 -46zM262 204q-21 0 -37 -17.5
t-16 -41.5t11.5 -38.5t29.5 -14.5q39 0 39 66q0 26 -5.5 36t-21.5 10zM191 575q0 -17 -13 -27.5t-35 -10.5q-24 0 -39.5 16t-15.5 42q0 44 26 71.5t68 27.5q13 0 23.5 -1.5t23.5 -6t31.5 -13t47.5 -22.5q11 -6 23 -10t19 -4q12 0 15 19q2 17 3 20t5 7q6 7 16.5 10.5
t22.5 3.5q30 0 46.5 -17t16.5 -47q0 -43 -24.5 -68.5t-65.5 -25.5q-20 0 -38 5t-49 19l-47 20q-11 5 -20.5 9t-11.5 5q-12 5 -17 5q-11 0 -11 -13v-14z" />
    <glyph glyph-name="adieresis" unicode="&#xe4;" horiz-adv-x="558" 
d="M494 238q0 -48 3.5 -72t13.5 -36q4 -5 7.5 -6.5t17.5 -3.5q15 -3 15 -20q0 -21 -12.5 -41t-33 -36t-46.5 -26t-52 -10q-50 0 -81 35q-10 13 -19 13q-6 0 -10.5 -2t-15.5 -10q-50 -36 -110 -36q-65 0 -104 27q-26 18 -41 47t-15 61q0 42 28 76.5t80 55.5q27 11 54.5 15
t69.5 5q29 0 36 5.5t7 25.5q0 51 -11 74.5t-35 23.5q-14 0 -25.5 -9t-28.5 -32q-23 -32 -44.5 -46.5t-46.5 -14.5q-24 0 -39 14t-15 37q0 25 22 49t57.5 43t81 30.5t93.5 11.5q42 0 78.5 -11t65.5 -32q16 -11 26.5 -23.5t17 -28.5t9.5 -36t3 -46zM262 204q-21 0 -37 -17.5
t-16 -41.5t11.5 -38.5t29.5 -14.5q39 0 39 66q0 26 -5.5 36t-21.5 10zM173 701q38 0 60 -18t22 -49q0 -19 -9.5 -35t-26.5 -28t-40 -19t-50 -7q-32 0 -52.5 19t-20.5 50q0 41 31.5 64t85.5 23zM425 699q38 0 60 -17.5t22 -49.5q0 -19 -9.5 -35t-26.5 -28t-40 -19t-50 -7
q-32 0 -52.5 19t-20.5 50q0 41 31.5 64t85.5 23z" />
    <glyph glyph-name="aring" unicode="&#xe5;" horiz-adv-x="558" 
d="M494 238q0 -48 3.5 -72t13.5 -36q4 -5 7.5 -6.5t17.5 -3.5q15 -3 15 -20q0 -21 -12.5 -41t-33 -36t-46.5 -26t-52 -10q-50 0 -81 35q-10 13 -19 13q-6 0 -10.5 -2t-15.5 -10q-50 -36 -110 -36q-65 0 -104 27q-26 18 -41 47t-15 61q0 42 28 76.5t80 55.5q27 11 54.5 15
t69.5 5q29 0 36 5.5t7 25.5q0 51 -11 74.5t-35 23.5q-14 0 -25.5 -9t-28.5 -32q-23 -32 -44.5 -46.5t-46.5 -14.5q-24 0 -39 14t-15 37q0 25 22 49t57.5 43t81 30.5t93.5 11.5q42 0 78.5 -11t65.5 -32q16 -11 26.5 -23.5t17 -28.5t9.5 -36t3 -46zM262 204q-21 0 -37 -17.5
t-16 -41.5t11.5 -38.5t29.5 -14.5q39 0 39 66q0 26 -5.5 36t-21.5 10zM280 732q69 0 108 -25.5t39 -71.5q0 -48 -38 -74.5t-107 -26.5q-147 0 -147 97q0 48 38 74.5t107 26.5zM281 687q-23 0 -35.5 -15t-12.5 -41q0 -23 13 -38t33 -15q23 0 36.5 15.5t13.5 40.5t-12.5 39
t-35.5 14z" />
    <glyph glyph-name="ae" unicode="&#xe6;" horiz-adv-x="801" 
d="M510 229q-11 0 -14 -2.5t-3 -11.5q0 -17 9.5 -33.5t25 -29t35 -20.5t39.5 -8q24 0 54 10t50 24q12 8 16 10t9 2q6 0 12.5 -5.5t12 -13.5t9.5 -17t4 -17q0 -23 -20.5 -46t-53.5 -42t-73.5 -30.5t-80.5 -11.5q-42 0 -84 13.5t-71 36.5q-11 8 -15 8q-3 0 -16 -6
q-21 -11 -46 -20.5t-50 -16.5t-49 -11t-42 -4q-72 0 -114.5 35t-42.5 95q0 43 23 76.5t67 54.5q16 8 29 13t29 8t38.5 5t58.5 4q15 1 20 7.5t5 26.5q0 45 -12 70t-34 25q-14 0 -27.5 -10t-31.5 -36q-23 -32 -42.5 -46t-43.5 -14q-23 0 -39 14.5t-16 35.5q0 25 21.5 49.5
t57 44t81 31t93.5 11.5q28 0 61 -6.5t52 -14.5q10 -5 14 -5q5 0 15 5q21 8 56.5 14t65.5 6q48 0 90 -15t73.5 -41t50 -61t18.5 -74q0 -32 -14 -51q-7 -9 -15 -12t-27 -3h-218zM577 319q14 0 19 5.5t5 20.5q0 26 -15.5 42.5t-38.5 16.5q-24 0 -41.5 -18t-17.5 -44
q0 -14 5.5 -18.5t22.5 -4.5h61zM261 208q-22 0 -37 -17t-15 -43q0 -22 11.5 -37.5t28.5 -15.5q38 0 38 64q0 30 -5 39.5t-21 9.5z" />
    <glyph glyph-name="ccedilla" unicode="&#xe7;" horiz-adv-x="519" 
d="M351 -6q-32 42 -84 42q-46 0 -76 -37q-39 13 -71.5 36t-55.5 54t-35.5 68t-12.5 78q0 53 21 99t58.5 79.5t88 53t109.5 19.5q46 0 86.5 -11.5t70 -31t46.5 -46.5t17 -58q0 -40 -27 -66.5t-68 -26.5t-61 29l-4 6t-4 7.5t-4.5 12.5t-6.5 21q-14 41 -51 41
q-26 0 -44.5 -23.5t-18.5 -57.5q0 -29 10 -54.5t27.5 -44.5t41 -30t49.5 -11q12 0 22 1t19 3t19.5 6.5l24.5 10.5q5 4 15 4q17 0 29.5 -16t12.5 -37q0 -18 -11 -36.5t-30.5 -34.5t-45.5 -29t-56 -20zM268 23q37 0 62.5 -25.5t25.5 -62.5q0 -21 -9.5 -44t-24 -41.5t-32 -30.5
t-34.5 -12q-12 0 -21 7t-9 16q0 3 1.5 5.5t6.5 7.5q11 11 18.5 22.5t7.5 17.5q0 9 -11 13q-57 18 -57 63q0 27 22 45.5t54 18.5z" />
    <glyph glyph-name="egrave" unicode="&#xe8;" horiz-adv-x="532" 
d="M240 219q-15 0 -15 -13q0 -16 9.5 -32t25 -28.5t34.5 -20t39 -7.5q24 0 52 8.5t47 22.5q11 8 16 10t11 2q13 0 25 -15.5t12 -32.5q0 -23 -19.5 -45.5t-51 -40.5t-71.5 -29t-81 -11q-55 0 -102 19t-81.5 52t-54 78t-19.5 98q0 52 21 98t57 80.5t84.5 54t104.5 19.5
q93 0 157 -52q35 -28 55.5 -67t20.5 -76q0 -32 -13 -52t-34 -20h-229zM302 310q31 0 31 28q0 26 -15.5 43t-39.5 17q-23 0 -40 -18.5t-17 -43.5q0 -14 7 -20t24 -6h50zM227 698q35 0 57.5 -8t22.5 -21q0 -3 -0.5 -4.5t-4.5 -8.5q-3 -5 -3 -9q0 -6 4.5 -11t19.5 -16
q4 -3 10.5 -7.5t15.5 -12.5q17 -13 17 -31q0 -36 -51 -36q-88 0 -162 57q-41 31 -42 55q0 11 8.5 20.5t24.5 17t37.5 11.5t45.5 4z" />
    <glyph glyph-name="eacute" unicode="&#xe9;" horiz-adv-x="532" 
d="M240 219q-15 0 -15 -13q0 -16 9.5 -32t25 -28.5t34.5 -20t39 -7.5q24 0 52 8.5t47 22.5q11 8 16 10t11 2q13 0 25 -15.5t12 -32.5q0 -23 -19.5 -45.5t-51 -40.5t-71.5 -29t-81 -11q-55 0 -102 19t-81.5 52t-54 78t-19.5 98q0 52 21 98t57 80.5t84.5 54t104.5 19.5
q93 0 157 -52q35 -28 55.5 -67t20.5 -76q0 -32 -13 -52t-34 -20h-229zM302 310q31 0 31 28q0 26 -15.5 43t-39.5 17q-23 0 -40 -18.5t-17 -43.5q0 -14 7 -20t24 -6h50zM329 698q25 0 46.5 -4.5t37 -12t24.5 -17t8 -20.5q-2 -23 -42 -54q-74 -57 -163 -57q-50 0 -50 36
q0 7 1.5 12t7 11t16.5 14.5t30 22.5q12 9 12 18q0 3 -0.5 5t-5.5 10q-2 4 -2 7q0 13 22.5 21t57.5 8z" />
    <glyph glyph-name="ecircumflex" unicode="&#xea;" horiz-adv-x="532" 
d="M240 219q-15 0 -15 -13q0 -16 9.5 -32t25 -28.5t34.5 -20t39 -7.5q24 0 52 8.5t47 22.5q11 8 16 10t11 2q13 0 25 -15.5t12 -32.5q0 -23 -19.5 -45.5t-51 -40.5t-71.5 -29t-81 -11q-55 0 -102 19t-81.5 52t-54 78t-19.5 98q0 52 21 98t57 80.5t84.5 54t104.5 19.5
q93 0 157 -52q35 -28 55.5 -67t20.5 -76q0 -32 -13 -52t-34 -20h-229zM302 310q31 0 31 28q0 26 -15.5 43t-39.5 17q-23 0 -40 -18.5t-17 -43.5q0 -14 7 -20t24 -6h50zM288 714q16 0 52.5 -20.5t74.5 -50.5q34 -26 47 -42t13 -30t-11 -25.5t-25 -11.5q-11 0 -29 6.5
t-51 23.5q-9 4 -20 8.5t-21 8t-18.5 6t-11.5 2.5q-9 0 -24.5 -6.5t-44.5 -21.5q-23 -13 -43.5 -20.5t-30.5 -7.5q-17 0 -27.5 11t-10.5 28t16 36t57 49q34 26 63.5 41.5t44.5 15.5z" />
    <glyph glyph-name="edieresis" unicode="&#xeb;" horiz-adv-x="532" 
d="M240 219q-15 0 -15 -13q0 -16 9.5 -32t25 -28.5t34.5 -20t39 -7.5q24 0 52 8.5t47 22.5q11 8 16 10t11 2q13 0 25 -15.5t12 -32.5q0 -23 -19.5 -45.5t-51 -40.5t-71.5 -29t-81 -11q-55 0 -102 19t-81.5 52t-54 78t-19.5 98q0 52 21 98t57 80.5t84.5 54t104.5 19.5
q93 0 157 -52q35 -28 55.5 -67t20.5 -76q0 -32 -13 -52t-34 -20h-229zM302 310q31 0 31 28q0 26 -15.5 43t-39.5 17q-23 0 -40 -18.5t-17 -43.5q0 -14 7 -20t24 -6h50zM186 701q38 0 60 -18t22 -49q0 -19 -9.5 -35t-26.5 -28t-40 -19t-50 -7q-32 0 -52.5 19t-20.5 50
q0 41 31.5 64t85.5 23zM438 699q38 0 60 -17.5t22 -49.5q0 -19 -9.5 -35t-26.5 -28t-40 -19t-50 -7q-32 0 -52.5 19t-20.5 50q0 41 31.5 64t85.5 23z" />
    <glyph glyph-name="igrave" unicode="&#xec;" horiz-adv-x="347" 
d="M286 169q0 -34 6 -49.5t25 -28.5q15 -11 20 -19t5 -19q0 -63 -160 -63q-18 0 -37.5 1t-38.5 3t-35 4.5t-26 5.5q-17 5 -27.5 17t-10.5 28q0 6 1 11t4.5 9.5t10 10t17.5 13.5q16 11 22 36t6 76q0 15 -0.5 34.5t-1.5 37t-2.5 31t-2.5 16.5q-3 8 -8.5 13t-17.5 10
q-17 8 -23.5 17t-6.5 23q0 30 40 46q27 10 57.5 19t60 16t54.5 11t42 4q27 0 27 -31v-283zM119 698q35 0 57.5 -8t22.5 -21q0 -3 -0.5 -4.5t-4.5 -8.5q-3 -5 -3 -9q0 -6 4.5 -11t19.5 -16q4 -3 10.5 -7.5t15.5 -12.5q17 -13 17 -31q0 -36 -51 -36q-88 0 -162 57
q-41 31 -42 55q0 11 8.5 20.5t24.5 17t37.5 11.5t45.5 4z" />
    <glyph glyph-name="iacute" unicode="&#xed;" horiz-adv-x="347" 
d="M285 169q0 -34 6 -49.5t25 -28.5q15 -11 20 -19t5 -19q0 -63 -160 -63q-18 0 -37.5 1t-38.5 3t-35 4.5t-26 5.5q-17 5 -27.5 17t-10.5 28q0 6 1 11t4.5 9.5t10 10t17.5 13.5q16 11 22 36t6 76q0 15 -0.5 34.5t-1.5 37t-2.5 31t-2.5 16.5q-3 8 -8.5 13t-17.5 10
q-17 8 -23.5 17t-6.5 23q0 30 40 46q27 10 57.5 19t60 16t54.5 11t42 4q27 0 27 -31v-283zM214 698q25 0 46.5 -4.5t37 -12t24.5 -17t8 -20.5q-2 -23 -42 -54q-74 -57 -163 -57q-50 0 -50 36q0 7 1.5 12t7 11t16.5 14.5t30 22.5q12 9 12 18q0 3 -0.5 5t-5.5 10q-2 4 -2 7
q0 13 22.5 21t57.5 8z" />
    <glyph glyph-name="icircumflex" unicode="&#xee;" horiz-adv-x="347" 
d="M286 169q0 -34 6 -49.5t25 -28.5q15 -11 20 -19t5 -19q0 -63 -160 -63q-18 0 -37.5 1t-38.5 3t-35 4.5t-26 5.5q-17 5 -27.5 17t-10.5 28q0 6 1 11t4.5 9.5t10 10t17.5 13.5q16 11 22 36t6 76q0 15 -0.5 34.5t-1.5 37t-2.5 31t-2.5 16.5q-3 8 -8.5 13t-17.5 10
q-17 8 -23.5 17t-6.5 23q0 30 40 46q27 10 57.5 19t60 16t54.5 11t42 4q27 0 27 -31v-283zM157 714q7 0 20 -5.5t28.5 -15t33.5 -22.5t35 -28q32 -26 44 -42t12 -30q0 -15 -9 -26t-20 -11t-28 6.5t-49 23.5q-9 4 -19 8.5t-20 8t-17.5 6t-10.5 2.5q-9 0 -24 -6.5t-42 -21.5
q-22 -13 -41.5 -20.5t-28.5 -7.5q-14 0 -23 11t-9 28t15 36t52 49q32 26 59.5 41.5t41.5 15.5z" />
    <glyph glyph-name="idieresis" unicode="&#xef;" horiz-adv-x="347" 
d="M286 169q0 -34 6 -49.5t25 -28.5q15 -11 20 -19t5 -19q0 -63 -160 -63q-18 0 -37.5 1t-38.5 3t-35 4.5t-26 5.5q-17 5 -27.5 17t-10.5 28q0 6 1 11t4.5 9.5t10 10t17.5 13.5q16 11 22 36t6 76q0 15 -0.5 34.5t-1.5 37t-2.5 31t-2.5 16.5q-3 8 -8.5 13t-17.5 10
q-17 8 -23.5 17t-6.5 23q0 30 40 46q27 10 57.5 19t60 16t54.5 11t42 4q27 0 27 -31v-283zM172 567q31 30 31 68q0 12 -2.5 21t-10.5 22q19 11 37.5 16t44.5 5q39 0 61 -17.5t22 -49.5q0 -19 -9.5 -35t-26.5 -28t-40 -19t-50 -7q-19 0 -31 5t-26 19zM108 701q38 0 60 -18
t22 -49q0 -19 -9.5 -35t-26.5 -28t-40 -19t-50 -7q-32 0 -52.5 19t-20.5 50q0 41 31.5 64t85.5 23z" />
    <glyph glyph-name="eth" unicode="&#xf0;" horiz-adv-x="602" 
d="M326 604q60 -41 108 -87t81.5 -93.5t51.5 -95.5t18 -92q0 -51 -25 -96t-67 -79t-98.5 -54t-119.5 -20q-58 0 -105.5 17t-81.5 48t-53 74t-19 96q0 45 15 86t42.5 74t66.5 57t86 35q19 5 24.5 9t5.5 13q0 10 -23 36zM282 374q-22 0 -35 -16t-13 -42q0 -15 3 -35.5t8 -44
t11.5 -47t14.5 -42.5q15 -40 49 -40q44 0 44 55q0 21 -3 45t-8 48t-12 46t-15 39q-16 34 -44 34zM165 598q-2 2 -8 7t-19 14q-17 13 -24 22t-7 20t10 18.5t26 7.5q21 0 43.5 -7t53.5 -24zM182 508q-25 -19 -37 -19q-13 0 -23 10.5t-10 23.5q0 6 0.5 10t4.5 8.5t12 11
t22 17.5l153 119q17 13 24.5 17t15.5 4q13 0 23.5 -12.5t10.5 -26.5q0 -4 -0.5 -6.5t-3 -5.5t-8.5 -7.5t-17 -13.5z" />
    <glyph glyph-name="ntilde" unicode="&#xf1;" horiz-adv-x="660" 
d="M610 134q1 -11 2 -17.5t4.5 -13t10 -14t18.5 -19.5q8 -8 8 -22q0 -32 -39 -45t-138 -13q-67 0 -95.5 12t-28.5 40q0 5 0.5 8t2.5 6.5t6.5 8l13.5 13.5q7 8 10 19t5 35q1 8 2 20t1.5 25t1 25t0.5 20q0 31 -6.5 60.5t-14.5 40.5q-15 18 -42 18q-34 0 -47 -25
q-5 -11 -7.5 -27t-2.5 -45v-97q0 -15 0.5 -23.5t3 -16t8 -17t15.5 -24.5q6 -9 6 -20q0 -29 -40 -42.5t-125 -13.5q-70 0 -103 14t-33 43q0 11 4.5 17t20.5 17q6 5 10 9.5t6 12.5t3.5 21.5t2.5 36.5q2 28 3 57.5t1 59.5q0 17 -1 27t-4.5 17t-10.5 12.5t-19 13.5
q-21 12 -21 32q0 10 4 17.5t13.5 14.5t26.5 14.5t44 16.5q23 8 46.5 15.5t43.5 13t36 8.5t24 3q14 0 24 -11t10 -26v-4.5t-1 -7.5v-7q0 -23 20 -23q10 0 24 18q23 32 51.5 46.5t70.5 14.5q30 0 57.5 -8.5t47.5 -23.5q15 -12 25.5 -24.5t17.5 -29.5t10.5 -39t4.5 -52z
M237 575q0 -17 -13 -27.5t-35 -10.5q-24 0 -39.5 16t-15.5 42q0 44 26 71.5t68 27.5q13 0 23.5 -1.5t23.5 -6t31.5 -13t47.5 -22.5q11 -6 23 -10t19 -4q12 0 15 19q2 17 3 20t5 7q6 7 16.5 10.5t22.5 3.5q30 0 46.5 -17t16.5 -47q0 -43 -24.5 -68.5t-65.5 -25.5q-20 0 -38 5
t-49 19l-47 20q-11 5 -20.5 9t-11.5 5q-12 5 -17 5q-11 0 -11 -13v-14z" />
    <glyph glyph-name="ograve" unicode="&#xf2;" horiz-adv-x="602" 
d="M320 486q56 0 104.5 -19t84 -52.5t56 -79t20.5 -97.5q0 -106 -97 -180q-92 -71 -213 -71q-58 0 -105.5 17t-81.5 48t-53 74t-19 95q0 57 23 105.5t63.5 84t96.5 55.5t121 20zM282 373q-22 0 -35 -16t-13 -42q0 -15 3 -35.5t8 -43.5t11.5 -46.5t14.5 -42.5q15 -40 49 -40
q44 0 44 55q0 20 -3 44.5t-8 48.5t-12 46t-15 38q-16 34 -44 34zM243 698q35 0 57.5 -8t22.5 -21q0 -3 -0.5 -4.5t-4.5 -8.5q-3 -5 -3 -9q0 -6 4.5 -11t19.5 -16q4 -3 10.5 -7.5t15.5 -12.5q17 -13 17 -31q0 -36 -51 -36q-88 0 -162 57q-41 31 -42 55q0 11 8.5 20.5t24.5 17
t37.5 11.5t45.5 4z" />
    <glyph glyph-name="oacute" unicode="&#xf3;" horiz-adv-x="602" 
d="M320 486q56 0 104.5 -19t84 -52.5t56 -79t20.5 -97.5q0 -106 -97 -180q-92 -71 -213 -71q-58 0 -105.5 17t-81.5 48t-53 74t-19 95q0 57 23 105.5t63.5 84t96.5 55.5t121 20zM282 373q-22 0 -35 -16t-13 -42q0 -15 3 -35.5t8 -43.5t11.5 -46.5t14.5 -42.5q15 -40 49 -40
q44 0 44 55q0 20 -3 44.5t-8 48.5t-12 46t-15 38q-16 34 -44 34zM359 698q25 0 46.5 -4.5t37 -12t24.5 -17t8 -20.5q-2 -23 -42 -54q-74 -57 -163 -57q-50 0 -50 36q0 7 1.5 12t7 11t16.5 14.5t30 22.5q12 9 12 18q0 3 -0.5 5t-5.5 10q-2 4 -2 7q0 13 22.5 21t57.5 8z" />
    <glyph glyph-name="ocircumflex" unicode="&#xf4;" horiz-adv-x="602" 
d="M320 486q56 0 104.5 -19t84 -52.5t56 -79t20.5 -97.5q0 -106 -97 -180q-92 -71 -213 -71q-58 0 -105.5 17t-81.5 48t-53 74t-19 95q0 57 23 105.5t63.5 84t96.5 55.5t121 20zM282 373q-22 0 -35 -16t-13 -42q0 -15 3 -35.5t8 -43.5t11.5 -46.5t14.5 -42.5q15 -40 49 -40
q44 0 44 55q0 20 -3 44.5t-8 48.5t-12 46t-15 38q-16 34 -44 34zM297 714q16 0 52.5 -20.5t74.5 -50.5q34 -26 47 -42t13 -30t-11 -25.5t-25 -11.5q-11 0 -29 6.5t-51 23.5q-9 4 -20 8.5t-21 8t-18.5 6t-11.5 2.5q-9 0 -24.5 -6.5t-44.5 -21.5q-23 -13 -43.5 -20.5
t-30.5 -7.5q-17 0 -27.5 11t-10.5 28t16 36t57 49q34 26 63.5 41.5t44.5 15.5z" />
    <glyph glyph-name="otilde" unicode="&#xf5;" horiz-adv-x="602" 
d="M320 486q56 0 104.5 -19t84 -52.5t56 -79t20.5 -97.5q0 -106 -97 -180q-92 -71 -213 -71q-58 0 -105.5 17t-81.5 48t-53 74t-19 95q0 57 23 105.5t63.5 84t96.5 55.5t121 20zM282 373q-22 0 -35 -16t-13 -42q0 -15 3 -35.5t8 -43.5t11.5 -46.5t14.5 -42.5q15 -40 49 -40
q44 0 44 55q0 20 -3 44.5t-8 48.5t-12 46t-15 38q-16 34 -44 34zM210 575q0 -17 -13 -27.5t-35 -10.5q-24 0 -39.5 16t-15.5 42q0 44 26 71.5t68 27.5q13 0 23.5 -1.5t23.5 -6t31.5 -13t47.5 -22.5q11 -6 23 -10t19 -4q12 0 15 19q2 17 3 20t5 7q6 7 16.5 10.5t22.5 3.5
q30 0 46.5 -17t16.5 -47q0 -43 -24.5 -68.5t-65.5 -25.5q-20 0 -38 5t-49 19l-47 20q-11 5 -20.5 9t-11.5 5q-12 5 -17 5q-11 0 -11 -13v-14z" />
    <glyph glyph-name="odieresis" unicode="&#xf6;" horiz-adv-x="602" 
d="M320 486q56 0 104.5 -19t84 -52.5t56 -79t20.5 -97.5q0 -106 -97 -180q-92 -71 -213 -71q-58 0 -105.5 17t-81.5 48t-53 74t-19 95q0 57 23 105.5t63.5 84t96.5 55.5t121 20zM282 373q-22 0 -35 -16t-13 -42q0 -15 3 -35.5t8 -43.5t11.5 -46.5t14.5 -42.5q15 -40 49 -40
q44 0 44 55q0 20 -3 44.5t-8 48.5t-12 46t-15 38q-16 34 -44 34zM192 701q38 0 60 -18t22 -49q0 -19 -9.5 -35t-26.5 -28t-40 -19t-50 -7q-32 0 -52.5 19t-20.5 50q0 41 31.5 64t85.5 23zM444 699q38 0 60 -17.5t22 -49.5q0 -19 -9.5 -35t-26.5 -28t-40 -19t-50 -7
q-32 0 -52.5 19t-20.5 50q0 41 31.5 64t85.5 23z" />
    <glyph glyph-name="divide" unicode="&#xf7;" 
d="M251 534q30 0 51.5 -21.5t21.5 -51.5q0 -32 -21.5 -53.5t-53.5 -21.5q-29 0 -51 22t-22 51q0 32 21.5 53.5t53.5 21.5zM251 185q30 0 51.5 -21.5t21.5 -51.5q0 -32 -21.5 -53.5t-53.5 -21.5q-29 0 -51 22t-22 51q0 32 21.5 53.5t53.5 21.5zM412 343h30.5t15.5 1t8 1.5
t5 0.5q8 1 13.5 -5t5.5 -14q0 -6 -2.5 -16.5t-6 -22.5t-8 -23.5t-8.5 -19.5q-13 -23 -28 -23q-4 0 -8 0.5t-25 3.5q-17 3 -45 3h-219q-38 0 -59 -0.5t-38 -1.5q-3 -1 -5.5 -1h-4.5q-10 0 -16.5 5.5t-6.5 13.5q0 4 3 15t7.5 23.5t9.5 24.5t8 19q12 22 33 22h6t8 -1
q23 -2 43 -3.5t37 -1.5h247z" />
    <glyph glyph-name="oslash" unicode="&#xf8;" horiz-adv-x="602" 
d="M336 313q-5 14 -6.5 17.5t-3.5 8.5q-16 34 -45 34q-21 0 -34 -16t-13 -42q0 -12 2 -27.5t7 -42.5l-196 -144q-17 29 -24 57t-7 63q0 57 23 105.5t63.5 84t95.5 55.5t120 20q53 0 94.5 -13.5t80.5 -44.5zM548 365q20 -32 28.5 -62.5t8.5 -63.5q0 -107 -97 -181
q-46 -35 -99.5 -53t-112.5 -18q-102 0 -173 52l163 120q11 -29 22.5 -40.5t31.5 -11.5q44 0 44 56q0 21 -6 63zM49 16q-7 -5 -14 -5q-10 0 -20 11.5t-10 22.5q0 8 10 17l536 392q8 7 15 7q10 0 20 -11.5t10 -23.5q0 -10 -12 -19z" />
    <glyph glyph-name="ugrave" unicode="&#xf9;" horiz-adv-x="667" 
d="M278 194q0 -86 56 -86q14 0 28 8t19 20q7 14 9 36t2 69q0 40 -1.5 67t-3.5 42q-2 12 -7 18t-19 13q-28 16 -28 38q0 21 31 36q11 5 34 10t51.5 9t58 6.5t53.5 2.5q49 0 49 -52l-1 -22l-1 -58v-215q0 -9 6 -15.5t22 -14.5q24 -12 24 -34q0 -43 -104 -68q-28 -6 -60 -10
t-58 -4q-24 0 -32 5.5t-10 20.5q-3 31 -19 31q-3 0 -5 -0.5t-6 -2.5t-10.5 -6.5t-18.5 -13.5q-27 -19 -51.5 -26.5t-55.5 -7.5q-44 0 -78.5 14t-52.5 40q-17 24 -25 60t-8 93v40t1 28v23q0 42 -7.5 62t-28.5 31q-19 10 -24 16t-5 17q0 27 36 42q12 5 37 10t55 8.5t62 6
t58 2.5q28 0 28 -24v-265zM274 698q35 0 57.5 -8t22.5 -21q0 -3 -0.5 -4.5t-4.5 -8.5q-3 -5 -3 -9q0 -6 4.5 -11t19.5 -16q4 -3 10.5 -7.5t15.5 -12.5q17 -13 17 -31q0 -36 -51 -36q-88 0 -162 57q-41 31 -42 55q0 11 8.5 20.5t24.5 17t37.5 11.5t45.5 4z" />
    <glyph glyph-name="uacute" unicode="&#xfa;" horiz-adv-x="667" 
d="M278 194q0 -86 56 -86q14 0 28 8t19 20q7 14 9 36t2 69q0 40 -1.5 67t-3.5 42q-2 12 -7 18t-19 13q-28 16 -28 38q0 21 31 36q11 5 34 10t51.5 9t58 6.5t53.5 2.5q49 0 49 -52l-1 -22l-1 -58v-215q0 -9 6 -15.5t22 -14.5q24 -12 24 -34q0 -43 -104 -68q-28 -6 -60 -10
t-58 -4q-24 0 -32 5.5t-10 20.5q-3 31 -19 31q-3 0 -5 -0.5t-6 -2.5t-10.5 -6.5t-18.5 -13.5q-27 -19 -51.5 -26.5t-55.5 -7.5q-44 0 -78.5 14t-52.5 40q-17 24 -25 60t-8 93v40t1 28v23q0 42 -7.5 62t-28.5 31q-19 10 -24 16t-5 17q0 27 36 42q12 5 37 10t55 8.5t62 6
t58 2.5q28 0 28 -24v-265zM389 698q25 0 46.5 -4.5t37 -12t24.5 -17t8 -20.5q-2 -23 -42 -54q-74 -57 -163 -57q-50 0 -50 36q0 7 1.5 12t7 11t16.5 14.5t30 22.5q12 9 12 18q0 3 -0.5 5t-5.5 10q-2 4 -2 7q0 13 22.5 21t57.5 8z" />
    <glyph glyph-name="ucircumflex" unicode="&#xfb;" horiz-adv-x="667" 
d="M278 194q0 -86 56 -86q14 0 28 8t19 20q7 14 9 36t2 69q0 40 -1.5 67t-3.5 42q-2 12 -7 18t-19 13q-28 16 -28 38q0 21 31 36q11 5 34 10t51.5 9t58 6.5t53.5 2.5q49 0 49 -52l-1 -22l-1 -58v-215q0 -9 6 -15.5t22 -14.5q24 -12 24 -34q0 -43 -104 -68q-28 -6 -60 -10
t-58 -4q-24 0 -32 5.5t-10 20.5q-3 31 -19 31q-3 0 -5 -0.5t-6 -2.5t-10.5 -6.5t-18.5 -13.5q-27 -19 -51.5 -26.5t-55.5 -7.5q-44 0 -78.5 14t-52.5 40q-17 24 -25 60t-8 93v40t1 28v23q0 42 -7.5 62t-28.5 31q-19 10 -24 16t-5 17q0 27 36 42q12 5 37 10t55 8.5t62 6
t58 2.5q28 0 28 -24v-265zM331 714q16 0 52.5 -20.5t74.5 -50.5q34 -26 47 -42t13 -30t-11 -25.5t-25 -11.5q-11 0 -29 6.5t-51 23.5q-9 4 -20 8.5t-21 8t-18.5 6t-11.5 2.5q-9 0 -24.5 -6.5t-44.5 -21.5q-23 -13 -43.5 -20.5t-30.5 -7.5q-17 0 -27.5 11t-10.5 28t16 36
t57 49q34 26 63.5 41.5t44.5 15.5z" />
    <glyph glyph-name="udieresis" unicode="&#xfc;" horiz-adv-x="667" 
d="M278 194q0 -86 56 -86q14 0 28 8t19 20q7 14 9 36t2 69q0 40 -1.5 67t-3.5 42q-2 12 -7 18t-19 13q-28 16 -28 38q0 21 31 36q11 5 34 10t51.5 9t58 6.5t53.5 2.5q49 0 49 -52l-1 -22l-1 -58v-215q0 -9 6 -15.5t22 -14.5q24 -12 24 -34q0 -43 -104 -68q-28 -6 -60 -10
t-58 -4q-24 0 -32 5.5t-10 20.5q-3 31 -19 31q-3 0 -5 -0.5t-6 -2.5t-10.5 -6.5t-18.5 -13.5q-27 -19 -51.5 -26.5t-55.5 -7.5q-44 0 -78.5 14t-52.5 40q-17 24 -25 60t-8 93v40t1 28v23q0 42 -7.5 62t-28.5 31q-19 10 -24 16t-5 17q0 27 36 42q12 5 37 10t55 8.5t62 6
t58 2.5q28 0 28 -24v-265zM223 701q38 0 60 -18t22 -49q0 -19 -9.5 -35t-26.5 -28t-40 -19t-50 -7q-32 0 -52.5 19t-20.5 50q0 41 31.5 64t85.5 23zM475 699q38 0 60 -17.5t22 -49.5q0 -19 -9.5 -35t-26.5 -28t-40 -19t-50 -7q-32 0 -52.5 19t-20.5 50q0 41 31.5 64t85.5 23
z" />
    <glyph glyph-name="yacute" unicode="&#xfd;" horiz-adv-x="632" 
d="M426 69q-24 -66 -48 -108t-55 -71q-31 -30 -70 -45.5t-82 -15.5q-33 0 -61 8.5t-48 23.5t-31.5 35.5t-11.5 45.5q0 19 6.5 35t18 28t26.5 19t33 7q35 0 56 -24q5 -5 8 -9t5.5 -9.5t5 -14t5.5 -22.5q2 -9 9 -15.5t15 -6.5q15 0 25.5 13t10.5 33q0 14 -5 29.5t-21 47.5
l-117 250q-10 19 -18.5 34t-13.5 19q-4 5 -14 10l-23 10q-10 5 -17 16t-7 22q0 16 13 29.5t36 20.5q29 8 74.5 13.5t93.5 5.5q122 0 122 -58q0 -8 -2.5 -14t-8.5 -16q-7 -9 -9 -14.5t-2 -12.5q0 -12 6.5 -29.5t16 -33.5t19.5 -27.5t17 -11.5t15.5 8.5t16 21.5t12 28.5
t4.5 29.5q0 23 -12 36q-11 14 -14.5 21t-3.5 17q0 25 33 40t89 15q103 0 103 -51q0 -17 -10.5 -27.5t-38.5 -21.5q-11 -3 -21 -11t-19.5 -23.5t-20.5 -40.5t-25 -62zM408 698q25 0 46.5 -4.5t37 -12t24.5 -17t8 -20.5q-2 -23 -42 -54q-74 -57 -163 -57q-50 0 -50 36
q0 7 1.5 12t7 11t16.5 14.5t30 22.5q12 9 12 18q0 3 -0.5 5t-5.5 10q-2 4 -2 7q0 13 22.5 21t57.5 8z" />
    <glyph glyph-name="thorn" unicode="&#xfe;" horiz-adv-x="662" 
d="M300 453q0 -18 11 -18q4 0 8.5 2.5t25.5 16.5q20 14 53 23.5t59 9.5q40 0 74.5 -18.5t60 -50t40.5 -74.5t15 -92q0 -54 -18 -102.5t-49.5 -84.5t-73 -57t-87.5 -21q-40 0 -86 19q-8 4 -15 4q-6 0 -10 -8t-4 -21q0 -20 6 -33t20 -23q12 -8 18.5 -13t10 -8.5t4 -8
t0.5 -10.5q0 -29 -32.5 -45t-92.5 -16q-106 0 -186 43q-40 21 -40 53q0 14 6 22t24 16q17 8 24.5 24t10.5 56q1 7 1.5 25.5t1 41.5l1 46t0.5 39v183q-2 40 -2.5 62.5t-1.5 34t-2 16t-3 9.5q-3 5 -10 8l-19 3q-17 3 -26.5 14.5t-9.5 28.5q0 24 24 43t84 42q18 7 38.5 13
t41 10.5t39 7t33.5 2.5q21 0 27 -5.5t6 -24.5v-184zM297 165q-1 -4 -1 -8.5v-6.5q0 -17 12.5 -26t35.5 -9q68 0 68 111q0 57 -18.5 88t-51.5 31q-35 0 -38 -46z" />
    <glyph glyph-name="ydieresis" unicode="&#xff;" horiz-adv-x="632" 
d="M426 69q-24 -66 -48 -108t-55 -71q-31 -30 -70 -45.5t-82 -15.5q-33 0 -61 8.5t-48 23.5t-31.5 35.5t-11.5 45.5q0 19 6.5 35t18 28t26.5 19t33 7q35 0 56 -24q5 -5 8 -9t5.5 -9.5t5 -14t5.5 -22.5q2 -9 9 -15.5t15 -6.5q15 0 25.5 13t10.5 33q0 14 -5 29.5t-21 47.5
l-117 250q-10 19 -18.5 34t-13.5 19q-4 5 -14 10l-23 10q-10 5 -17 16t-7 22q0 16 13 29.5t36 20.5q29 8 74.5 13.5t93.5 5.5q122 0 122 -58q0 -8 -2.5 -14t-8.5 -16q-7 -9 -9 -14.5t-2 -12.5q0 -12 6.5 -29.5t16 -33.5t19.5 -27.5t17 -11.5t15.5 8.5t16 21.5t12 28.5
t4.5 29.5q0 23 -12 36q-11 14 -14.5 21t-3.5 17q0 25 33 40t89 15q103 0 103 -51q0 -17 -10.5 -27.5t-38.5 -21.5q-11 -3 -21 -11t-19.5 -23.5t-20.5 -40.5t-25 -62zM228 701q38 0 60 -18t22 -49q0 -19 -9.5 -35t-26.5 -28t-40 -19t-50 -7q-32 0 -52.5 19t-20.5 50
q0 41 31.5 64t85.5 23zM480 699q38 0 60 -17.5t22 -49.5q0 -19 -9.5 -35t-26.5 -28t-40 -19t-50 -7q-32 0 -52.5 19t-20.5 50q0 41 31.5 64t85.5 23z" />
    <glyph glyph-name="Amacron" unicode="&#x100;" horiz-adv-x="840" 
d="M320 614h160h13t13 -1q28 -36 64.5 -102.5t86.5 -172.5l93 -198q13 -29 22.5 -37.5t26.5 -10.5q35 -5 35 -35q0 -35 -43 -51t-140 -16q-160 0 -192 19q-26 15 -26 40q0 15 7.5 22.5t28.5 15.5q23 9 23 27q0 32 -40 38q-9 1 -22.5 2t-30 2t-33.5 1.5t-33 0.5
q-39 0 -54.5 -1.5t-23.5 -6.5t-14 -17.5t-6 -24.5q0 -11 4.5 -14t27.5 -10q14 -5 22 -14.5t8 -21.5q0 -58 -141 -58q-34 0 -66 3t-49 8q-16 5 -25 17t-9 28q0 15 7.5 23.5t27.5 15.5q15 5 25.5 11t20.5 18.5t21 33t27 55.5l69 150q20 44 32.5 74t19.5 52.5t10 40.5t3 39
q1 29 1.5 37.5t2.5 17.5h46zM413 276q26 0 26 11q0 8 -9.5 29t-26.5 50q-17 30 -26 39.5t-19 9.5q-8 0 -14.5 -7.5t-14.5 -25.5l-19 -47.5t-10 -27t-4 -13t-1 -6.5q0 -12 22 -12h96zM536 734h32.5t15.5 1t8 1h5q8 0 14 -5t6 -13q0 -5 -2.5 -15t-6.5 -21t-8.5 -22t-8.5 -18
q-13 -21 -30 -21q-4 0 -8 0.5t-26 3.5q-9 1 -20.5 1.5t-26.5 0.5h-160q-40 0 -61.5 -0.5t-40.5 -1.5q-3 -1 -6 -1h-5q-10 0 -17 5t-7 13q0 4 3.5 14t8 22t9.5 23t9 17q13 21 34 21h6.5t8.5 -1q24 -2 45.5 -3t38.5 -1h190z" />
    <glyph glyph-name="amacron" unicode="&#x101;" horiz-adv-x="558" 
d="M494 238q0 -48 3.5 -72t13.5 -36q4 -5 7.5 -6.5t17.5 -3.5q15 -3 15 -20q0 -21 -12.5 -41t-33 -36t-46.5 -26t-52 -10q-50 0 -81 35q-10 13 -19 13q-6 0 -10.5 -2t-15.5 -10q-50 -36 -110 -36q-65 0 -104 27q-26 18 -41 47t-15 61q0 42 28 76.5t80 55.5q27 11 54.5 15
t69.5 5q29 0 36 5.5t7 25.5q0 51 -11 74.5t-35 23.5q-14 0 -25.5 -9t-28.5 -32q-23 -32 -44.5 -46.5t-46.5 -14.5q-24 0 -39 14t-15 37q0 25 22 49t57.5 43t81 30.5t93.5 11.5q42 0 78.5 -11t65.5 -32q16 -11 26.5 -23.5t17 -28.5t9.5 -36t3 -46zM262 204q-21 0 -37 -17.5
t-16 -41.5t11.5 -38.5t29.5 -14.5q39 0 39 66q0 26 -5.5 36t-21.5 10zM400 658h32.5t16.5 1t8 1.5t5 0.5q20 0 20 -20q0 -9 -7 -27t-20 -41q-7 -11 -13 -16t-16 -5q-4 0 -8 0.5t-27 3.5q-8 1 -20 1.5t-26 0.5h-127q-40 0 -61.5 -0.5t-40.5 -1.5q-3 -1 -6 -1h-5
q-11 0 -17.5 5.5t-6.5 13.5q0 3 3 11t7.5 18t9.5 20.5t10 19.5q13 21 34 21h6t9 -1q23 -2 45 -3.5t39 -1.5h156z" />
    <glyph glyph-name="Abreve" unicode="&#x102;" horiz-adv-x="840" 
d="M205 354q20 44 32.5 73.5t19.5 52t10 40.5t3 39q0 15 0.5 24t1 14.5t1 9.5t1.5 9q26 -17 51.5 -25t57.5 -8q33 0 61.5 8.5t57.5 27.5q29 -35 65.5 -102t89.5 -179l93 -198q13 -29 22.5 -37.5t26.5 -10.5q35 -5 35 -35q0 -35 -43 -51t-140 -16q-160 0 -192 19
q-26 15 -26 40q0 15 7.5 22.5t28.5 15.5q23 9 23 27q0 32 -40 38q-9 1 -22.5 2t-30 2t-33.5 1.5t-33 0.5q-39 0 -54.5 -1.5t-23.5 -6.5t-14 -17.5t-6 -24.5q0 -11 4.5 -14t27.5 -10q14 -5 22 -14.5t8 -21.5q0 -58 -141 -58q-34 0 -66 3t-49 8q-16 5 -25 17t-9 28
q0 15 7.5 23.5t27.5 15.5q15 5 25.5 11t20.5 18.5t21 33t27 55.5zM413 276q26 0 26 11q0 8 -9.5 29.5t-26.5 50.5q-17 30 -26 39.5t-19 9.5q-8 0 -14.5 -7.5t-14.5 -25.5l-19 -47.5t-10 -27t-4 -13.5t-1 -7q0 -12 22 -12h96zM217 778q4 0 7 -0.5t7 -3t11 -8.5t20 -17
q21 -18 52.5 -28.5t65.5 -10.5q57 0 111 23q8 4 12.5 6.5t10 6t12.5 10t19 18.5q6 4 12 4q10 0 18 -6t8 -14q0 -10 -8.5 -29t-21.5 -39q-29 -45 -73.5 -69.5t-96.5 -24.5q-99 0 -166 101q-24 37 -26 58q-1 9 7 16t19 7z" />
    <glyph glyph-name="abreve" unicode="&#x103;" horiz-adv-x="558" 
d="M494 238q0 -48 3.5 -72t13.5 -36q4 -5 7.5 -6.5t17.5 -3.5q15 -3 15 -20q0 -21 -12.5 -41t-33 -36t-46.5 -26t-52 -10q-50 0 -81 35q-10 13 -19 13q-6 0 -10.5 -2t-15.5 -10q-50 -36 -110 -36q-65 0 -104 27q-26 18 -41 47t-15 61q0 42 28 76.5t80 55.5q27 11 54.5 15
t69.5 5q29 0 36 5.5t7 25.5q0 51 -11 74.5t-35 23.5q-14 0 -25.5 -9t-28.5 -32q-23 -32 -44.5 -46.5t-46.5 -14.5q-24 0 -39 14t-15 37q0 25 22 49t57.5 43t81 30.5t93.5 11.5q42 0 78.5 -11t65.5 -32q16 -11 26.5 -23.5t17 -28.5t9.5 -36t3 -46zM262 204q-21 0 -37 -17.5
t-16 -41.5t11.5 -38.5t29.5 -14.5q39 0 39 66q0 26 -5.5 36t-21.5 10zM112 719q4 0 7 -0.5t7 -3t11 -8.5t20 -17q22 -18 53.5 -29t63.5 -11q59 0 112 25q9 4 14 6.5t10 6t11.5 10t18.5 17.5q6 4 12 4q10 0 18 -6t8 -14q0 -10 -8.5 -29t-21.5 -39q-29 -45 -73.5 -69.5
t-96.5 -24.5q-99 0 -166 101q-24 37 -26 58q-1 9 7 16t19 7z" />
    <glyph glyph-name="Aogonek" unicode="&#x104;" horiz-adv-x="840" 
d="M750 140q13 -29 22.5 -37.5t26.5 -10.5q35 -5 35 -35q0 -36 -47 -53q2 5 2.5 10.5t0.5 8.5q0 18 -17.5 33.5t-37.5 15.5q-11 0 -28 -9t-35 -25l-30 -27q-8 -6 -12 -10t-10 -11q-51 2 -82.5 4t-51.5 5q-24 5 -38.5 18t-14.5 32q0 15 7.5 22.5t28.5 15.5q23 9 23 26
q0 15 -9.5 25.5t-26.5 13.5q-17 2 -50 4t-71 2q-41 0 -56.5 -1.5t-23.5 -6.5t-14 -17.5t-6 -24.5q0 -11 4.5 -14t27.5 -10q14 -5 22 -14.5t8 -21.5q0 -58 -140 -58q-35 0 -67 3t-49 8q-16 5 -25 17t-9 28q0 15 7.5 23.5t27.5 15.5q15 5 25.5 11t20.5 18.5t21 33t27 55.5
l69 151q20 44 32.5 74t19.5 52.5t10 40.5t3 38q0 21 1 35t4 24t7.5 17t12.5 15q17 16 39.5 25t46.5 9q36 0 70.5 -20.5t60.5 -57.5q29 -42 64.5 -107.5t80.5 -160.5zM413 276q27 0 27 12q0 5 -5.5 18.5t-13.5 27.5q-14 25 -23.5 41t-16 25t-12 12t-11.5 3q-8 0 -14.5 -7.5
t-13.5 -25.5q-2 -4 -14 -34q-13 -31 -17 -42.5t-4 -17.5q0 -7 4.5 -9.5t17.5 -2.5h96zM680 28q17 14 32 22.5t25 8.5q15 0 27 -12.5t12 -27.5q0 -8 -4.5 -13.5t-18.5 -16.5q-15 -11 -24 -24.5t-9 -27.5q0 -18 13.5 -30.5t33.5 -12.5h10t8.5 1.5t12 5t21.5 9.5q6 3 13 3
q19 0 19 -28q0 -35 -29 -50.5t-93 -15.5q-63 0 -101 24t-38 63q0 41 60 95z" />
    <glyph glyph-name="aogonek" unicode="&#x105;" horiz-adv-x="558" 
d="M494 238q0 -49 3.5 -72.5t13.5 -36.5q4 -5 7.5 -6t17.5 -3q15 -3 15 -21q0 -35 -43 -74q-13 35 -45 35q-11 0 -27 -8.5t-33 -22.5l-39 -35q-21 9 -37 28q-12 13 -20 13q-6 0 -10.5 -2t-15.5 -10q-50 -36 -110 -36q-72 0 -116 37t-44 98q0 42 28 76.5t80 55.5
q27 11 54.5 15t69.5 5q29 0 36 5.5t7 25.5q0 51 -11 74.5t-35 23.5q-14 0 -25.5 -9t-28.5 -32q-23 -32 -44.5 -46.5t-46.5 -14.5q-24 0 -39 14t-15 37q0 25 21.5 49t57 43t81 30.5t92.5 11.5q88 0 146 -43q31 -23 43.5 -52.5t12.5 -81.5zM262 204q-21 0 -37 -17.5t-16 -41.5
t11.5 -38.5t29.5 -14.5q39 0 39 66q0 26 -5.5 36t-21.5 10zM412 19q15 13 28.5 20.5t22.5 7.5q14 0 24.5 -11t10.5 -25q0 -7 -4 -12.5t-17 -14.5q-29 -21 -29 -48q0 -16 12.5 -27t29.5 -11h8.5t8 1.5t11.5 4.5t19 9q6 2 11 2q17 0 17 -25q0 -31 -26.5 -45t-83.5 -14
q-56 0 -90 21.5t-34 57.5q0 38 54 85z" />
    <glyph glyph-name="Cacute" unicode="&#x106;" horiz-adv-x="708" 
d="M509 656q5 -2 9 -4l6 -3q22 -11 28.5 -13t14.5 -2q7 0 10.5 0.5t18.5 4.5q8 2 14 2q18 0 34 -13.5t29 -36.5t20.5 -53t7.5 -62q0 -45 -24.5 -73t-65.5 -28q-24 0 -40 11t-31 38q-10 19 -18 32.5t-15.5 23t-15 16.5t-17.5 14q-23 16 -48 24.5t-51 8.5q-50 0 -79.5 -36
t-29.5 -98q0 -58 22.5 -112.5t60.5 -89.5q23 -21 55.5 -32.5t69.5 -11.5q40 0 78 13t60 34q12 11 17.5 14.5t13.5 3.5q17 0 29 -16t12 -38q0 -15 -4.5 -31.5t-12.5 -33t-18.5 -30.5t-22.5 -24q-4 -3 -6.5 -5t-6.5 -3.5t-11 -3t-19 -3.5q-7 -1 -11 -2t-9 -3t-11.5 -5
t-17.5 -8q-73 -35 -151 -35q-59 0 -120 20t-108 55q-31 24 -56.5 55t-43.5 66t-27.5 73.5t-9.5 76.5q0 54 18 105.5t51 94.5t79 76.5t102 51.5q-5 -8 -6.5 -13.5t-1.5 -13.5q0 -50 65 -50q100 0 184 72zM413 763q25 0 46.5 -4.5t37 -12t24.5 -17t8 -20.5q-2 -23 -42 -54
q-74 -57 -163 -57q-50 0 -50 36q0 7 1.5 12t7 11t16.5 14.5t30 22.5q12 9 12 18q0 3 -0.5 5t-5.5 10q-2 4 -2 7q0 13 22.5 21t57.5 8z" />
    <glyph glyph-name="cacute" unicode="&#x107;" horiz-adv-x="519" 
d="M296 486q45 0 84.5 -11.5t69 -31.5t46.5 -46.5t17 -57.5q0 -40 -27 -66.5t-68 -26.5t-61 29l-4 6t-4 7.5t-4.5 12.5t-6.5 21q-14 41 -51 41q-26 0 -44.5 -23.5t-18.5 -57.5q0 -29 10 -54.5t27.5 -44.5t41 -30t49.5 -11q12 0 22 1t19 3t19.5 6.5l24.5 10.5q5 4 15 4
q17 0 29.5 -16t12.5 -36q0 -22 -18 -46.5t-48 -42.5q-63 -39 -150 -39q-56 0 -103.5 19t-83 52t-55.5 78t-20 98q0 54 21 100t58.5 80t89 53t111.5 19zM341 698q25 0 46.5 -4.5t37 -12t24.5 -17t8 -20.5q-2 -23 -42 -54q-74 -57 -163 -57q-50 0 -50 36q0 7 1.5 12t7 11
t16.5 14.5t30 22.5q12 9 12 18q0 3 -0.5 5t-5.5 10q-2 4 -2 7q0 13 22.5 21t57.5 8z" />
    <glyph glyph-name="cdotaccent" unicode="&#x10b;" horiz-adv-x="519" 
d="M296 486q45 0 84.5 -11.5t69 -31.5t46.5 -46.5t17 -57.5q0 -40 -27 -66.5t-68 -26.5t-61 29l-4 6t-4 7.5t-4.5 12.5t-6.5 21q-14 41 -51 41q-26 0 -44.5 -23.5t-18.5 -57.5q0 -29 10 -54.5t27.5 -44.5t41 -30t49.5 -11q12 0 22 1t19 3t19.5 6.5l24.5 10.5q5 4 15 4
q17 0 29.5 -16t12.5 -36q0 -22 -18 -46.5t-48 -42.5q-63 -39 -150 -39q-56 0 -103.5 19t-83 52t-55.5 78t-20 98q0 54 21 100t58.5 80t89 53t111.5 19zM318 686q48 0 75 -16t27 -44q0 -18 -12 -33t-33 -26t-50 -17t-62 -6q-41 0 -66 17.5t-25 44.5q0 38 38.5 59t107.5 21z
" />
    <glyph glyph-name="Ccaron" unicode="&#x10c;" horiz-adv-x="708" 
d="M540 642q16 -8 27 -8q7 0 10.5 0.5t18.5 4.5q8 2 14 2q18 0 34 -13.5t29 -36.5t20.5 -53t7.5 -62q0 -45 -24.5 -73t-65.5 -28q-25 0 -40.5 11t-30.5 38q-20 38 -33.5 55.5t-32.5 31.5q-23 16 -48 24.5t-51 8.5q-50 0 -79.5 -36.5t-29.5 -97.5q0 -59 22.5 -113.5
t60.5 -89.5q23 -21 55.5 -32.5t69.5 -11.5q40 0 78 13t60 34q12 11 17.5 14.5t13.5 3.5q17 0 29 -16t12 -38q0 -15 -4.5 -31.5t-12.5 -33t-18.5 -30.5t-22.5 -24q-4 -3 -6.5 -5t-6.5 -3.5t-11 -3t-19 -3.5q-7 -1 -11 -2t-9 -3t-11.5 -5t-17.5 -8q-73 -35 -151 -35
q-59 0 -120 20t-108 55q-31 24 -56.5 55t-43.5 66t-27.5 73.5t-9.5 76.5q0 49 15 96t43 88t68 74.5t90 56.5q49 -41 85.5 -62t58.5 -21q21 0 60.5 22.5t87.5 60.5zM235 758q13 0 34 -9t71 -35q8 -4 18.5 -6.5t18.5 -2.5q23 0 72 23q37 18 53 24t27 6q14 0 25 -11.5t11 -25.5
q0 -16 -18 -35.5t-60 -50.5q-36 -26 -65.5 -41.5t-44.5 -15.5q-16 0 -50 19t-73 50q-33 27 -45 42t-12 30q0 17 10.5 28t27.5 11z" />
    <glyph glyph-name="ccaron" unicode="&#x10d;" horiz-adv-x="519" 
d="M296 486q45 0 84.5 -11.5t69 -31.5t46.5 -46.5t17 -57.5q0 -40 -27 -66.5t-68 -26.5t-61 29l-4 6t-4 7.5t-4.5 12.5t-6.5 21q-14 41 -51 41q-26 0 -44.5 -23.5t-18.5 -57.5q0 -29 10 -54.5t27.5 -44.5t41 -30t49.5 -11q12 0 22 1t19 3t19.5 6.5l24.5 10.5q5 4 15 4
q17 0 29.5 -16t12.5 -36q0 -22 -18 -46.5t-48 -42.5q-63 -39 -150 -39q-56 0 -103.5 19t-83 52t-55.5 78t-20 98q0 54 21 100t58.5 80t89 53t111.5 19zM150 714q11 0 31 -7.5t43 -19.5q29 -15 44.5 -21.5t24.5 -6.5q7 0 29.5 8t41.5 17q34 17 51.5 23t28.5 6q14 0 25 -11
t11 -26t-18 -34.5t-60 -50.5q-36 -26 -65.5 -41.5t-44.5 -15.5q-16 0 -50 19t-73 50q-33 27 -45 42t-12 30q0 17 10.5 28t27.5 11z" />
    <glyph glyph-name="Dcaron" unicode="&#x10e;" horiz-adv-x="792" 
d="M213 673q24 -22 48.5 -41t46.5 -32.5t40 -21t30 -7.5q23 0 66.5 26t94.5 69q54 -12 97.5 -40.5t73.5 -70.5t46.5 -96t16.5 -117q0 -79 -24.5 -143t-69 -109.5t-107.5 -70t-140 -24.5l-214 5h-35q-14 0 -33.5 -0.5t-35.5 -2.5q-11 -1 -20 -1.5t-13 -0.5q-33 0 -53.5 15
t-20.5 40q0 17 9 26.5t30 15.5q10 2 16 5.5t10 10t6.5 16.5t4.5 26q2 19 3.5 57t3 86.5t2.5 103t1 107.5q0 21 -1.5 33.5t-5 21t-10.5 13t-19 9.5q-34 12 -34 43q0 24 23 37.5t65 13.5h14.5t17.5 -1q10 0 17 -0.5t13 -0.5h12.5h15.5h12zM321 152q0 -31 13 -44t44 -13
q143 0 143 217q0 58 -8.5 105.5t-24.5 79.5q-37 73 -124 73q-23 0 -33 -9t-10 -31v-378zM236 765q6 0 14 -2t20 -7t29 -13.5t42 -21.5q18 -10 37 -10q22 0 71 23q37 18 53 24t28 6q14 0 24.5 -11.5t10.5 -25.5q0 -16 -18 -35.5t-60 -50.5q-36 -26 -65.5 -41.5t-43.5 -15.5
q-17 0 -51 19t-72 50q-33 27 -45 42t-12 31q0 17 10.5 28t27.5 11z" />
    <glyph glyph-name="dcaron" unicode="&#x10f;" horiz-adv-x="664" 
d="M589 181q0 -19 0.5 -30t3 -18t6.5 -11.5t11 -9.5q17 -13 23.5 -22t6.5 -22q0 -21 -18.5 -35t-60.5 -25q-14 -3 -32.5 -6.5t-38 -6t-38 -4t-32.5 -1.5q-17 0 -21 4.5t-6 22.5q-1 11 -6 18t-11 7q-5 0 -10 -2.5t-16 -12.5q-24 -20 -53 -30t-58 -10q-44 0 -84.5 20.5t-71 55
t-49 79.5t-18.5 94q0 50 19 95t51.5 79.5t74.5 55t88 20.5q26 0 53.5 -7t48.5 -18q8 -4 12 -4q7 0 11 11.5t4 29.5q0 19 -8 28.5t-31 16.5q-31 10 -31 34q0 20 16.5 32.5t54.5 23.5q32 9 66 17t60 13q-17 -20 -17 -42q0 -26 16 -47.5t37 -25.5q13 -3 13 -5t-8.5 -13
t-16.5 -19t-8 -18q0 -15 12.5 -25.5t30.5 -10.5q6 0 11 1t14 4v-281zM324 382q-34 0 -54.5 -42t-20.5 -110q0 -59 18.5 -92t51.5 -33q32 0 46 36.5t14 118.5q0 64 -13 93t-42 29zM575 680q36 0 61 -25t25 -61q0 -21 -9 -43t-23.5 -40t-31.5 -29.5t-33 -11.5q-12 0 -20.5 6.5
t-8.5 15.5q0 3 1.5 5.5t6.5 7.5q10 11 17 22t7 17q0 7 -3 9t-19 7q-19 6 -31 22.5t-12 35.5q0 26 21 44t52 18z" />
    <glyph glyph-name="Dcroat" unicode="&#x110;" horiz-adv-x="792" 
d="M321 287v-136q0 -30 13 -43t45 -13q142 0 142 217q0 58 -8.5 105.5t-24.5 79.5q-38 73 -124 73q-23 0 -33 -9t-10 -32v-142h-230q1 20 1 36.5v21.5q1 23 1 39v22q0 19 -1.5 31.5t-5 20.5t-10.5 13t-19 9q-34 14 -34 44q0 24 23 37t65 13h14t18 -1q23 -1 36 -1h24h38.5
t35.5 1t38 1.5t46 2.5q9 1 21.5 1h23.5q88 0 145.5 -15t102.5 -50q58 -45 88.5 -114.5t30.5 -157.5q0 -78 -24.5 -142t-69 -109.5t-107.5 -70t-140 -24.5l-214 5h-35q-14 0 -33.5 -0.5t-35.5 -2.5q-11 -1 -20 -1.5t-13 -0.5q-33 0 -53.5 15t-20.5 40q0 17 9 26.5t30 15.5
q13 3 20.5 8t12 23.5t6.5 56.5t5 107h231zM401 374q18 0 25.5 -8t7.5 -28q0 -37 -31 -37l-363 -1q-19 0 -26 7.5t-7 28.5q0 20 7.5 29t27.5 9h359z" />
    <glyph glyph-name="dcroat" unicode="&#x111;" horiz-adv-x="646" 
d="M510 548q-23 0 -36 -14.5t-13 -37.5q0 -24 13.5 -38.5t35.5 -14.5h79v-262q0 -19 0.5 -30t3 -18t6.5 -11.5t11 -9.5q17 -13 23.5 -22t6.5 -22q0 -21 -18.5 -35t-60.5 -25q-14 -3 -32.5 -6.5t-38 -6t-38 -4t-32.5 -1.5q-17 0 -21 4.5t-6 22.5q-3 25 -18 25q-5 0 -9.5 -2.5
t-15.5 -12.5q-49 -40 -111 -40q-44 0 -84.5 20.5t-71 55t-49 79.5t-18.5 94q0 50 19 95.5t51.5 80t74.5 55t89 20.5q25 0 52.5 -7t48.5 -19q8 -4 12 -4q7 0 11 11.5t4 29.5q0 20 -8 29.5t-31 16.5q-17 5 -23.5 13t-6.5 21q0 19 16.5 32t53.5 23q25 7 51 13.5t49.5 11t41 7.5
t26.5 3q42 0 42 -40v-80h-79zM324 382q-33 0 -54 -42t-21 -110q0 -59 19 -92t51 -33t46 36.5t14 118.5q0 64 -13 93t-42 29zM510 457q-17 0 -26.5 10.5t-9.5 28.5t9.5 28t26.5 10h114q17 0 26.5 -10t9.5 -28t-9.5 -28.5t-26.5 -10.5h-114z" />
    <glyph glyph-name="Emacron" unicode="&#x112;" horiz-adv-x="681" 
d="M59 0q-52 0 -52 42q0 14 5.5 20.5t27.5 16.5q14 6 21 15.5t12 27.5q16 71 16 198q0 91 -6.5 153t-17.5 86q-5 10 -10 13.5t-25 9.5q-28 7 -28 36q0 17 9.5 29t24.5 15q6 1 11 2t13 2t19.5 1h30.5q-4 -11 -5 -15.5t-1 -9.5q0 -13 11 -22t26 -9h12q13 1 22.5 1.5t20.5 1
t24.5 0.5h33.5h160h17t13.5 -0.5t15 -1.5t23.5 -3q5 -1 13 -1q10 0 18 3.5t15 12.5t14 24t15 38q16 -3 25 -9t18 -18q15 -21 23.5 -50t8.5 -58q0 -32 -13.5 -50.5t-37.5 -18.5q-16 0 -24.5 7t-24.5 30q-11 16 -23.5 26.5t-30.5 17t-43 9t-60 2.5q-30 0 -46.5 -4t-24.5 -13
q-4 -4 -6.5 -10t-3.5 -17.5t-1.5 -31.5t-0.5 -52q0 -21 1 -32.5t7 -17.5t18 -7t34 -1t31 8t12 31q2 15 3.5 24.5t3.5 15.5t5 10t8 8q10 9 24 9q20 0 34 -19q11 -14 18 -50.5t7 -75.5q0 -35 -6.5 -69t-17.5 -57q-13 -27 -40 -27q-17 0 -23 8.5t-10 35.5q-7 55 -64 55
q-22 0 -30 -14t-8 -51q0 -18 1 -37t3 -35.5t4.5 -28.5t5.5 -16q5 -8 28 -12t61 -4q36 0 62.5 4.5t46.5 14.5t34 26.5t26 40.5q14 29 25 38.5t29 9.5q20 0 33.5 -18t13.5 -44q0 -15 -4 -34t-11.5 -39.5t-17 -40.5t-20.5 -37t-18.5 -22.5t-18.5 -5.5q-4 0 -11 0.5t-15 2.5
q-18 3 -41 5t-43 2h-414zM470 734h32.5t15.5 1t8 1h5q8 0 14 -5t6 -13q0 -5 -2.5 -15t-6.5 -21t-8.5 -22t-8.5 -18q-13 -21 -30 -21q-4 0 -8 0.5t-26 3.5q-9 1 -20.5 1.5t-26.5 0.5h-160q-40 0 -61.5 -0.5t-40.5 -1.5q-3 -1 -6 -1h-5q-10 0 -17 5t-7 13q0 4 3.5 14t8 22
t9.5 23t9 17q13 21 34 21h6.5t8.5 -1q24 -2 45.5 -3t38.5 -1h190z" />
    <glyph glyph-name="emacron" unicode="&#x113;" horiz-adv-x="532" 
d="M240 219q-15 0 -15 -13q0 -16 9.5 -32t25 -28.5t34.5 -20t39 -7.5q24 0 52 8.5t47 22.5q11 8 16 10t11 2q13 0 25 -15.5t12 -32.5q0 -23 -19.5 -45.5t-51 -40.5t-71.5 -29t-81 -11q-55 0 -102 19t-81.5 52t-54 78t-19.5 98q0 52 21 98t57 80.5t84.5 54t104.5 19.5
q93 0 157 -52q35 -28 55.5 -67t20.5 -76q0 -32 -13 -52t-34 -20h-229zM302 310q31 0 31 28q0 26 -15.5 43t-39.5 17q-23 0 -40 -18.5t-17 -43.5q0 -14 7 -20t24 -6h50zM412 658h31.5t16.5 1t8.5 1.5t4.5 0.5q20 0 20 -20q0 -9 -7 -27t-20 -41q-7 -11 -13 -16t-16 -5
q-4 0 -8 0.5t-26 3.5q-9 1 -20.5 1.5t-26.5 0.5h-127q-40 0 -61.5 -0.5t-40.5 -1.5q-3 -1 -6 -1h-5q-11 0 -17.5 5.5t-6.5 13.5q0 3 3 11t7.5 18t9.5 20.5t10 19.5q13 21 34 21h6.5t8.5 -1q23 -2 45 -3.5t39 -1.5h157z" />
    <glyph glyph-name="Ebreve" unicode="&#x114;" horiz-adv-x="681" 
d="M169 667q35 -44 73.5 -64t87.5 -20q108 0 176 91q10 3 14 3l20 6q9 3 16 3q15 0 29 -11.5t24.5 -30t17 -43t6.5 -50.5q0 -32 -13.5 -50.5t-37.5 -18.5q-16 0 -24.5 7t-24.5 30q-11 16 -23.5 26.5t-30.5 17t-43 9t-60 2.5q-30 0 -46.5 -4t-24.5 -13q-4 -4 -6.5 -10
t-3.5 -17.5t-1.5 -31.5t-0.5 -52q0 -21 1 -32.5t7 -17.5t18 -7t34 -1t31 8t12 31q2 15 3.5 24.5t3.5 15.5t5 10t8 8q10 9 24 9q19 0 35 -19q10 -14 17 -50.5t7 -75.5q0 -35 -6.5 -69t-17.5 -57q-13 -27 -40 -27q-17 0 -23 8.5t-10 35.5q-7 55 -64 55q-22 0 -30 -14t-8 -51
q0 -18 1 -37t3 -35.5t4.5 -28.5t5.5 -16q5 -8 28 -12t61 -4q36 0 62.5 4.5t46.5 14.5t34 26.5t26 40.5q14 29 25 38.5t29 9.5q20 0 33.5 -18t13.5 -44q0 -15 -4 -34t-11.5 -39.5t-17 -40.5t-20.5 -37t-18.5 -22.5t-18.5 -5.5q-4 0 -11 0.5t-15 2.5q-18 3 -41 5t-43 2h-414
q-52 0 -52 42q0 14 5.5 20.5t27.5 16.5q14 6 21 15.5t12 27.5q16 71 16 198q0 91 -6.5 153t-17.5 85q-5 10 -10.5 14t-24.5 9q-28 9 -28 37q0 31 28 42q8 4 26 5.5t53 1.5h60zM164 778q4 0 7 -0.5t7 -3t11 -8.5t20 -17q21 -18 52.5 -28.5t65.5 -10.5q57 0 111 23
q8 4 12.5 6.5t10 6t12.5 10t19 18.5q6 4 12 4q10 0 18 -6t8 -14q0 -10 -8.5 -29t-21.5 -39q-29 -45 -73.5 -69.5t-96.5 -24.5q-99 0 -166 101q-24 37 -26 58q-1 9 7 16t19 7z" />
    <glyph glyph-name="ebreve" unicode="&#x115;" horiz-adv-x="532" 
d="M240 219q-15 0 -15 -13q0 -16 9.5 -32t25 -28.5t34.5 -20t39 -7.5q24 0 52 8.5t47 22.5q11 8 16 10t11 2q13 0 25 -15.5t12 -32.5q0 -23 -19.5 -45.5t-51 -40.5t-71.5 -29t-81 -11q-55 0 -102 19t-81.5 52t-54 78t-19.5 98q0 52 21 98t57 80.5t84.5 54t104.5 19.5
q93 0 157 -52q35 -28 55.5 -67t20.5 -76q0 -32 -13 -52t-34 -20h-229zM302 310q31 0 31 28q0 26 -15.5 43t-39.5 17q-23 0 -40 -18.5t-17 -43.5q0 -14 7 -20t24 -6h50zM108 719q4 0 7 -0.5t7 -3t11 -8.5t20 -17q22 -18 53.5 -29t63.5 -11q59 0 112 25q9 4 14 6.5t10 6
t11.5 10t18.5 17.5q6 4 12 4q10 0 18 -6t8 -14q0 -10 -8.5 -29t-21.5 -39q-29 -45 -73.5 -69.5t-96.5 -24.5q-99 0 -166 101q-24 37 -26 58q-1 9 7 16t19 7z" />
    <glyph glyph-name="Edotaccent" unicode="&#x116;" horiz-adv-x="681" 
d="M184 667q1 -34 29.5 -54t76.5 -20q35 0 73.5 8.5t69.5 22.5q18 8 28.5 18.5t18.5 28.5q12 2 18.5 2t13.5 2q2 1 9.5 3t18.5 5q9 3 16 3q15 0 29 -11.5t24.5 -30t17 -43t6.5 -50.5q0 -32 -13.5 -50.5t-37.5 -18.5q-16 0 -24.5 7t-24.5 30q-11 16 -23.5 26.5t-30.5 17
t-43 9t-60 2.5q-30 0 -46.5 -4t-24.5 -13q-4 -4 -6.5 -10t-3.5 -17.5t-1.5 -31.5t-0.5 -52q0 -21 1 -32.5t7 -17.5t18 -7t34 -1t31 8t12 31q2 15 3.5 24.5t3.5 15.5t5 10t8 8q10 9 24 9q19 0 35 -19q10 -14 17 -50.5t7 -75.5q0 -35 -6.5 -69t-17.5 -57q-13 -27 -40 -27
q-17 0 -23 8.5t-10 35.5q-7 55 -64 55q-22 0 -30 -14t-8 -51q0 -18 1 -37t3 -35.5t4.5 -28.5t5.5 -16q5 -8 28 -12t61 -4q36 0 62.5 4.5t46.5 14.5t34 26.5t26 40.5q14 29 25 38.5t29 9.5q20 0 33.5 -18t13.5 -44q0 -15 -4 -34t-11.5 -39.5t-17 -40.5t-20.5 -37t-18.5 -22.5
t-18.5 -5.5q-4 0 -11 0.5t-15 2.5q-18 3 -41 5t-43 2h-414q-52 0 -52 42q0 14 5.5 20.5t27.5 16.5q14 6 21 15.5t12 27.5q16 71 16 198q0 91 -6.5 153t-17.5 85q-5 10 -10.5 14t-24.5 9q-28 9 -28 37q0 31 28 42q8 4 26 5.5t53 1.5h75zM372 753q46 0 72.5 -16t26.5 -43
q0 -38 -44 -58q-29 -14 -66 -21.5t-71 -7.5q-42 0 -67.5 16.5t-25.5 42.5q0 14 11 29.5t28 25.5q26 14 63.5 23t72.5 9z" />
    <glyph glyph-name="edotaccent" unicode="&#x117;" horiz-adv-x="532" 
d="M240 219q-15 0 -15 -13q0 -16 9.5 -32t25 -28.5t34.5 -20t39 -7.5q24 0 52 8.5t47 22.5q11 8 16 10t11 2q13 0 25 -15.5t12 -32.5q0 -23 -19.5 -45.5t-51 -40.5t-71.5 -29t-81 -11q-55 0 -102 19t-81.5 52t-54 78t-19.5 98q0 52 21 98t57 80.5t84.5 54t104.5 19.5
q93 0 157 -52q35 -28 55.5 -67t20.5 -76q0 -32 -13 -52t-34 -20h-229zM302 310q31 0 31 28q0 26 -15.5 43t-39.5 17q-23 0 -40 -18.5t-17 -43.5q0 -14 7 -20t24 -6h50zM313 686q48 0 75.5 -16t27.5 -44q0 -18 -12 -33t-33 -26t-50 -17t-63 -6q-41 0 -66 17t-25 45
q0 38 38.5 59t107.5 21z" />
    <glyph glyph-name="Eogonek" unicode="&#x118;" horiz-adv-x="681" 
d="M360 667q39 0 65.5 0.5t46.5 2.5t35.5 5t32.5 8q9 3 16 3q15 0 29 -11.5t24.5 -30t17 -43t6.5 -50.5q0 -32 -13.5 -50.5t-37.5 -18.5q-16 0 -24.5 7t-24.5 30q-11 16 -23.5 26.5t-30.5 17t-43 9t-60 2.5q-29 0 -45.5 -3t-25 -13.5t-10.5 -31t-2 -56.5q0 -37 1 -50.5
t4 -19.5q4 -6 16.5 -9t38.5 -3q22 0 31 8t12 31q2 15 3.5 24.5t3.5 15.5t5 10t8 8q10 9 24 9q21 0 35 -19q10 -14 17 -50.5t7 -75.5q0 -35 -6.5 -69t-17.5 -57q-13 -27 -40 -27q-17 0 -23 8.5t-10 35.5q-7 55 -64 55q-22 0 -30 -14t-8 -51q0 -18 1 -37t3 -35.5t4.5 -28.5
t5.5 -16q5 -8 28 -12t61 -4q36 0 62.5 4.5t46.5 14.5t34 26.5t26 40.5q14 29 25 38.5t29 9.5q20 0 33.5 -18t13.5 -44q0 -15 -4 -34t-11.5 -39.5t-17 -40.5t-20.5 -37t-18.5 -22.5t-18.5 -5.5h-5t-8 1q8 7 10.5 12.5t2.5 15.5q0 21 -16 37t-38 16q-11 0 -28.5 -9.5
t-34.5 -24.5l-43 -38h-364q-52 0 -52 42q0 14 5.5 20.5t27.5 16.5q14 6 21 15.5t12 27.5q16 71 16 198q0 91 -6.5 153t-17.5 85q-5 10 -10.5 14t-24.5 9q-28 9 -28 37q0 31 28 42q8 4 26 5.5t53 1.5h251zM474 28q17 14 32 22.5t25 8.5q15 0 27 -12.5t12 -27.5
q0 -8 -4.5 -13.5t-18.5 -16.5q-15 -11 -24 -24.5t-9 -27.5q0 -18 13.5 -30.5t33.5 -12.5h10t8.5 1.5t12 5t21.5 9.5q6 3 13 3q19 0 19 -28q0 -35 -29 -50.5t-93 -15.5q-63 0 -101 24t-38 63q0 42 60 95z" />
    <glyph glyph-name="eogonek" unicode="&#x119;" horiz-adv-x="532" 
d="M240 219q-15 0 -15 -13q0 -16 9.5 -32t25 -28.5t34.5 -20t39 -7.5q24 0 52 8.5t47 22.5q11 8 16 10t11 2q13 0 25 -15.5t12 -32.5q0 -48 -83 -92q-13 40 -46 40q-11 0 -27 -8.5t-33 -23.5l-28 -24q-6 -6 -9.5 -9t-8.5 -9q-54 3 -99 22.5t-77.5 52t-50.5 76.5t-18 95
q0 53 21 99t57 80.5t84.5 54t104.5 19.5q93 0 157 -52q35 -28 55.5 -67t20.5 -76q0 -32 -13 -52t-34 -20h-229zM302 310q31 0 31 28q0 26 -15.5 43t-39.5 17q-23 0 -40 -18.5t-17 -43.5q0 -14 7 -20t24 -6h50zM315 19q15 13 29 20.5t22 7.5q14 0 25 -11t11 -25q0 -8 -4 -13
t-17 -14q-14 -10 -22 -22.5t-8 -25.5q0 -16 12.5 -27t30.5 -11h8.5t8 1.5t11.5 4.5t19 9q6 2 11 2q17 0 17 -25q0 -31 -26.5 -45t-83.5 -14t-91 21.5t-34 57.5q0 37 54 85z" />
    <glyph glyph-name="Ecaron" unicode="&#x11a;" horiz-adv-x="681" 
d="M172 667q54 -47 95 -71.5t64 -24.5q12 0 30 7.5t40 21t47.5 32t51.5 41.5q8 2 13 2.5t7 1.5l20 6q9 3 16 3q15 0 29 -11.5t24.5 -30t17 -43t6.5 -50.5q0 -32 -13.5 -50.5t-37.5 -18.5q-16 0 -24.5 7t-24.5 30q-11 16 -23.5 26.5t-30.5 17t-43 9t-60 2.5q-30 0 -46.5 -4
t-24.5 -13q-4 -4 -6.5 -10t-3.5 -17.5t-1.5 -31.5t-0.5 -52q0 -21 1 -32.5t7 -17.5t18 -7t34 -1t31 8t12 31q2 15 3.5 24.5t3.5 15.5t5 10t8 8q10 9 24 9q19 0 35 -19q10 -14 17 -50.5t7 -75.5q0 -35 -6.5 -69t-17.5 -57q-13 -27 -40 -27q-17 0 -23 8.5t-10 35.5
q-7 55 -64 55q-22 0 -30 -14t-8 -51q0 -18 1 -37t3 -35.5t4.5 -28.5t5.5 -16q5 -8 28 -12t61 -4q36 0 62.5 4.5t46.5 14.5t34 26.5t26 40.5q14 29 25 38.5t29 9.5q20 0 33.5 -18t13.5 -44q0 -15 -4 -34t-11.5 -39.5t-17 -40.5t-20.5 -37t-18.5 -22.5t-18.5 -5.5
q-4 0 -11 0.5t-15 2.5q-18 3 -41 5t-43 2h-414q-52 0 -52 42q0 14 5.5 20.5t27.5 16.5q14 6 21 15.5t12 27.5q16 71 16 198q0 91 -6.5 153t-17.5 85q-5 10 -10.5 14t-24.5 9q-28 9 -28 37q0 31 28 42q8 4 26 5.5t53 1.5h63zM188 765q13 0 34 -9t71 -35q18 -10 37 -10
q23 0 72 23q37 18 53 24t27 6q14 0 25 -11.5t11 -25.5q0 -16 -18 -35.5t-60 -50.5q-36 -26 -65.5 -41.5t-44.5 -15.5q-16 0 -50 19t-73 50q-33 27 -45 42t-12 31q0 17 10.5 28t27.5 11z" />
    <glyph glyph-name="ecaron" unicode="&#x11b;" horiz-adv-x="532" 
d="M240 219q-15 0 -15 -13q0 -16 9.5 -32t25 -28.5t34.5 -20t39 -7.5q24 0 52 8.5t47 22.5q11 8 16 10t11 2q13 0 25 -15.5t12 -32.5q0 -23 -19.5 -45.5t-51 -40.5t-71.5 -29t-81 -11q-55 0 -102 19t-81.5 52t-54 78t-19.5 98q0 52 21 98t57 80.5t84.5 54t104.5 19.5
q93 0 157 -52q35 -28 55.5 -67t20.5 -76q0 -32 -13 -52t-34 -20h-229zM302 310q31 0 31 28q0 26 -15.5 43t-39.5 17q-23 0 -40 -18.5t-17 -43.5q0 -14 7 -20t24 -6h50zM145 714q11 0 31 -7.5t43 -19.5q29 -15 44.5 -21.5t24.5 -6.5q7 0 29.5 8t41.5 17q34 17 51.5 23t28.5 6
q14 0 25 -11t11 -26t-18 -34.5t-60 -50.5q-36 -26 -65.5 -41.5t-44.5 -15.5q-16 0 -50 19t-73 50q-33 27 -45 42t-12 30q0 17 10.5 28t27.5 11z" />
    <glyph glyph-name="Gbreve" unicode="&#x11e;" horiz-adv-x="785" 
d="M238 653q34 -37 69 -53.5t81 -16.5q94 0 160 72q5 1 8 1t6 1q2 1 7.5 2.5t16.5 6.5q9 3 21 3q16 0 32.5 -13t30 -33.5t21.5 -46.5t8 -52q0 -42 -21 -68t-56 -26q-29 0 -56 21q-3 2 -5.5 4t-6.5 6.5t-10.5 12.5t-17.5 22q-54 66 -124 66q-63 0 -100.5 -46.5t-37.5 -125.5
q0 -54 14 -102t37.5 -84t55.5 -57t68 -21q26 0 42 17t16 43q0 23 -13 34q-5 4 -10 4.5t-29 0.5q-21 0 -34.5 13.5t-13.5 34.5q0 32 36 49q24 12 65.5 19t88.5 7q80 0 139 -17q53 -16 53 -60q0 -18 -12 -30.5t-32 -15.5q-17 -2 -22 -7t-11 -26q-28 -96 -109.5 -150.5
t-199.5 -54.5q-79 0 -147.5 27t-119 74t-79.5 110.5t-29 137.5q0 52 15 100t43.5 89.5t69.5 74t92 53.5zM222 778q4 0 7 -0.5t7 -3t11 -8.5t20 -17q21 -18 52.5 -28.5t65.5 -10.5q57 0 111 23q8 4 12.5 6.5t10 6t12.5 10t19 18.5q6 4 12 4q10 0 18 -6t8 -14q0 -10 -8.5 -29
t-21.5 -39q-29 -45 -73.5 -69.5t-96.5 -24.5q-99 0 -166 101q-24 37 -26 58q-1 9 7 16t19 7z" />
    <glyph glyph-name="gbreve" unicode="&#x11f;" horiz-adv-x="569" 
d="M535 513q12 0 21.5 -14.5t9.5 -32.5q0 -20 -12.5 -45t-29.5 -40q-7 -7 -9 -9.5t-2 -6.5v-2t1 -9q1 -6 1 -10.5v-9.5q0 -37 -18.5 -68.5t-52 -54t-79.5 -35.5t-100 -13h-18t-15 2q-7 1 -11.5 1h-8.5q-11 0 -18.5 -7.5t-7.5 -18.5q0 -16 17 -25.5t43 -9.5q11 0 27 1.5
t33 3.5q42 6 70.5 8.5t49.5 2.5q57 0 88 -19q26 -15 40.5 -41.5t14.5 -55.5q0 -37 -20.5 -73t-55.5 -61q-88 -64 -238 -64q-56 0 -101 9t-76.5 25.5t-49 40t-17.5 52.5q0 19 10 34.5t27 23.5q9 4 12 6.5t3 5.5q0 4 -2 7t-10 9q-19 16 -29.5 33.5t-10.5 34.5q0 23 18.5 47.5
t47.5 39.5q12 5 12 11q0 7 -15 21q-50 47 -50 109q0 32 18 62t50 51q36 23 82.5 37t90.5 14q12 0 22.5 -0.5t23 -2.5t30 -5t42.5 -7q13 -3 28 -3q29 0 53 9.5t53 32.5q12 9 18 9zM271 411q-25 0 -40 -18.5t-15 -48.5q0 -53 16 -84.5t43 -31.5q26 0 41 19.5t15 53.5
q0 51 -16 80.5t-44 29.5zM164 -33q-12 0 -12 -14q0 -29 31 -46.5t81 -17.5q48 0 75 12.5t27 35.5q0 12 -10.5 20.5t-25.5 8.5q-4 0 -9 -0.5t-13 -1.5q-12 -2 -28.5 -3t-32.5 -1q-19 0 -42 2t-34 4q-3 1 -7 1zM117 719q4 0 7 -0.5t7 -3t11 -8.5t20 -17q22 -18 53.5 -29
t63.5 -11q59 0 112 25q9 4 14 6.5t10 6t11.5 10t18.5 17.5q6 4 12 4q10 0 18 -6t8 -14q0 -10 -8.5 -29t-21.5 -39q-29 -45 -73.5 -69.5t-96.5 -24.5q-99 0 -166 101q-24 37 -26 58q-1 9 7 16t19 7z" />
    <glyph glyph-name="Gcommaaccent" unicode="&#x122;" horiz-adv-x="785" 
d="M479 -4q-33 40 -83 40q-51 0 -79 -42q-67 12 -122 43.5t-94.5 76.5t-61 101.5t-21.5 120.5q0 73 28.5 136t78.5 109.5t117.5 73t146.5 26.5q64 0 121 -18q17 -5 23 -6.5t12 -1.5q7 0 12.5 1.5t28.5 9.5q9 3 21 3q16 0 32.5 -13t30 -33.5t21.5 -46.5t8 -52q0 -42 -21 -68
t-56 -26q-29 0 -56 21q-3 2 -5.5 4t-6.5 6.5t-10.5 12.5t-17.5 22q-54 66 -124 66q-63 0 -100.5 -46.5t-37.5 -125.5q0 -54 14 -102t37.5 -84t55.5 -57t68 -21q26 0 42 17t16 43q0 23 -13 34q-5 4 -10 4.5t-29 0.5q-21 0 -34.5 13.5t-13.5 34.5q0 32 36 49q24 12 65.5 19
t88.5 7q80 0 139 -17q53 -16 53 -60q0 -18 -12 -30.5t-32 -15.5q-17 -2 -22 -7t-11 -26q-22 -77 -78.5 -127t-144.5 -69zM397 23q37 0 62.5 -25.5t25.5 -62.5q0 -21 -9.5 -44t-24 -41.5t-32 -30.5t-34.5 -12q-12 0 -21 7t-9 16q0 3 1.5 5.5t6.5 7.5q11 11 18.5 22.5
t7.5 17.5q0 9 -11 13q-57 18 -57 63q0 27 22 45.5t54 18.5z" />
    <glyph glyph-name="gcommaaccent" unicode="&#x123;" horiz-adv-x="565" 
d="M524 513q12 0 21.5 -14.5t9.5 -32.5q0 -20 -12.5 -45t-29.5 -40q-7 -7 -9 -9.5t-2 -6.5v-2t1 -9q1 -6 1 -10.5v-9.5q0 -37 -18.5 -68.5t-52 -54t-79.5 -35.5t-100 -13h-18t-15 2q-7 1 -11.5 1h-8.5q-11 0 -18.5 -7.5t-7.5 -18.5q0 -16 17 -25.5t43 -9.5q11 0 27 1.5
t33 3.5q42 6 70.5 8.5t49.5 2.5q57 0 88 -19q26 -15 40.5 -41.5t14.5 -55.5q0 -37 -20.5 -73t-55.5 -61q-88 -64 -238 -64q-56 0 -101 9t-76.5 25.5t-49 40t-17.5 52.5q0 19 10 34.5t27 23.5q9 4 12 6.5t3 5.5q0 4 -2 7t-10 9q-19 16 -29.5 33.5t-10.5 34.5q0 23 18.5 47.5
t47.5 39.5q12 5 12 11q0 7 -15 21q-50 47 -50 109q0 32 18 62t50 51q36 23 82.5 37t90.5 14q12 0 22.5 -0.5t23 -2.5t30 -5t42.5 -7q13 -3 28 -3q29 0 53 9.5t53 32.5q12 9 18 9zM260 411q-25 0 -40 -18.5t-15 -48.5q0 -53 16 -84.5t43 -31.5q26 0 41 19.5t15 53.5
q0 51 -16 80.5t-44 29.5zM153 -33q-12 0 -12 -14q0 -29 31 -46.5t81 -17.5q48 0 75 12.5t27 35.5q0 12 -10.5 20.5t-25.5 8.5q-4 0 -9 -0.5t-13 -1.5q-12 -2 -28.5 -3t-32.5 -1q-19 0 -42 2t-34 4q-3 1 -7 1zM290 740q12 0 20.5 -6.5t8.5 -15.5q0 -3 -1.5 -5.5t-6.5 -7.5
q-11 -11 -18 -22t-7 -17q0 -9 11 -12q55 -18 55 -62q0 -26 -21 -44t-52 -18q-36 0 -61 25t-25 61q0 21 9 43t23 40t31 29.5t34 11.5z" />
    <glyph glyph-name="Imacron" unicode="&#x12a;" horiz-adv-x="393" 
d="M387 613q1 -14 -6.5 -22t-33.5 -22q-11 -6 -18.5 -17t-11.5 -32.5t-5.5 -57.5t-1.5 -91q0 -92 2.5 -150t7.5 -81q3 -14 10 -22t25 -16q17 -8 24.5 -18t7.5 -26q0 -15 -9 -26t-30 -19q-26 -11 -72 -17t-106 -6q-159 0 -159 60q0 13 6.5 22t24.5 20q24 14 28 40
q2 12 3.5 36t3 56t2 69t0.5 75q0 54 -1.5 88t-6.5 55t-13.5 33t-23.5 21q-20 12 -26.5 21t-7.5 25h8h11q11 1 20.5 1.5t21 1t25.5 0.5h34h160h17t13.5 -0.5t15 -1.5t23.5 -3q3 -1 6.5 -1h6.5q10 0 25 8v-3zM336 734h32.5t15.5 1t8 1h5q8 0 14 -5t6 -13q0 -5 -2.5 -15
t-6.5 -21t-8.5 -22t-8.5 -18q-13 -21 -30 -21q-4 0 -8 0.5t-26 3.5q-9 1 -20.5 1.5t-26.5 0.5h-160q-40 0 -61.5 -0.5t-40.5 -1.5q-3 -1 -6 -1h-5q-10 0 -17 5t-7 13q0 4 3.5 14t8 22t9.5 23t9 17q13 21 34 21h6.5t8.5 -1q24 -2 45.5 -3t38.5 -1h190z" />
    <glyph glyph-name="imacron" unicode="&#x12b;" horiz-adv-x="347" 
d="M286 169q0 -34 6 -49.5t25 -28.5q15 -11 20 -19t5 -19q0 -63 -160 -63q-18 0 -37.5 1t-38.5 3t-35 4.5t-26 5.5q-17 5 -27.5 17t-10.5 28q0 6 1 11t4.5 9.5t10 10t17.5 13.5q16 11 22 36t6 76q0 15 -0.5 34.5t-1.5 37t-2.5 31t-2.5 16.5q-3 8 -8.5 13t-17.5 10
q-17 8 -23.5 17t-6.5 23q0 30 40 46q27 10 57.5 19t60 16t54.5 11t42 4q27 0 27 -31v-283zM279 658h31.5t16.5 1t8.5 1.5t4.5 0.5q20 0 20 -20q0 -9 -7 -27t-20 -41q-7 -11 -13 -16t-16 -5q-4 0 -8 0.5t-26 3.5q-9 1 -20.5 1.5t-26.5 0.5h-100q-40 0 -61.5 -0.5t-40.5 -1.5
q-3 -1 -6 -1h-5q-11 0 -17.5 5.5t-6.5 13.5q0 3 3 11t7.5 18t9.5 20.5t10 19.5q13 21 33 21h3t7 -0.5t15.5 -1.5t29.5 -2q10 -1 17 -1.5t11 -0.5h147z" />
    <glyph glyph-name="Iogonek" unicode="&#x12e;" horiz-adv-x="394" 
d="M188 11q-6 -5 -10.5 -9.5l-11.5 -11.5q-156 0 -156 60q0 13 6.5 21.5t24.5 19.5q14 8 20 17.5t8 23.5q2 12 4 34t3.5 51t2 63.5t0.5 70.5q0 69 -3.5 114.5t-9.5 63.5q-7 19 -32 36q-20 13 -27 22t-7 23q0 31 53 46q38 10 80 15.5t83 5.5q24 0 53.5 -2.5t51.5 -7.5
q66 -12 66 -56q0 -14 -6.5 -21.5t-33.5 -20.5q-12 -6 -19 -16.5t-11 -33.5t-5.5 -60.5t-1.5 -97.5q0 -59 1 -100t2.5 -69t4.5 -44t7 -23q5 -8 10.5 -12t19.5 -11q17 -8 24.5 -18t7.5 -25q0 -19 -11.5 -30.5t-40.5 -20.5q1 5 1 12q0 20 -16.5 36t-37.5 16q-11 0 -28.5 -9
t-35.5 -25zM227 28q17 14 32 22.5t24 8.5q16 0 28 -12.5t12 -27.5q0 -8 -4.5 -13.5t-18.5 -16.5q-15 -11 -24 -24.5t-9 -27.5q0 -18 13.5 -30.5t33.5 -12.5h10t8.5 1.5t12 5t21.5 9.5q6 3 12 3q19 0 19 -28q0 -35 -29 -50.5t-93 -15.5q-63 0 -100.5 24t-37.5 63q0 42 60 95z
" />
    <glyph glyph-name="iogonek" unicode="&#x12f;" horiz-adv-x="347" 
d="M285 169q0 -34 6 -49.5t25 -28.5q15 -11 20 -19t5 -19q0 -33 -45 -50q1 25 -13 41t-37 16q-11 0 -26 -8.5t-32 -22.5l-27 -24q-4 -3 -7 -6l-8 -8q-40 2 -66.5 6t-43 10.5t-23.5 16.5t-7 24q0 7 1 11.5t4.5 9.5t10 10.5t17.5 13.5t15 16t8 28q6 31 6 59q0 9 -0.5 27.5
t-1.5 38t-2 35.5t-2 20q-3 20 -27 30q-31 14 -31 40q0 30 40 46q27 10 57.5 19t60 16t54.5 11t42 4q27 0 27 -31v-283zM188 667q42 0 67 -16t25 -43q0 -17 -10.5 -33t-27.5 -26q-28 -17 -66.5 -26t-78.5 -9q-38 0 -61 17t-23 46q0 32 39 55q12 7 29 13.5t35.5 11t37 7.5
t34.5 3zM196 19q15 13 29 20.5t22 7.5q14 0 25 -11t11 -25q0 -8 -4 -13t-17 -14q-14 -10 -22 -22.5t-8 -25.5q0 -16 12.5 -27t30.5 -11h8.5t8 1.5t11.5 4.5t19 9q6 2 11 2q17 0 17 -25q0 -31 -26.5 -45t-83.5 -14t-91 21.5t-34 57.5q0 37 54 85z" />
    <glyph glyph-name="Idotaccent" unicode="&#x130;" horiz-adv-x="394" 
d="M336 664q51 -12 51 -53q0 -14 -7 -21t-33 -20q-11 -6 -18.5 -17t-11.5 -33t-5.5 -57.5t-1.5 -90.5q0 -93 2.5 -151t7.5 -81q3 -14 10 -21.5t25 -16.5q17 -8 24.5 -18t7.5 -26q0 -15 -9 -26t-30 -19q-26 -11 -72 -17t-106 -6q-160 0 -160 60q0 13 6.5 22t24.5 20
q14 8 20 17t9 23q2 12 3.5 36t3 55.5t2 69t0.5 75.5q0 54 -1.5 88t-6.5 55t-13.5 33t-23.5 21q-20 13 -27 22t-7 23q0 15 9.5 24.5t34.5 18.5q8 -28 35 -43.5t70 -15.5q35 0 73.5 8.5t69.5 22.5q16 7 26 16t18 23zM232 753q46 0 72.5 -16t26.5 -43q0 -38 -44 -58
q-30 -14 -67 -21.5t-71 -7.5q-42 0 -67.5 16.5t-25.5 42.5q0 14 11 29.5t28 25.5q27 14 64.5 23t72.5 9z" />
    <glyph glyph-name="dotlessi" unicode="&#x131;" horiz-adv-x="347" 
d="M285 169q0 -34 6 -49.5t25 -28.5q15 -11 20 -19t5 -19q0 -63 -160 -63q-18 0 -37.5 1t-38.5 3t-35 4.5t-26 5.5q-17 5 -27.5 17t-10.5 28q0 6 1 11t4.5 9.5t10 10t17.5 13.5q16 11 22 36t6 76q0 15 -0.5 34.5t-1.5 37t-2.5 31t-2.5 16.5q-3 8 -8.5 13t-17.5 10
q-17 8 -23.5 17t-6.5 23q0 30 40 46q27 10 57.5 19t60 16t54.5 11t42 4q27 0 27 -31v-283z" />
    <glyph glyph-name="Kcommaaccent" unicode="&#x136;" horiz-adv-x="824" 
d="M523 483q-29 -28 -29 -50q0 -12 7 -24.5t24 -32.5l183 -212q12 -14 19.5 -22.5t13.5 -13.5t12.5 -8.5t15.5 -7.5q27 -11 38 -24.5t11 -35.5q0 -25 -19.5 -38.5t-54.5 -13.5h-185q-9 0 -16 1.5t-14 7t-15 15t-20 25.5q-7 9 -19.5 24.5t-27 33t-29 34t-25.5 28.5
q-27 29 -38.5 38.5t-20.5 9.5q-13 0 -20.5 -14t-7.5 -39q0 -26 6.5 -41.5t20.5 -24.5q19 -12 26.5 -23t7.5 -25q0 -32 -43 -46t-144 -14q-48 0 -81 3t-53.5 9.5t-29 17.5t-8.5 28q0 25 29 44q14 9 19 19.5t10 35.5q5 29 7.5 69.5t2.5 100.5q0 42 -0.5 70.5t-1.5 50.5
t-3 38.5t-5 34.5q-5 23 -11.5 33.5t-23.5 20.5q-27 16 -27 43q0 24 17 37.5t55 21.5q21 5 57 7.5t68 2.5q78 0 112.5 -14.5t34.5 -48.5q0 -15 -5 -23t-27 -26q-8 -6 -14.5 -32t-6.5 -51q0 -41 19 -41q5 0 10 2t11.5 8t16.5 17.5t25 31.5q23 29 30 40t7 22q0 5 -1.5 10
t-7.5 17q-7 13 -7 22q0 18 9.5 30.5t30 20.5t53.5 11.5t80 3.5q87 0 121.5 -14t34.5 -48q0 -16 -9 -29t-23 -18q-4 -1 -7 -1.5t-7.5 -1t-12 -0.5h-21.5q-13 0 -22 -1.5t-16.5 -4.5t-15.5 -9t-18 -16zM410 23q37 0 62.5 -25.5t25.5 -62.5q0 -21 -9.5 -44t-24 -41.5t-32 -30.5
t-34.5 -12q-12 0 -21 7t-9 16q0 4 8 13q11 11 18 22.5t7 17.5q0 7 -3 9.5t-20 7.5q-19 6 -31.5 22.5t-12.5 36.5q0 27 22 45.5t54 18.5z" />
    <glyph glyph-name="kcommaaccent" unicode="&#x137;" horiz-adv-x="725" 
d="M285 490l-1 -68q0 -20 0.5 -36.5t1.5 -21.5q3 -20 20 -20q7 0 20 5.5t25.5 13.5t21.5 15.5t9 12.5q0 4 -1.5 6.5t-9.5 13.5q-8 10 -8 19q0 26 34 39.5t97 13.5q36 0 70 -5.5t46 -13.5q13 -8 19.5 -19t6.5 -23q0 -17 -10 -24t-39 -13q-11 -2 -34 -14t-43 -26
q-13 -10 -13 -16q0 -8 25.5 -45.5t67.5 -91.5q18 -23 30.5 -38t23 -24.5t20 -16.5t23.5 -14q35 -20 35 -44q0 -26 -22.5 -40.5t-61.5 -14.5h-158q-17 0 -26.5 5t-19.5 17l-81 104q-17 21 -26 33t-14 17t-7 6t-5 1q-5 0 -7 -9.5t-2 -34.5q0 -20 5 -30.5t22 -23.5
q6 -5 9.5 -13.5t3.5 -16.5q0 -17 -10.5 -31.5t-27.5 -19.5q-18 -7 -49 -10.5t-68 -3.5q-48 0 -81 2t-47 7q-17 5 -28.5 19.5t-11.5 31.5q0 18 21 32q18 11 22.5 16.5t7.5 18.5q2 11 4 33t3.5 51t2.5 62t1 65v107q0 27 -1 43.5t-4.5 26t-10.5 13t-18 5.5q-40 6 -40 34
q0 30 57 55q25 11 55 21t59 17.5t54 12t42 4.5q11 0 19.5 -6.5t6.5 -14.5l-1 -3zM374 23q37 0 62.5 -25.5t25.5 -62.5q0 -21 -9.5 -44t-24 -41.5t-32 -30.5t-34.5 -12q-12 0 -21 7t-9 16q0 4 8 13q11 11 18 22.5t7 17.5q0 7 -3 9.5t-20 7.5q-19 6 -31.5 22.5t-12.5 36.5
q0 27 22 45.5t54 18.5z" />
    <glyph glyph-name="Lacute" unicode="&#x139;" horiz-adv-x="627" 
d="M78 0q-21 0 -30 1.5t-17 6.5q-9 5 -14.5 14t-5.5 19q0 14 6.5 20.5t31.5 18.5q12 6 22 16.5t14 20.5q2 6 3 14t2 21.5t1 33.5v49q0 25 -1 53.5t-2 75.5q-1 39 -1.5 70.5t-0.5 51.5q-1 21 -2.5 34t-4.5 21t-9 12.5t-16 7.5q-33 11 -45 20.5t-12 25.5q0 32 47.5 50.5
t131.5 19.5q-13 -11 -18 -20.5t-5 -22.5q0 -50 65 -50q45 0 83 13.5t83 43.5q10 -13 10 -25q0 -17 -8.5 -25.5t-39.5 -21.5q-9 -4 -14.5 -10t-8.5 -18.5t-4 -33.5t-1 -54v-224q0 -39 3 -63.5t12 -38t24.5 -18t41.5 -4.5q56 0 88 24t45 77q8 32 33 32q26 0 42.5 -23t16.5 -61
q0 -29 -12 -63t-33 -66q-14 -22 -25 -30t-26 -8q-5 0 -10 0.5t-12 1.5t-18 3t-29 5q-14 3 -40 3h-341zM305 763q25 0 46.5 -4.5t37 -12t24.5 -17t8 -20.5q-2 -23 -42 -54q-74 -57 -163 -57q-50 0 -50 36q0 7 1.5 12t7 11t16.5 14.5t30 22.5q12 9 12 18q0 3 -0.5 5t-5.5 10
q-2 4 -2 7q0 13 22.5 21t57.5 8z" />
    <glyph glyph-name="lacute" unicode="&#x13a;" horiz-adv-x="349" 
d="M284 231q0 -51 0.5 -79t3 -41.5t8 -18.5t15.5 -9q18 -8 24 -14.5t6 -20.5q0 -25 -28 -41q-17 -10 -46.5 -13.5t-86.5 -3.5q-51 0 -80.5 3t-50.5 11q-17 7 -28.5 20.5t-11.5 27.5q0 12 6 18t27 15q9 4 15 16t9.5 37.5t5 67.5t1.5 105q0 60 -1.5 96t-5.5 57.5t-12.5 32
t-21.5 18.5q-20 12 -28 22.5t-8 25.5q0 16 11 30.5t31 24.5q8 4 14 6.5t23 7.5q2 -26 17 -37t47 -11q42 0 78.5 12t77.5 38q1 -6 1 -9v-7q0 -2 -1 -17.5t-4 -53.5q-1 -12 -2 -35.5t-2 -48.5t-2 -46.5t-1 -29.5v-156zM227 763q25 0 46.5 -4.5t37 -12t24.5 -17t8 -20.5
q-2 -23 -42 -54q-74 -57 -163 -57q-50 0 -50 36q0 7 1.5 12t7 11t16.5 14.5t30 22.5q12 9 12 18q0 3 -0.5 5t-5.5 10q-2 4 -2 7q0 13 22.5 21t57.5 8z" />
    <glyph glyph-name="Lcommaaccent" unicode="&#x13b;" horiz-adv-x="627" 
d="M385 0q-32 36 -80 36q-46 0 -75 -36h-152q-21 0 -30 1.5t-17 6.5q-9 5 -14.5 14t-5.5 19q0 14 6.5 20.5t31.5 18.5q12 6 22 16.5t14 20.5q2 6 3 14t2 21.5t1 33v48.5q0 25 -1 54t-2 76q-1 39 -1.5 70.5t-0.5 51.5q-1 21 -2.5 34t-4.5 21t-9 12.5t-16 7.5q-33 11 -45 20.5
t-12 25.5q0 33 51 51.5t144 18.5q37 0 65 -1t49 -4t36 -7.5t26 -10.5q26 -14 26 -38q0 -17 -8 -25.5t-40 -21.5q-9 -4 -14.5 -10t-8.5 -18.5t-4 -33.5t-1 -54v-224q0 -39 3 -63.5t12 -38t24.5 -18t41.5 -4.5q56 0 88 24t45 77q8 32 33 32q26 0 42.5 -23t16.5 -61
q0 -29 -12 -63t-33 -66q-14 -22 -25 -30t-26 -8q-5 0 -10 0.5t-12 1.5t-18 3t-29 5q-14 3 -40 3h-34zM306 23q37 0 62.5 -25.5t25.5 -62.5q0 -21 -9.5 -44t-24 -41.5t-32.5 -30.5t-35 -12q-12 0 -21 6.5t-9 16.5q0 3 1.5 5.5t6.5 7.5q11 11 18.5 22.5t7.5 17.5q0 7 -3 9.5
t-20 7.5q-19 6 -31.5 22.5t-12.5 36.5q0 27 22 45.5t54 18.5z" />
    <glyph glyph-name="lcommaaccent" unicode="&#x13c;" horiz-adv-x="347" 
d="M284 231q0 -51 0.5 -79t3 -41.5t8 -18.5t15.5 -9q18 -8 24 -14.5t6 -20.5q0 -44 -83 -56q-30 44 -85 44q-51 0 -79 -42q-41 5 -63 20t-22 38q0 12 6 18t27 15q9 4 15 16t9.5 37.5t5 67.5t1.5 105q0 60 -1.5 96t-5.5 57.5t-12.5 32t-21.5 18.5q-20 12 -28 22.5t-8 25.5
q0 24 22.5 42t73.5 33q17 5 40.5 10.5t47 9.5t44.5 6.5t33 2.5q39 0 39 -48q0 -7 -1.5 -26.5l-3.5 -45.5q-1 -8 -2 -31t-2 -48.5t-2 -48.5t-1 -31v-157zM174 23q37 0 62.5 -25.5t25.5 -62.5q0 -21 -9.5 -44t-24 -41.5t-32 -30.5t-34.5 -12q-12 0 -21 7t-9 16q0 3 1.5 5.5
t6.5 7.5q11 11 18.5 22.5t7.5 17.5q0 9 -11 13q-57 18 -57 63q0 27 22 45.5t54 18.5z" />
    <glyph glyph-name="Lcaron" unicode="&#x13d;" horiz-adv-x="627" 
d="M318 229q0 -39 3 -63.5t12 -38t24.5 -18t41.5 -4.5q56 0 88 24t45 77q8 32 33 32q26 0 42.5 -23t16.5 -61q0 -29 -12 -63t-33 -66q-14 -22 -25 -30t-26 -8q-5 0 -10 0.5t-12 1.5t-18 3t-29 5q-14 3 -40 3h-341q-21 0 -30 1.5t-17 6.5q-9 5 -14.5 14t-5.5 19
q0 14 6.5 20.5t31.5 18.5q12 6 22 16.5t14 20.5q2 6 3 14t2 21.5t1 33v48.5q0 25 -1 54t-2 76q-1 39 -1.5 70.5t-0.5 51.5q-1 21 -2.5 34t-4.5 21t-9 12.5t-16 7.5q-33 11 -45 20.5t-12 25.5q0 33 51 51.5t144 18.5q37 0 65 -1t49 -4t36 -7.5t26 -10.5q26 -14 26 -38
q0 -17 -8 -25.5t-40 -21.5q-9 -4 -14.5 -10t-8.5 -18.5t-4 -33.5t-1 -54v-224zM523 680q37 0 62.5 -25.5t25.5 -62.5q0 -22 -9.5 -44.5t-24 -41t-32.5 -30.5t-35 -12q-12 0 -21 6.5t-9 16.5q0 3 1.5 5.5t6.5 7.5q11 11 18.5 22.5t7.5 17.5q0 7 -3 9.5t-20 7.5
q-19 6 -31.5 22.5t-12.5 36.5q0 27 22 45.5t54 18.5z" />
    <glyph glyph-name="lcaron" unicode="&#x13e;" horiz-adv-x="395" 
d="M298 230q0 -51 0.5 -78.5t3 -41t8 -18.5t15.5 -9q18 -8 24 -14.5t6 -20.5q0 -25 -28 -41q-16 -10 -46 -13.5t-87 -3.5q-51 0 -80.5 3t-50.5 11q-17 7 -28.5 20.5t-11.5 27.5q0 12 6 18t27 15q9 4 15 16t9.5 37.5t5 67.5t1.5 105q0 60 -1.5 96t-5.5 57.5t-12.5 32
t-21.5 18.5q-21 12 -28.5 22.5t-7.5 25.5q0 25 22.5 42.5t73.5 32.5q27 8 62 15t70 11q-18 -21 -18 -43q0 -26 16 -47.5t37 -25.5q13 -3 13 -5t-8.5 -13t-16.5 -19t-8 -19q0 -14 12 -24.5t29 -10.5h6q-1 -31 -1.5 -45.5t-0.5 -24.5v-157zM306 680q36 0 61 -25t25 -61
q0 -21 -9 -43t-23.5 -40t-31.5 -29.5t-33 -11.5q-12 0 -20.5 6.5t-8.5 15.5q0 3 1.5 5.5t6.5 7.5q11 11 18 22t7 17q0 9 -11 12q-55 18 -55 62q0 26 21 44t52 18z" />
    <glyph glyph-name="Lslash" unicode="&#x141;" horiz-adv-x="627" 
d="M89 292l-1 72q-2 66 -2.5 101t-1.5 42q-1 15 -2.5 24t-5 14.5t-9 9t-14.5 6.5q-33 11 -44.5 20.5t-11.5 25.5q0 33 51 51.5t144 18.5q74 0 113.5 -5t61.5 -18q26 -14 26 -38q0 -17 -8.5 -25.5t-39.5 -21.5q-9 -4 -14.5 -10t-8.5 -18.5t-4 -33t-1 -53.5v-42zM317 303v-74
q0 -39 3 -63.5t12 -38t24.5 -18t41.5 -4.5q56 0 88 24t45 77q8 32 33 32q26 0 42.5 -23t16.5 -61q0 -29 -12 -62.5t-33 -66.5q-14 -22 -25 -30t-26 -8q-5 0 -10 0.5t-12 1.5t-18 3t-29 5q-14 3 -40 3h-340q-21 0 -30.5 1.5t-17.5 6.5q-9 5 -14.5 14t-5.5 19q0 7 1.5 12
t5.5 9t11.5 8t20.5 10q25 14 33 31.5t8 56.5v15zM60 182q-2 -1 -27 -17q-8 -5 -11 -6.5t-8 -1.5q-14 0 -18 15q-3 8 -5.5 20.5t-2.5 17.5q0 10 5.5 16t19.5 12q14 7 24 11.5t24 12.5l383 201q6 3 18.5 10.5t14.5 9.5q8 6 10.5 7.5t7.5 1.5q11 0 20 -16.5t9 -35.5
q0 -13 -5.5 -17.5t-31.5 -15.5q-2 -1 -10.5 -5t-22.5 -11z" />
    <glyph glyph-name="lslash" unicode="&#x142;" horiz-adv-x="347" 
d="M284 312v-81q0 -51 0.5 -79t3 -41.5t8 -18.5t15.5 -9q18 -8 24 -14.5t6 -20.5q0 -25 -28 -41q-17 -10 -46.5 -13.5t-86.5 -3.5q-51 0 -80.5 3t-50.5 11q-17 7 -28.5 20.5t-11.5 27.5q0 12 6 18t26 15q7 3 12.5 10t8.5 21t5 36t4 56zM72 325q0 55 -1.5 88.5t-5.5 54
t-12.5 30.5t-21.5 18q-20 12 -27.5 22t-7.5 25q0 25 22.5 42.5t73.5 32.5q17 5 40.5 10.5t47 9.5t44.5 6.5t33 2.5q39 0 39 -48q0 -7 -1.5 -26.5l-3.5 -45.5q0 -1 -1 -12t-1.5 -28t-1.5 -39t-2 -45zM317 423q2 1 8 5l12 8q8 6 10.5 7.5t6.5 1.5q5 0 10 -5t9.5 -12.5
t7.5 -16.5t3 -18q0 -19 -11 -25q-3 -2 -5.5 -2.5t-13.5 -5.5q-4 -2 -11.5 -5.5t-20.5 -9.5l-297 -144q-9 -6 -11 -7t-7 -1q-11 0 -19.5 15.5t-8.5 34.5q0 8 1 12.5t6 9t16 10.5t31 16z" />
    <glyph glyph-name="Nacute" unicode="&#x143;" horiz-adv-x="817" 
d="M525 431q19 -17 30.5 -24t19.5 -7q12 0 18.5 14t6.5 38q0 32 -1.5 52.5t-5.5 34t-11.5 21t-19.5 13.5q-19 8 -27 18.5t-8 25.5q0 3 2 13q18 12 28.5 20.5t21.5 20.5q16 4 33 5t52 1q42 0 64 -2t38 -7q45 -14 45 -52q0 -31 -37 -47q-14 -6 -19.5 -11t-9.5 -15
q-14 -39 -14 -122v-160v-82.5v-45.5t-0.5 -24.5t-1.5 -19.5q-5 -51 -18 -75t-38 -24q-8 0 -13.5 1t-12.5 5t-15.5 11t-20.5 18l-290 260q-30 27 -50 27q-29 0 -29 -83q0 -34 1.5 -56t6 -36.5t11.5 -22.5t19 -14q18 -9 25 -18.5t7 -23.5q0 -33 -37 -50.5t-109 -17.5
q-66 0 -102 17.5t-36 49.5q0 16 6.5 24.5t31.5 22.5q24 14 28 48q1 13 2.5 33.5t3 45.5t2 51.5t0.5 51.5q0 27 -1 54.5t-3 52t-5 44.5t-6 32q-5 21 -13 31.5t-28 19.5q-22 11 -30.5 21t-8.5 25q0 17 13 31t36 21q20 6 48.5 8.5t78.5 2.5q19 0 33 -1t24.5 -5t20 -10.5
t21.5 -16.5zM467 763q25 0 46.5 -4.5t37 -12t24.5 -17t8 -20.5q-2 -23 -42 -54q-74 -57 -163 -57q-50 0 -50 36q0 7 1.5 12t7 11t16.5 14.5t30 22.5q12 9 12 18q0 3 -0.5 5t-5.5 10q-2 4 -2 7q0 13 22.5 21t57.5 8z" />
    <glyph glyph-name="nacute" unicode="&#x144;" horiz-adv-x="660" 
d="M610 134q1 -11 2 -17.5t4.5 -13t10 -14t18.5 -19.5q8 -8 8 -22q0 -32 -39 -45t-138 -13q-67 0 -95.5 12t-28.5 40q0 5 0.5 8t2.5 6.5t6.5 8l13.5 13.5q7 8 10 19t5 35q1 8 2 20t1.5 25t1 25t0.5 20q0 31 -6.5 60.5t-14.5 40.5q-15 18 -42 18q-34 0 -47 -25
q-5 -11 -7.5 -27t-2.5 -45v-97q0 -15 0.5 -23.5t3 -16t8 -17t15.5 -24.5q6 -9 6 -20q0 -29 -40 -42.5t-125 -13.5q-70 0 -103 14t-33 43q0 11 4.5 17t20.5 17q6 5 10 9.5t6 12.5t3.5 21.5t2.5 36.5q2 28 3 57.5t1 59.5q0 17 -1 27t-4.5 17t-10.5 12.5t-19 13.5
q-21 12 -21 32q0 10 4 17.5t13.5 14.5t26.5 14.5t44 16.5q23 8 46.5 15.5t43.5 13t36 8.5t24 3q14 0 24 -11t10 -26v-4.5t-1 -7.5v-7q0 -23 20 -23q10 0 24 18q23 32 51.5 46.5t70.5 14.5q30 0 57.5 -8.5t47.5 -23.5q15 -12 25.5 -24.5t17.5 -29.5t10.5 -39t4.5 -52z
M379 698q25 0 46.5 -4.5t37 -12t24.5 -17t8 -20.5q-2 -23 -42 -54q-74 -57 -163 -57q-50 0 -50 36q0 7 1.5 12t7 11t16.5 14.5t30 22.5q12 9 12 18q0 3 -0.5 5t-5.5 10q-2 4 -2 7q0 13 22.5 21t57.5 8z" />
    <glyph glyph-name="Ncommaaccent" unicode="&#x145;" horiz-adv-x="817" 
d="M525 431q19 -17 30.5 -24t19.5 -7q12 0 18.5 14t6.5 38q0 32 -1.5 52.5t-6 33.5t-11.5 20.5t-19 13.5q-20 10 -27.5 20t-7.5 27q0 41 56 53q14 3 32.5 4t50.5 1q39 0 61.5 -2t38.5 -7q45 -14 45 -52q0 -32 -37 -47q-14 -7 -19.5 -11.5t-9.5 -14.5q-14 -39 -14 -122v-160
v-82.5v-45.5t-0.5 -24.5t-1.5 -19.5q-5 -51 -18 -75t-38 -24q-8 0 -13.5 1t-12.5 5t-15.5 11t-20.5 18l-290 260q-30 27 -50 27q-29 0 -29 -83q0 -34 1.5 -56t6 -36.5t11.5 -22.5t19 -14q18 -9 25 -18.5t7 -23.5q0 -33 -37 -50.5t-109 -17.5q-66 0 -102 17.5t-36 49.5
q0 16 6.5 24.5t31.5 22.5q24 14 28 48q1 13 2.5 33.5t3 45.5t2 51.5t0.5 51.5q0 27 -1 54.5t-3 52t-5 44.5t-6 32q-5 21 -13 31.5t-28 19.5q-22 11 -30.5 21t-8.5 25q0 17 13 31t36 21q20 6 48.5 8.5t78.5 2.5q19 0 33 -1t24.5 -5t20 -10.5t21.5 -16.5zM414 23
q37 0 62.5 -25.5t25.5 -62.5q0 -21 -9.5 -44t-24 -41.5t-32 -30.5t-34.5 -12q-12 0 -21 7t-9 16q0 4 8 13q11 11 18 22.5t7 17.5q0 7 -3 9.5t-20 7.5q-19 6 -31.5 22.5t-12.5 36.5q0 27 22 45.5t54 18.5z" />
    <glyph glyph-name="ncommaaccent" unicode="&#x146;" horiz-adv-x="660" 
d="M610 134q1 -11 2 -17.5t4.5 -13t10 -14t18.5 -19.5q8 -8 8 -22q0 -16 -9 -27t-30 -18t-55.5 -10t-84.5 -3q-19 0 -32 0.5t-29 2.5q-21 31 -60 40l-1 10q0 8 3 13t20 22q7 7 10 18t5 36q1 8 2 20t1.5 25t1 25t0.5 20q0 31 -6.5 60.5t-14.5 40.5q-15 18 -42 18
q-34 0 -47 -25q-5 -11 -7.5 -27t-2.5 -45v-97q0 -15 0.5 -23.5t3 -16t8 -17t15.5 -24.5q6 -9 6 -20q0 -4 -3 -13q-19 -5 -29.5 -12t-22.5 -22q-25 -5 -51 -7t-56 -2q-73 0 -106 13.5t-33 43.5q0 11 4.5 17t20.5 17q6 5 10 9.5t6 12.5t3.5 21.5t2.5 36.5q2 28 3 57.5t1 59.5
q0 17 -1 27t-4.5 17t-10.5 12.5t-19 13.5q-21 12 -21 32q0 10 4 17.5t13.5 14.5t26.5 14.5t44 16.5q23 8 46.5 15.5t43.5 13t36 8.5t24 3q14 0 24 -11t10 -26v-4.5t-1 -7.5v-7q0 -23 20 -23q10 0 24 18q23 32 51.5 46.5t70.5 14.5q30 0 57.5 -8.5t47.5 -23.5
q15 -12 25.5 -24.5t17.5 -29.5t10.5 -39t4.5 -52zM330 23q37 0 62.5 -25.5t25.5 -62.5q0 -21 -9.5 -44t-24 -41.5t-32 -30.5t-34.5 -12q-12 0 -21 7t-9 16q0 4 8 13q11 11 18 22.5t7 17.5q0 7 -3 9.5t-20 7.5q-19 6 -31.5 22.5t-12.5 36.5q0 27 22 45.5t54 18.5z" />
    <glyph glyph-name="Ncaron" unicode="&#x147;" horiz-adv-x="817" 
d="M525 431q19 -17 30.5 -24t19.5 -7q12 0 18.5 14t6.5 38q0 32 -1.5 52.5t-6 34t-11.5 21t-19 13.5q-20 9 -27.5 19.5t-7.5 27.5q0 8 4 17q11 9 19 15.5t19 15.5q9 3 17 4.5t18.5 2.5t25 1.5t34.5 0.5q42 0 64 -2t38 -7q45 -14 45 -52q0 -31 -37 -47q-14 -6 -19.5 -11
t-9.5 -15q-14 -39 -14 -122v-160v-82.5v-45.5t-0.5 -24.5t-1.5 -19.5q-5 -51 -18 -75t-38 -24q-8 0 -13.5 1t-12.5 5t-15.5 11t-20.5 18l-290 260q-30 27 -50 27q-29 0 -29 -83q0 -34 1.5 -56t6 -36.5t11.5 -22.5t19 -14q18 -9 25 -18.5t7 -23.5q0 -33 -37 -50.5t-109 -17.5
q-66 0 -102 17.5t-36 49.5q0 16 6.5 24.5t31.5 22.5q24 14 28 48q1 13 2.5 33.5t3 45.5t2 51.5t0.5 51.5q0 27 -1 54.5t-3 52t-5 44.5t-6 32q-5 21 -13 31.5t-28 19.5q-22 11 -30.5 21t-8.5 25q0 28 32 45q19 10 50 14t89 4q14 0 23 -0.5t16 -1t12.5 -2t13.5 -3.5
q22 -20 41.5 -35t41.5 -29zM263 765q13 0 34 -9t71 -35q18 -10 37 -10q23 0 72 23q37 18 53 24t27 6q14 0 25 -11.5t11 -25.5q0 -16 -18 -35.5t-60 -50.5q-36 -26 -65.5 -41.5t-44.5 -15.5q-16 0 -50 19t-73 50q-33 27 -45 42t-12 31q0 17 10.5 28t27.5 11z" />
    <glyph glyph-name="ncaron" unicode="&#x148;" horiz-adv-x="660" 
d="M610 134q1 -11 2 -17.5t4.5 -13t10 -14t18.5 -19.5q8 -8 8 -22q0 -32 -39 -45t-138 -13q-67 0 -95.5 12t-28.5 40q0 5 0.5 8t2.5 6.5t6.5 8l13.5 13.5q7 8 10 19t5 35q1 8 2 20t1.5 25t1 25t0.5 20q0 31 -6.5 60.5t-14.5 40.5q-15 18 -42 18q-34 0 -47 -25
q-5 -11 -7.5 -27t-2.5 -45v-97q0 -15 0.5 -23.5t3 -16t8 -17t15.5 -24.5q6 -9 6 -20q0 -29 -40 -42.5t-125 -13.5q-70 0 -103 14t-33 43q0 11 4.5 17t20.5 17q6 5 10 9.5t6 12.5t3.5 21.5t2.5 36.5q2 28 3 57.5t1 59.5q0 17 -1 27t-4.5 17t-10.5 12.5t-19 13.5
q-21 12 -21 32q0 10 4 17.5t13.5 14.5t26.5 14.5t44 16.5q23 8 46.5 15.5t43.5 13t36 8.5t24 3q14 0 24 -11t10 -26v-4.5t-1 -7.5v-7q0 -23 20 -23q10 0 24 18q23 32 51.5 46.5t70.5 14.5q30 0 57.5 -8.5t47.5 -23.5q15 -12 25.5 -24.5t17.5 -29.5t10.5 -39t4.5 -52z
M181 714q11 0 31 -7.5t43 -19.5q29 -15 44.5 -21.5t24.5 -6.5q7 0 29.5 8t41.5 17q34 17 51.5 23t28.5 6q14 0 25 -11t11 -26t-18 -34.5t-60 -50.5q-36 -26 -65.5 -41.5t-44.5 -15.5q-16 0 -50 19t-73 50q-33 27 -45 42t-12 30q0 17 10.5 28t27.5 11z" />
    <glyph glyph-name="Omacron" unicode="&#x14c;" horiz-adv-x="769" 
d="M464 614h16.5t13.5 -0.5t15.5 -1.5t23.5 -3q3 -1 6.5 -1h5.5q23 0 36 20q38 -25 69.5 -59t53.5 -73.5t34 -83t12 -87.5q0 -71 -29 -132.5t-79.5 -107t-118.5 -72t-146 -26.5q-77 0 -142.5 26.5t-113.5 73t-75.5 110t-27.5 138.5q0 87 38.5 160t110.5 123q7 -5 11.5 -6
t12.5 -1h12q13 1 22.5 1.5t20 1t24 0.5h33.5h161zM342 540q-18 0 -33 -8t-26 -21.5t-17.5 -32t-6.5 -39.5q0 -28 6 -61t16.5 -67t25 -67.5t31.5 -61.5q15 -23 37.5 -37.5t45.5 -14.5q37 0 59.5 28t22.5 73q0 30 -5 62.5t-14 65t-21.5 62.5t-27.5 54q-19 29 -44.5 47
t-48.5 18zM520 734h32t16 1q5 1 8 1h5q8 0 14 -5t6 -13q0 -5 -2.5 -14.5t-6.5 -21t-8.5 -22.5t-8.5 -18q-13 -21 -30 -21q-4 0 -8 0.5t-27 3.5q-8 1 -20 1.5t-26 0.5h-161q-40 0 -61 -0.5t-40 -1.5q-3 -1 -6 -1h-5q-10 0 -17 5t-7 13q0 4 3.5 14t8 22t9.5 23t9 17
q13 21 34 21h6t9 -1q24 -2 45.5 -3t38.5 -1h190z" />
    <glyph glyph-name="omacron" unicode="&#x14d;" horiz-adv-x="602" 
d="M320 486q56 0 104.5 -19t84 -52.5t56 -79t20.5 -97.5q0 -106 -97 -180q-92 -71 -213 -71q-58 0 -105.5 17t-81.5 48t-53 74t-19 95q0 57 23 105.5t63.5 84t96.5 55.5t121 20zM282 373q-22 0 -35 -16t-13 -42q0 -15 3 -35.5t8 -43.5t11.5 -46.5t14.5 -42.5q15 -40 49 -40
q44 0 44 55q0 20 -3 44.5t-8 48.5t-12 46t-15 38q-16 34 -44 34zM419 658h32.5t16.5 1t8 1.5t5 0.5q20 0 20 -20q0 -9 -7 -27t-20 -41q-7 -11 -13 -16t-16 -5q-4 0 -8 0.5t-27 3.5q-8 1 -20 1.5t-26 0.5h-127q-41 0 -62 -0.5t-40 -1.5q-3 -1 -6 -1h-5q-11 0 -17.5 5.5
t-6.5 13.5q0 3 3 11t7.5 18t9.5 20.5t10 19.5q13 21 34 21h6t9 -1q23 -2 45 -3.5t39 -1.5h156z" />
    <glyph glyph-name="Ohungarumlaut" unicode="&#x150;" horiz-adv-x="769" 
d="M332 613q8 -16 21.5 -22.5t38.5 -6.5q88 0 160 60q45 -23 81.5 -57.5t62.5 -76.5t40 -89.5t14 -95.5q0 -71 -29 -132.5t-79.5 -107t-118.5 -72t-146 -26.5q-77 0 -142.5 26.5t-113.5 73t-75.5 110t-27.5 138.5q0 84 36 155t103 120q11 -15 23.5 -20.5t35.5 -5.5
q61 0 116 29zM342 540q-18 0 -33 -8t-26 -21.5t-17.5 -32t-6.5 -39.5q0 -28 6 -61t16.5 -67t25 -67.5t31.5 -61.5q15 -23 37.5 -37.5t45.5 -14.5q37 0 59.5 28t22.5 73q0 30 -5 62.5t-14 65t-21.5 62.5t-27.5 54q-19 29 -44.5 47t-48.5 18zM343 620q37 23 54 43.5t17 42.5
q0 12 -5 21t-16 20q13 8 29 12t40 4q51 0 82.5 -15.5t31.5 -41.5q0 -19 -17 -38t-43.5 -34.5t-59.5 -25.5t-65 -10q-20 0 -31 5t-17 17zM286 763q52 0 83.5 -16t31.5 -42q0 -18 -17 -37t-44 -34.5t-60 -25.5t-64 -10q-52 0 -52 38q0 6 1.5 10.5t6 9.5t14 13t26.5 20
q10 7 10 20q0 7 -1 9.5t-6 10.5q-3 3 -3 8q0 11 21 18.5t53 7.5z" />
    <glyph glyph-name="ohungarumlaut" unicode="&#x151;" horiz-adv-x="602" 
d="M320 486q56 0 104.5 -19t84 -52.5t56 -79t20.5 -97.5q0 -106 -97 -180q-92 -71 -213 -71q-58 0 -105.5 17t-81.5 48t-53 74t-19 95q0 57 23 105.5t63.5 84t96.5 55.5t121 20zM282 373q-22 0 -35 -16t-13 -42q0 -15 3 -35.5t8 -43.5t11.5 -46.5t14.5 -42.5q15 -40 49 -40
q44 0 44 55q0 20 -3 44.5t-8 48.5t-12 46t-15 38q-16 34 -44 34zM287 554q84 41 84 88q0 14 -6 24t-21 21q16 7 29 9t31 2q52 0 84 -15.5t32 -41.5q0 -39 -77 -76q-12 -6 -28.5 -11.5t-34 -10t-33 -7t-25.5 -2.5q-22 0 -35 20zM242 698q52 0 83.5 -16t31.5 -42
q0 -18 -20 -38t-56 -37q-12 -6 -29 -11.5t-34 -10t-33 -7t-26 -2.5q-17 0 -27.5 10.5t-10.5 26.5q0 6 1.5 10.5t6 9.5t14 13t25.5 20q10 9 10 20q0 7 -1 9.5t-6 10.5q-3 3 -3 8q0 11 21 18.5t53 7.5z" />
    <glyph glyph-name="OE" unicode="&#x152;" horiz-adv-x="1079" 
d="M478 0h-13.5t-11 -0.5t-13 -1.5t-20.5 -2q-14 -2 -28.5 -3t-26.5 -1q-60 0 -116 19.5t-101 54.5q-29 24 -53 55.5t-41 67.5t-26.5 75t-9.5 78q0 70 27 131t74 106.5t110 71.5t136 26h10.5t13 -0.5t22.5 -1.5t39 -3q20 -2 39.5 -3t32.5 -1h321q42 0 64.5 3t46.5 12
q7 3 17 3q12 0 25 -7.5t21 -18.5q15 -22 25 -56t10 -62t-15 -45.5t-38 -17.5q-15 0 -26 7.5t-23 26.5q-16 23 -26 32t-26 16q-16 5 -44 8.5t-59 3.5q-29 0 -44 -3.5t-22 -12.5q-5 -6 -7 -16t-2 -35v-78q0 -18 2 -24.5t9 -9.5q7 -2 19.5 -4t26.5 -2q29 0 38 16q1 3 2 5t2 6
t1.5 11t2.5 19q4 23 15.5 35.5t28.5 12.5q28 0 42.5 -36.5t14.5 -107.5q0 -70 -18 -112.5t-47 -42.5q-16 0 -23.5 10t-9.5 35q-4 55 -60 55q-26 0 -34 -13.5t-8 -54.5q0 -36 3.5 -65t9.5 -43q3 -6 8.5 -10.5t16.5 -6.5t29.5 -3t47.5 -1q33 0 49.5 5t34.5 20q7 5 12 10t10 12
t10.5 16t13.5 23q12 22 25 31.5t31 9.5q21 0 33.5 -15t12.5 -41q0 -28 -10 -60t-25.5 -59t-33.5 -44.5t-34 -17.5h-5t-5.5 1t-9.5 3t-17 5q-5 2 -16 3t-19 1h-418zM333 543q-36 0 -58.5 -29t-22.5 -75q0 -16 2.5 -37t7.5 -44t11 -46.5t14 -43.5q23 -66 56 -101.5t70 -35.5
q36 0 59 28.5t23 73.5q0 28 -5 60.5t-14 65t-21.5 63t-27.5 55.5q-19 32 -43.5 49t-50.5 17z" />
    <glyph glyph-name="oe" unicode="&#x153;" horiz-adv-x="884" 
d="M594 219q-17 0 -17 -11t7.5 -26t18.5 -28q34 -35 84 -35q26 0 53 8.5t50 23.5q9 6 12.5 7.5t8.5 1.5q6 0 12.5 -5t12.5 -12.5t9.5 -17t3.5 -17.5q0 -21 -20 -42.5t-52.5 -39t-72 -28.5t-78.5 -11q-20 0 -42 3t-42.5 8.5t-38 13t-29.5 16.5q-5 4 -8 5t-5 1q-3 0 -12 -5
q-31 -19 -79.5 -30.5t-95.5 -11.5q-54 0 -94.5 12.5t-76.5 39.5q-89 68 -89 181q0 59 22.5 108t62.5 84t96 54.5t124 19.5q42 0 77.5 -9.5t71.5 -31.5q6 -3 7 -3q3 0 10 4q30 19 71 29.5t86 10.5t86 -16t72.5 -43t50 -62t18.5 -73q0 -31 -13 -55q-10 -18 -34 -18h-228z
M655 312q18 0 25 5t7 19q0 28 -14.5 45.5t-37.5 17.5q-26 0 -42.5 -17t-16.5 -43q0 -18 6.5 -22.5t32.5 -4.5h40zM279 375q-21 0 -33 -15t-12 -41q0 -14 2.5 -35t7 -44.5t10 -46t11.5 -39.5q8 -22 22.5 -34.5t31.5 -12.5q42 0 42 61q0 22 -3.5 49t-9.5 53t-13.5 47.5
t-15.5 33.5q-16 24 -40 24z" />
    <glyph glyph-name="Racute" unicode="&#x154;" horiz-adv-x="769" 
d="M260 666q-8 -10 -10 -16.5t-2 -15.5q0 -50 64 -50q53 0 106 22t88 59q71 -19 109 -61.5t38 -104.5q0 -45 -21.5 -82t-58.5 -55q-10 -5 -13 -9t-3 -11q0 -8 5 -12.5t19 -9.5q27 -11 45.5 -25.5t31.5 -34.5t20.5 -47t11.5 -64q3 -17 5.5 -27t8 -16t14 -10t23.5 -8
q9 -2 15.5 -12t6.5 -21q0 -34 -41.5 -54t-110.5 -20q-98 0 -138 51q-9 11 -16.5 24.5t-15 33t-15 45t-15.5 60.5q-11 47 -29 66.5t-49 19.5q-19 0 -24 -11t-5 -50q0 -25 2.5 -55.5t5.5 -44.5q2 -10 7 -15t19 -13q29 -17 29 -43q0 -32 -41 -45.5t-138 -13.5q-180 0 -180 68
q0 12 5.5 19t24.5 20q15 10 23.5 22t12 45.5t4.5 99t1 182.5q0 34 -1.5 56t-5.5 36t-11 22t-18 14q-21 11 -28.5 19.5t-7.5 22.5q0 17 14 30.5t39 20.5q23 5 58 5h10t11.5 -0.5t21 -1.5t37.5 -3q8 -1 16.5 -1h20.5h25zM299 416v-4q0 -18 5 -24t21 -6q43 0 62.5 22.5
t19.5 70.5q0 95 -67 95q-19 0 -26.5 -8.5t-9.5 -31.5zM400 763q25 0 46.5 -4.5t37 -12t24.5 -17t8 -20.5q-2 -23 -42 -54q-74 -57 -163 -57q-50 0 -50 36q0 7 1.5 12t7 11t16.5 14.5t30 22.5q12 9 12 18q0 3 -0.5 5t-5.5 10q-2 4 -2 7q0 13 22.5 21t57.5 8z" />
    <glyph glyph-name="racute" unicode="&#x155;" horiz-adv-x="532" 
d="M244 483q13 0 20 -1t11 -6.5t6 -16.5t4 -30q3 -21 15 -21q11 0 19 14q39 61 102 61q22 0 41 -8.5t33 -23t22 -34t8 -42.5q0 -24 -9 -45.5t-25 -37t-36.5 -25t-44.5 -9.5q-25 0 -42 9t-44 36q-11 10 -19 10q-14 0 -18 -16.5t-4 -67.5q0 -84 8 -106q5 -10 10.5 -14t22.5 -9
q44 -13 44 -46q0 -34 -37 -49q-15 -7 -56.5 -11t-95.5 -4q-89 0 -130.5 15t-41.5 47q0 26 30 46q14 9 19 16.5t7 20.5q5 23 6.5 63.5t1.5 101.5q0 22 -5 31.5t-19 15.5q-35 13 -35 40q0 23 23.5 39.5t80.5 33.5q15 4 33.5 8.5t36 7.5t33 5t25.5 2zM316 698q25 0 46.5 -4.5
t37 -12t24.5 -17t8 -20.5q-2 -23 -42 -54q-74 -57 -163 -57q-50 0 -50 36q0 7 1.5 12t7 11t16.5 14.5t30 22.5q12 9 12 18q0 3 -0.5 5t-5.5 10q-2 4 -2 7q0 13 22.5 21t57.5 8z" />
    <glyph glyph-name="Rcommaaccent" unicode="&#x156;" horiz-adv-x="769" 
d="M333 281q-19 0 -24 -11t-5 -50q0 -25 2.5 -55.5t5.5 -44.5q2 -10 7 -15t19 -13q29 -17 29 -43q0 -32 -41 -45.5t-138 -13.5q-180 0 -180 68q0 12 5.5 19t24.5 20q15 10 23.5 22t12 45.5t4.5 99t1 182.5q0 34 -1.5 56t-5.5 36t-11 22t-18 14q-21 11 -28.5 19.5t-7.5 22.5
q0 17 14 30.5t39 20.5q23 5 58 5h9t11.5 -0.5t21 -1.5t38.5 -3q8 -1 17.5 -1h21.5q40 0 117 6l38 2t27 1q53 0 96.5 -12.5t74 -35.5t47 -55.5t16.5 -72.5q0 -45 -21.5 -82t-58.5 -56q-10 -5 -13 -8.5t-3 -10.5q0 -8 5 -12.5t19 -9.5q27 -11 45.5 -25.5t31.5 -34.5t20.5 -47
t11.5 -64q3 -17 5.5 -27t8 -16t14 -10t23.5 -8q9 -2 15.5 -12t6.5 -21q0 -35 -41 -54.5t-113 -19.5q-96 0 -136 51q-9 11 -16.5 24.5t-15 32t-14.5 44.5t-16 62q-11 47 -29 66.5t-49 19.5zM299 416v-4q0 -18 5 -24t21 -6q43 0 62.5 22.5t19.5 70.5q0 95 -67 95
q-19 0 -26.5 -8.5t-9.5 -31.5zM407 23q37 0 62.5 -25.5t25.5 -62.5q0 -21 -9.5 -44t-24 -41.5t-32 -30.5t-34.5 -12q-12 0 -21 7t-9 16q0 3 1.5 5.5t6.5 7.5q11 11 18.5 22.5t7.5 17.5q0 9 -11 13q-57 18 -57 63q0 27 22 45.5t54 18.5z" />
    <glyph glyph-name="rcommaaccent" unicode="&#x157;" horiz-adv-x="532" 
d="M267 -7q-31 43 -85 43q-51 0 -79 -42q-96 10 -96 58q0 26 30 46q14 9 19 16.5t7 20.5q5 23 6.5 63.5t1.5 101.5q0 22 -5 31.5t-19 15.5q-35 13 -35 39q0 24 23.5 40.5t80.5 33.5q33 10 70 16.5t59 6.5q12 0 19 -1t11 -6.5t6 -16.5t4 -30q3 -21 15 -21q11 0 19 14
q39 61 102 61q22 0 41 -8.5t33 -23t22 -34t8 -42.5q0 -24 -9 -45.5t-25 -37t-36.5 -25t-44.5 -9.5q-25 0 -42 9t-44 36q-11 10 -19 10q-14 0 -18 -16.5t-4 -67.5q0 -84 8 -106q5 -10 10.5 -14t22.5 -9q44 -13 44 -46q0 -34 -37 -49q-10 -5 -22.5 -7t-41.5 -5zM183 23
q37 0 62.5 -25.5t25.5 -62.5q0 -21 -9.5 -44t-24 -41.5t-32 -30.5t-34.5 -12q-12 0 -21 7t-9 16q0 3 1.5 5.5t6.5 7.5q11 11 18.5 22.5t7.5 17.5q0 9 -11 13q-57 18 -57 63q0 27 22 45.5t54 18.5z" />
    <glyph glyph-name="Rcaron" unicode="&#x158;" horiz-adv-x="769" 
d="M177 669q54 -47 96 -72.5t65 -25.5t66.5 25.5t95.5 70.5q74 -18 113.5 -61.5t39.5 -106.5q0 -45 -21.5 -82t-58.5 -55q-10 -5 -13 -9t-3 -11q0 -8 5 -12.5t19 -9.5q27 -11 45.5 -25.5t31.5 -34.5t20.5 -47t11.5 -64q3 -17 5.5 -27t8 -16t14 -10t23.5 -8q9 -2 15.5 -12
t6.5 -21q0 -34 -41.5 -54t-110.5 -20q-98 0 -138 51q-9 11 -16.5 24.5t-15 33t-15 45t-15.5 60.5q-11 47 -29 66.5t-49 19.5q-19 0 -24 -11t-5 -50q0 -25 2.5 -55.5t5.5 -44.5q2 -10 7 -15t19 -13q29 -17 29 -43q0 -32 -41 -45.5t-138 -13.5q-180 0 -180 68q0 12 5.5 19
t24.5 20q15 10 23.5 22t12 45.5t4.5 99t1 182.5q0 34 -1.5 56t-5.5 36t-11 22t-18 14q-21 11 -28.5 19t-7.5 22q0 28 28 42.5t81 14.5h10h8.5t10.5 -0.5t17 -1.5zM299 416v-4q0 -18 5 -24t21 -6q43 0 62.5 22.5t19.5 70.5q0 95 -67 95q-19 0 -26.5 -8.5t-9.5 -31.5zM196 765
q13 0 34 -9t71 -35q18 -10 37 -10q23 0 72 23q37 18 53 24t27 6q14 0 25 -11.5t11 -25.5q0 -16 -18 -35.5t-60 -50.5q-36 -26 -65.5 -41.5t-44.5 -15.5q-16 0 -50 19t-73 50q-33 27 -45 42t-12 31q0 17 10.5 28t27.5 11z" />
    <glyph glyph-name="rcaron" unicode="&#x159;" horiz-adv-x="532" 
d="M244 483q13 0 20 -1t11 -6.5t6 -16.5t4 -30q3 -21 15 -21q11 0 19 14q39 61 102 61q22 0 41 -8.5t33 -23t22 -34t8 -42.5q0 -24 -9 -45.5t-25 -37t-36.5 -25t-44.5 -9.5q-25 0 -42 9t-44 36q-11 10 -19 10q-14 0 -18 -16.5t-4 -67.5q0 -84 8 -106q5 -10 10.5 -14t22.5 -9
q44 -13 44 -46q0 -34 -37 -49q-15 -7 -56.5 -11t-95.5 -4q-89 0 -130.5 15t-41.5 47q0 26 30 46q14 9 19 16.5t7 20.5q5 23 6.5 63.5t1.5 101.5q0 22 -5 31.5t-19 15.5q-35 13 -35 40q0 23 23.5 39.5t80.5 33.5q15 4 33.5 8.5t36 7.5t33 5t25.5 2zM125 714q11 0 31 -7.5
t43 -19.5q29 -15 44.5 -21.5t24.5 -6.5q7 0 29.5 8t41.5 17q34 17 51.5 23t28.5 6q14 0 25 -11t11 -26t-18 -34.5t-60 -50.5q-36 -26 -65.5 -41.5t-44.5 -15.5q-16 0 -50 19t-73 50q-33 27 -45 42t-12 30q0 17 10.5 28t27.5 11z" />
    <glyph glyph-name="Sacute" unicode="&#x15a;" horiz-adv-x="630" 
d="M468 657q11 5 17 6.5t12 1.5q16 0 34.5 -15t34 -37.5t26 -49t10.5 -49.5q0 -27 -16.5 -46t-39.5 -19q-10 0 -16.5 1.5t-15 6.5t-20.5 16t-33 30q-31 29 -58.5 42t-56.5 13q-27 0 -43.5 -13t-16.5 -35t18 -37.5t57 -26.5q47 -14 75.5 -23t48 -17.5t33.5 -17.5t31 -23
q65 -51 65 -141q0 -53 -22.5 -96.5t-63.5 -75t-98.5 -48.5t-127.5 -17q-31 0 -65.5 4t-66.5 11t-58.5 16t-41.5 19q-12 7 -23 25.5t-19.5 42.5t-13.5 50.5t-5 51.5q0 24 10.5 38t29.5 14t36 -19q4 -4 6.5 -7t7 -9.5t12.5 -18.5l22 -33q18 -28 57.5 -46t81.5 -18
q36 0 58.5 13.5t22.5 34.5q0 20 -17.5 34t-57.5 26q-35 11 -60.5 20.5t-45.5 19.5t-36 21.5t-32 25.5q-38 33 -57.5 73t-19.5 82q0 39 15 73.5t42 63t66 48.5t87 31q-11 -11 -15.5 -19.5t-4.5 -20.5q0 -50 65 -50q50 0 99 19t87 54zM370 763q25 0 46.5 -4.5t37 -12t24.5 -17
t8 -20.5q-2 -23 -42 -54q-74 -57 -163 -57q-50 0 -50 36q0 7 1.5 12t7 11t16.5 14.5t30 22.5q12 9 12 18q0 3 -0.5 5t-5.5 10q-2 4 -2 7q0 13 22.5 21t57.5 8z" />
    <glyph glyph-name="sacute" unicode="&#x15b;" horiz-adv-x="454" 
d="M201 486q16 0 31 -2t49 -9q5 -1 10 -1.5t8 -0.5q6 0 11 1.5t22 8.5q5 2 10 3t9 1q13 0 28.5 -12.5t28.5 -31.5t21.5 -41.5t8.5 -41.5t-14 -32t-34 -13q-8 0 -15 1.5t-15 6.5t-18 14t-25 23q-31 30 -52 30q-14 0 -24 -10t-10 -24q0 -12 10.5 -22.5t35.5 -21.5
q88 -42 125.5 -81.5t37.5 -90.5q0 -32 -14.5 -60t-39 -48.5t-58.5 -32.5t-73 -12h-11t-14.5 1t-26.5 3t-48 6q-8 1 -13.5 1.5t-8.5 0.5h-6.5t-8.5 -2q-11 -2 -13.5 -2h-7.5q-14 0 -21 2.5t-15 9.5q-10 9 -20 24t-17.5 32.5t-12 35t-4.5 31.5q0 45 35 45q7 0 12 -1.5t12.5 -7
t18.5 -17t30 -31.5q20 -22 33.5 -30t28.5 -8q16 0 26 8.5t10 22.5q0 23 -37 40q-80 39 -114.5 80t-34.5 95q0 35 13 64.5t36 50.5t55 33t70 12zM287 698q25 0 46.5 -4.5t37 -12t24.5 -17t8 -20.5q-2 -23 -42 -54q-74 -57 -163 -57q-50 0 -50 36q0 7 1.5 12t7 11t16.5 14.5
t30 22.5q12 9 12 18q0 3 -0.5 5t-5.5 10q-2 4 -2 7q0 13 22.5 21t57.5 8z" />
    <glyph glyph-name="scircumflex" unicode="&#x15d;" horiz-adv-x="454" 
d="M201 486q16 0 31 -2t49 -9q5 -1 10 -1.5t8 -0.5q6 0 11 1.5t22 8.5q5 2 10 3t9 1q13 0 28.5 -12.5t28.5 -31.5t21.5 -41.5t8.5 -41.5t-14 -32t-34 -13q-8 0 -15 1.5t-15 6.5t-18 14t-25 23q-31 30 -52 30q-14 0 -24 -10t-10 -24q0 -12 10.5 -22.5t35.5 -21.5
q88 -42 125.5 -81.5t37.5 -90.5q0 -32 -14.5 -60t-39 -48.5t-58.5 -32.5t-73 -12h-11t-14.5 1t-26.5 3t-48 6q-8 1 -13.5 1.5t-8.5 0.5h-6.5t-8.5 -2q-11 -2 -13.5 -2h-7.5q-14 0 -21 2.5t-15 9.5q-10 9 -20 24t-17.5 32.5t-12 35t-4.5 31.5q0 45 35 45q7 0 12 -1.5t12.5 -7
t18.5 -17t30 -31.5q20 -22 33.5 -30t28.5 -8q16 0 26 8.5t10 22.5q0 23 -37 40q-80 39 -114.5 80t-34.5 95q0 35 13 64.5t36 50.5t55 33t70 12zM234 714q16 0 52.5 -20.5t74.5 -50.5q34 -26 47 -42t13 -30t-11 -25.5t-25 -11.5q-11 0 -29 6.5t-51 23.5q-9 4 -20 8.5t-21 8
t-18.5 6t-11.5 2.5q-9 0 -24.5 -6.5t-44.5 -21.5q-23 -13 -43.5 -20.5t-30.5 -7.5q-17 0 -27.5 11t-10.5 28t16 36t57 49q34 26 63.5 41.5t44.5 15.5z" />
    <glyph glyph-name="Scedilla" unicode="&#x15e;" horiz-adv-x="630" 
d="M399 -4q-33 40 -83 40q-54 0 -80 -46q-53 7 -98.5 20t-67.5 27q-12 7 -23 25.5t-19.5 42.5t-13.5 50.5t-5 51.5q0 24 10.5 38t29.5 14t36 -19q4 -4 6.5 -7t7 -9.5t12.5 -18.5t22 -34q18 -28 57.5 -46t81.5 -18q36 0 58.5 13.5t22.5 34.5q0 20 -17.5 34t-57.5 26
q-35 11 -60.5 20.5t-45.5 20t-36 21.5t-32 25q-38 33 -57.5 73.5t-19.5 82.5q0 46 21.5 86.5t59 71t87.5 48t107 17.5q16 0 29.5 -1t28 -4t32.5 -8t43 -12q9 -3 16 -3q4 0 7.5 1t21.5 8q7 3 17 3q16 0 34.5 -15t34 -37.5t26 -49t10.5 -49.5q0 -27 -16.5 -46t-39.5 -19
q-10 0 -16.5 1.5t-15 6.5t-20.5 16t-33 31q-31 29 -58.5 42t-56.5 13q-27 0 -43.5 -13t-16.5 -35t18 -37.5t57 -26.5q47 -14 76 -23.5t48 -17.5t33 -17t31 -23q65 -53 65 -141q0 -86 -57 -146.5t-158 -82.5zM317 23q37 0 62.5 -25.5t25.5 -62.5q0 -21 -9.5 -44t-24 -41.5
t-32 -30.5t-34.5 -12q-12 0 -21 7t-9 16q0 3 1.5 5.5t6.5 7.5q11 11 18.5 22.5t7.5 17.5q0 9 -11 13q-57 18 -57 63q0 27 22 45.5t54 18.5z" />
    <glyph glyph-name="scedilla" unicode="&#x15f;" horiz-adv-x="454" 
d="M314 -6q-33 42 -84 42q-48 0 -77 -39q-8 1 -12.5 1.5t-7.5 0.5h-7t-8 -2q-10 -2 -13 -2h-8q-14 0 -21 2.5t-15 9.5q-10 9 -20 24t-17.5 32.5t-12 35t-4.5 31.5q0 45 35 45q7 0 12 -1.5t12.5 -7t18.5 -17t30 -31.5q20 -22 33.5 -30t28.5 -8q16 0 26 8.5t10 22.5
q0 23 -37 40q-80 39 -114.5 80t-34.5 95q0 35 13 64.5t36 50.5t55 33t70 12q8 0 15.5 -0.5t16 -1.5t20 -3.5t28.5 -5.5q5 -1 9.5 -1.5t8.5 -0.5q6 0 11 1.5t22 8.5q5 2 10 3t9 1q13 0 28.5 -12.5t28.5 -31.5t21.5 -41.5t8.5 -41.5t-14 -32t-34 -13q-8 0 -15 1.5t-15 6.5
t-18 14t-25 23q-31 30 -52 30q-14 0 -24 -10t-10 -24q0 -12 10.5 -22.5t35.5 -21.5q88 -43 125.5 -82.5t37.5 -90.5t-34 -90t-92 -55zM231 23q37 0 62.5 -25.5t25.5 -62.5q0 -21 -9.5 -44t-24 -41.5t-32 -30.5t-34.5 -12q-12 0 -21 7t-9 16q0 4 8 13q11 11 18 22.5t7 17.5
q0 7 -3 9.5t-20 7.5q-19 6 -31.5 22.5t-12.5 36.5q0 27 22 45.5t54 18.5z" />
    <glyph glyph-name="Scaron" unicode="&#x160;" horiz-adv-x="630" 
d="M480 662q7 3 17 3q16 0 34.5 -15t34 -37.5t26 -49t10.5 -49.5q0 -27 -16.5 -46t-39.5 -19q-10 0 -16.5 1.5t-15 6.5t-20.5 16t-33 30q-31 29 -58.5 42t-56.5 13q-27 0 -43.5 -13t-16.5 -35t18 -37.5t57 -26.5q47 -14 75.5 -23t48 -17.5t33.5 -17.5t31 -23q65 -51 65 -141
q0 -53 -22.5 -96.5t-63.5 -75t-98.5 -48.5t-127.5 -17q-31 0 -65.5 4t-66.5 11t-58.5 16t-41.5 19q-12 7 -23 25.5t-19.5 42.5t-13.5 50.5t-5 51.5q0 24 10.5 38t29.5 14t36 -19q4 -4 6.5 -7t7 -9.5t12.5 -18.5l22 -33q18 -28 57.5 -46t81.5 -18q36 0 58.5 13.5t22.5 34.5
q0 20 -17.5 34t-57.5 26q-35 11 -60.5 20.5t-45.5 19.5t-36 21.5t-32 25.5q-38 33 -57.5 73t-19.5 82q0 60 37 111.5t103 82.5q98 -81 141 -81q21 0 59.5 22t85.5 60l8 2zM166 765q13 0 34 -9t71 -35q18 -10 37 -10q23 0 72 23q37 18 53 24t27 6q14 0 25 -11.5t11 -25.5
q0 -16 -18 -35.5t-60 -50.5q-36 -26 -65.5 -41.5t-44.5 -15.5q-16 0 -50 19t-73 50q-33 27 -45 42t-12 31q0 17 10.5 28t27.5 11z" />
    <glyph glyph-name="scaron" unicode="&#x161;" horiz-adv-x="454" 
d="M201 486q16 0 31 -2t49 -9q5 -1 10 -1.5t8 -0.5q6 0 11 1.5t22 8.5q5 2 10 3t9 1q13 0 28.5 -12.5t28.5 -31.5t21.5 -41.5t8.5 -41.5t-14 -32t-34 -13q-8 0 -15 1.5t-15 6.5t-18 14t-25 23q-31 30 -52 30q-14 0 -24 -10t-10 -24q0 -12 10.5 -22.5t35.5 -21.5
q88 -42 125.5 -81.5t37.5 -90.5q0 -32 -14.5 -60t-39 -48.5t-58.5 -32.5t-73 -12h-11t-14.5 1t-26.5 3t-48 6q-8 1 -13.5 1.5t-8.5 0.5h-6.5t-8.5 -2q-11 -2 -13.5 -2h-7.5q-14 0 -21 2.5t-15 9.5q-10 9 -20 24t-17.5 32.5t-12 35t-4.5 31.5q0 45 35 45q7 0 12 -1.5t12.5 -7
t18.5 -17t30 -31.5q20 -22 33.5 -30t28.5 -8q16 0 26 8.5t10 22.5q0 23 -37 40q-80 39 -114.5 80t-34.5 95q0 35 13 64.5t36 50.5t55 33t70 12zM91 714q11 0 31 -7.5t43 -19.5q29 -15 44.5 -21.5t24.5 -6.5q7 0 29.5 8t41.5 17q34 17 51.5 23t28.5 6q14 0 25 -11t11 -26
t-18 -34.5t-60 -50.5q-36 -26 -65.5 -41.5t-44.5 -15.5q-16 0 -50 19t-73 50q-33 27 -45 42t-12 30q0 17 10.5 28t27.5 11z" />
    </font>
</defs>
</svg>
